<?xml version="1.0" encoding="UTF-8" standalone="no"?>
<!-- Created with Inkscape (http://www.inkscape.org/) -->

<svg
   width="98.391563mm"
   height="66.269196mm"
   viewBox="0 0 98.391563 66.269196"
   version="1.1"
   id="svg1"
   xmlns="http://www.w3.org/2000/svg"
   xmlns:svg="http://www.w3.org/2000/svg">
  <defs
     id="defs1" />
  <g
     id="layer1"
     transform="translate(-53.957174,-47.743678)">
    <path
       style="fill:#ff0000;stroke-width:0.264583"
       id="path1"
       d="m 81.737276,48.940211 c -1.438804,2.456971 -3.419488,4.500505 -5.460823,6.457048 -0.82572,0.690777 -1.541883,1.357429 -2.491663,1.883553 -2.448851,1.356524 -5.235811,1.990452 -7.936603,2.612059 -1.437794,0.196845 -2.894492,0.698638 -4.36639,0.613558 -1.286507,-0.07436 -2.192459,-0.622281 -3.258963,-1.263904 0.757005,0.385951 1.446808,0.951217 2.271014,1.157849 0.381786,0.09571 -0.588732,-0.523537 -0.863809,-0.805056 -1.123582,-1.149892 -1.48396,-2.13115 -1.92614,-3.644532 -0.103383,-0.68244 -0.549621,-2.073881 0.04777,-2.681393 0.293211,-0.298181 0.662863,-0.274588 1.042836,-0.329989 0.26271,0.01881 0.527513,0.01839 0.788131,0.05644 1.152792,0.16833 2.274014,0.603805 3.377453,0.954637 2.002743,0.636755 1.291868,0.414028 3.452051,1.053315 1.892498,0.515754 3.78751,1.023104 5.677508,1.548 0.783416,0.217572 1.724248,0.452985 2.473238,0.807603 0.367541,0.17402 0.706572,0.402781 1.059857,0.604171 -0.733978,-0.397613 -1.421582,-0.896416 -2.201939,-1.192842 -0.394711,-0.149937 0.688681,0.488998 1.024118,0.745434 1.265994,0.967841 2.396505,2.074376 3.51569,3.204356 1.587995,1.764234 3.409918,3.266572 5.287328,4.706699 0.236672,0.1802 0.473345,0.3604 0.710017,0.5406 0,0 3.611417,1.437745 3.611417,1.437745 v 0 c -0.243028,-0.182343 -0.486056,-0.364685 -0.729083,-0.547028 -1.885791,-1.420673 -3.739946,-2.879016 -5.30977,-4.657106 -0.831196,-0.840801 -1.657916,-1.692664 -2.548985,-2.471214 -1.928347,-1.684851 -4.07543,-2.96877 -6.354551,-4.178707 -0.367622,-0.188344 -0.723167,-0.402408 -1.10287,-0.565028 -0.679598,-0.291058 -1.750118,-0.554228 -2.43568,-0.737852 -1.88494,-0.504873 -3.772189,-1.00139 -5.648034,-1.539647 -2.721176,-0.833303 -1.011418,-0.299202 -3.50061,-1.099053 -1.414661,-0.454573 -2.848361,-1.016426 -4.361198,-0.901451 -0.556742,0.1602 -0.853551,0.150955 -1.245822,0.611248 -0.685425,0.804278 -0.248463,2.079995 -0.118306,2.972266 0.286819,1.054224 0.534799,2.107371 1.171559,3.019097 1.427416,2.043797 3.711919,3.119559 5.821532,4.344265 0.962932,0.512789 1.219888,0.741553 2.274633,0.964067 1.826384,0.3853 3.669149,-0.278574 5.448745,-0.59509 2.675366,-0.658577 5.633661,-1.352352 8.059488,-2.697557 0.937358,-0.519797 1.708021,-1.253005 2.512732,-1.944219 2.052913,-1.993503 4.062939,-4.05053 5.629437,-6.461239 z" />
    <path
       style="fill:#ff6600;stroke-width:0.264583"
       id="path2"
       d="m 102.80105,81.429949 c 5.60394,2.102559 11.0721,4.555268 16.58795,6.877444 3.38056,1.399212 6.86291,2.525469 10.44503,3.279103 3.579,0.75298 7.21076,1.144836 10.84182,1.534988 2.93231,0.168997 6.7392,0.760974 9.42768,-0.833604 0.31435,-0.186447 0.58089,-0.443714 0.87133,-0.66557 1.08736,-1.159322 1.63527,-2.69344 1.25181,-4.271687 -0.067,-0.275781 -0.18659,-0.536062 -0.27989,-0.804093 -0.41957,-0.862758 -1.02864,-1.576178 -1.86043,-2.072555 -1.17863,-0.70335 -3.47523,-2.297282 -5.29184,-2.759956 -0.39044,-0.09944 -0.79336,-0.141121 -1.19004,-0.211683 -0.45727,-0.01437 -0.91453,-0.05675 -1.37183,-0.04309 -1.5166,0.0453 -2.91659,0.296426 -4.42428,0.542925 -2.95473,0.483084 -5.88139,1.054089 -8.80304,1.70485 -0.8572,0.25341 -1.72957,0.460261 -2.57161,0.760235 -2.64116,0.940898 -5.08619,2.338147 -7.51652,3.712957 -1.75182,0.990986 -2.89448,1.659688 -4.6246,2.663097 -3.52224,2.00714 -6.96508,4.157123 -10.53927,6.071484 -1.90387,0.861234 -0.96369,0.458234 -2.81857,1.213567 0,0 3.17316,2.119529 3.17316,2.119529 v 0 c 1.85074,-0.786318 0.90973,-0.368062 2.82096,-1.259414 3.53638,-1.954054 6.95652,-4.111628 10.44763,-6.144612 4.66648,-2.743689 9.32222,-5.719847 14.62644,-7.058647 2.91383,-0.661246 5.82979,-1.263642 8.79215,-1.672648 1.34828,-0.186155 3.10346,-0.399063 4.52348,-0.386321 0.45267,0.0041 0.90287,0.06714 1.35431,0.100709 0.38859,0.08884 0.78437,0.150643 1.16576,0.266528 1.18635,0.36046 3.05244,1.522857 -1.35399,-1.039736 -0.29107,-0.169275 0.58252,0.342323 0.84601,0.551958 0.23142,0.184118 0.44222,0.395962 0.63128,0.623366 0.17334,0.208513 0.30015,0.451681 0.45023,0.677521 0.1051,0.246031 0.23487,0.482928 0.3153,0.738095 0.45089,1.430613 -0.0219,2.845925 -1.02281,3.911502 -0.26893,0.202004 -0.51552,0.437822 -0.8068,0.606007 -2.55523,1.475402 -6.32258,0.958946 -9.10011,0.821934 -2.7268,-0.278662 -4.19887,-0.392134 -6.95885,-0.83647 -4.89379,-0.787858 -9.67646,-2.089547 -14.23962,-4.042042 -5.63621,-2.370746 -11.22829,-4.850225 -16.910793,-7.108309 z" />
    <path
       style="fill:#008000;stroke-width:0.264583"
       id="path3"
       d="m 113.66195,57.438649 c -2.42193,2.178624 -4.99417,4.182245 -7.52701,6.228604 -1.98382,1.542722 -3.81382,3.288162 -5.98011,4.57817 -0.291313,0.134522 -0.693429,0.419965 -1.061457,0.274487 -0.149129,-0.05895 -0.500472,-0.390131 -0.35325,-0.326568 0.971677,0.419524 1.824417,1.134539 2.847997,1.403678 0.31006,0.08153 -0.36826,-0.52524 -0.53906,-0.796567 -0.18131,-0.288031 -0.34448,-0.587092 -0.51672,-0.88064 -0.806943,-1.409583 -1.329194,-2.642618 -1.116998,-4.281484 0.06053,-0.13557 0.08548,-0.293542 0.181586,-0.40671 0.386252,-0.454829 1.553292,-0.62362 2.099442,-0.506788 0.23274,0.04979 0.44899,0.15811 0.67349,0.237164 0.24066,0.121325 0.9569,0.496078 0.72199,0.363975 -0.83539,-0.469773 -1.63902,-1.009148 -2.52392,-1.377273 -0.34832,-0.144902 0.60406,0.452959 0.89095,0.697944 0.51668,0.441209 1.75191,1.639303 2.21234,2.044237 0.49024,0.431152 1.00052,0.838978 1.50078,1.25847 2.54925,2.122175 5.29902,3.970102 8.05631,5.804505 0,0 3.57802,1.398752 3.57802,1.398752 v 0 c -2.78446,-1.836412 -5.57575,-3.666064 -8.15002,-5.79656 -0.49108,-0.407967 -0.9941,-0.80196 -1.47322,-1.223902 -1.57765,-1.389388 -0.72238,-0.754946 -2.144,-2.045785 -1.67052,-1.51684 -3.67364,-2.672881 -5.766644,-3.506398 -0.250187,-0.05364 -0.495758,-0.137584 -0.750565,-0.160907 -0.778669,-0.07128 -1.861082,0.238829 -2.355053,0.879557 -0.113258,0.146905 -0.150945,0.338895 -0.226418,0.508342 -0.254783,1.729898 0.192591,3.035662 1.055209,4.537114 0.03438,0.06126 0.913313,1.65014 1.001935,1.720535 1.204089,0.956443 2.512566,1.77581 3.811526,2.598796 0.14492,0.09182 0.32607,0.129786 0.49762,0.131366 0.41381,0.0038 0.78154,-0.256167 1.12266,-0.436798 2.1217,-1.359805 3.91826,-3.129029 5.88442,-4.695484 2.55988,-2.055807 5.1345,-4.093427 7.69935,-6.14304 z" />
    <path
       style="fill:#0000ff;stroke-width:0.264583"
       id="path4"
       d="m 68.599933,81.429986 c 2.411502,2.485969 5.10254,4.668163 7.793678,6.839175 1.96333,1.597975 4.007482,3.107084 5.77061,4.931222 1.426085,1.626494 3.303076,2.357088 5.318551,3.308117 0.187174,0.08832 1.468638,0.190656 1.622041,0.205206 0.840033,0.0299 1.785694,0.03563 2.537817,-0.419558 0.9223,-0.558186 1.503429,-1.510723 2.057247,-2.391696 0.910084,-1.745382 1.547084,-3.64948 1.642181,-5.622941 -0.272942,-2.978139 -4.202562,-3.461625 -6.592091,-3.489616 -2.499844,0.175726 -4.860287,1.100466 -7.241606,1.811769 -1.855618,0.448498 -3.701772,0.926976 -5.449385,1.71069 -1.143257,0.512694 -1.401699,0.702056 -2.472134,1.328478 -2.025449,1.276194 -3.933653,2.727069 -5.792666,4.232291 0,0 3.292023,2.062025 3.292023,2.062025 v 0 c 1.818378,-1.513528 3.693194,-2.97175 5.712475,-4.210018 1.048703,-0.606325 1.311373,-0.796542 2.432873,-1.287513 1.746054,-0.764392 3.595055,-1.203703 5.433454,-1.67921 2.365124,-0.701513 4.723689,-1.60728 7.216796,-1.678633 0.703951,0.03442 1.134452,0.0222 1.817701,0.180202 0.224499,0.05192 0.84405,0.351079 0.656042,0.217856 -0.916699,-0.649576 -1.907804,-1.187199 -2.861706,-1.7808 0.07939,0.106342 0.183298,0.198189 0.238164,0.319019 0.06805,0.149879 0.08251,0.318701 0.123762,0.478052 0.01598,1.916417 -0.609942,3.776411 -1.487715,5.464003 -0.529418,0.808974 -1.062519,1.682925 -1.954834,2.151806 -0.739389,0.388522 -1.633125,0.326996 -2.430825,0.280379 -0.284107,-0.03816 -0.570241,-0.06347 -0.852321,-0.114493 -0.248952,-0.04503 -0.940792,-0.325816 -0.738918,-0.173329 0.8607,0.650132 1.845879,1.11691 2.75553,1.696577 0.15872,0.101143 -0.343853,-0.156736 -0.50119,-0.260016 -0.400682,-0.263017 -0.55077,-0.477769 -0.873194,-0.834472 -1.786464,-1.891364 -3.90017,-3.413625 -5.917827,-5.044993 -2.635223,-2.123559 -5.30302,-4.232918 -7.610774,-6.720287 z" />
    <path
       style="fill:#00ffff;stroke-width:0.264583"
       id="path5"
       d="m 122.15941,100.94025 c -5.61396,1.87361 -11.23221,3.73495 -16.92062,5.37092 -3.78759,1.07071 -7.562993,2.18345 -11.384722,3.12765 -0.298445,0.0638 -0.593852,0.14392 -0.895337,0.19127 -1.505019,0.23636 -2.600513,-0.85176 2.722737,1.77758 0.03323,0.0164 0.03221,-0.0677 0.05621,-0.0959 0.173424,-0.20403 0.350099,-0.40555 0.534832,-0.5994 0.267578,-0.28078 0.547729,-0.54931 0.821594,-0.82396 1.217507,-1.05631 2.184043,-2.638 3.612286,-3.43879 0.90071,-0.50501 1.73558,-0.64935 2.72798,-0.90932 3.02849,-0.62234 6.12925,-0.65923 9.20818,-0.68086 1.81191,-0.02 3.66551,-0.1039 5.33681,0.69266 -5.11868,-2.98057 -3.17074,-2.10491 -2.29996,-0.90248 0.29288,0.40442 0.54147,0.84348 0.8053,1.26689 0.94772,1.22646 2.04834,2.3263 3.04514,3.51428 0.69078,0.89343 1.46979,1.72476 2.07257,2.68302 0.0426,0.0835 0.0852,0.16697 0.12787,0.25046 0,0 3.60351,1.6486 3.60351,1.6486 v 0 c -0.0386,-0.0976 -0.0772,-0.19511 -0.11575,-0.29267 -0.56239,-1.02091 -1.40821,-1.84341 -2.10813,-2.76744 -0.97026,-1.18236 -2.01868,-2.2939 -3.0203,-3.44847 -1.73385,-2.70568 -1.12921,-2.2151 -5.19624,-4.38664 -1.71848,-0.62147 -3.53892,-0.54063 -5.34191,-0.49858 -3.09649,0.0498 -6.21474,0.085 -9.25207,0.76696 -1.089492,0.29997 -1.87358,0.43391 -2.853038,1.00718 -1.428261,0.83595 -2.369881,2.43953 -3.634444,3.47789 -0.181329,0.1716 -1.281874,1.18836 -1.498729,1.47509 -0.143018,0.1891 -0.523293,0.48005 -0.336815,0.62648 2.734112,2.14689 2.842377,2.24148 5.04344,1.64559 3.757556,-1.02313 7.480796,-2.16314 11.218616,-3.25529 5.71395,-1.6936 11.34532,-3.6579 17.09306,-5.23503 z" />
    <path
       style="fill:#ff00ff;stroke-width:0.264583"
       id="path6"
       d="m 131.60972,68.654273 c 1.35544,-1.185101 2.6756,-2.408304 3.9941,-3.634512 0.338,-0.310727 0.68215,-0.614905 1.01402,-0.932178 0.33312,-0.318468 0.67766,-0.627353 0.98058,-0.974677 1.13446,-1.300787 1.91358,-2.84207 2.66434,-4.380172 0.87646,-1.649606 1.51276,-3.393808 1.97284,-5.199835 0.18197,-1.015024 0.23663,-2.196565 -0.41616,-3.074506 -0.0966,-0.129953 -0.22396,-0.233971 -0.33594,-0.350956 -1.25325,-0.7288 -2.47409,-1.516433 -3.75975,-2.186401 -0.1445,-0.0753 -1.36471,-0.162438 -1.42705,-0.164957 -0.90378,-0.0365 -1.81462,0.01582 -2.7176,0.05067 -1.87056,0.205777 -2.53864,0.632939 -3.64943,2.129258 -0.79875,1.255462 -1.0043,1.94768 -0.51658,3.37152 0.90954,1.648632 2.41856,2.817196 3.65967,4.199294 1.48092,1.64868 2.6715,3.520125 3.8258,5.403318 0.89718,1.454775 1.72889,2.942598 2.42073,4.505619 0.34223,0.843262 0.77281,1.63898 1.31821,2.366634 0,0 3.63739,1.556102 3.63739,1.556102 v 0 c -0.57915,-0.691589 -1.04948,-1.454094 -1.39408,-2.290738 -0.69956,-1.589821 -1.53335,-3.105653 -2.45548,-4.578231 -1.15414,-1.888189 -2.31225,-3.787421 -3.77893,-5.45497 -0.644,-0.751901 -0.59852,-0.733486 -1.30399,-1.420305 -0.84865,-0.826214 -1.7473,-1.604531 -2.36366,-2.634829 -0.56004,-1.246418 -0.41148,-1.880217 0.31426,-3.028521 1.0259,-1.366798 1.7428,-1.704494 3.44559,-1.847115 0.89315,-0.03411 1.79364,-0.0823 2.68603,5.29e-4 1.71124,0.15901 3.56273,1.509885 -1.59626,-1.452038 0.12722,0.08209 0.2702,0.143801 0.38165,0.246279 0.76099,0.699723 0.73614,1.874906 0.59429,2.801305 -0.41747,1.795214 -1.06164,3.503917 -1.90202,5.146432 -0.51382,1.087435 -1.01444,2.17842 -1.70381,3.17069 -0.79832,1.14909 -1.80262,2.091174 -2.85355,3.00497 -1.34806,1.205881 -2.68739,2.421835 -4.09691,3.556508 z" />
  </g>
</svg>
