<?xml version="1.0" encoding="UTF-8" standalone="no"?>
<!-- Created with Inkscape (http://www.inkscape.org/) -->

<svg
   width="158.75mm"
   height="158.75mm"
   viewBox="0 0 158.75 158.75"
   version="1.1"
   id="svg1"
   xmlns="http://www.w3.org/2000/svg"
   xmlns:svg="http://www.w3.org/2000/svg">
  <defs
     id="defs1" />
  <g
     id="layer1"
     transform="translate(-26.458333,-39.687499)">
    <path
       style="fill:#000000;stroke-width:0.264583"
       id="path1"
       d="m 42.37102,101.9557 c 7.867666,0.0562 15.732747,0.24525 23.600865,0.19965 2.889427,0.103 5.79411,-0.24706 8.68087,-0.0843 1.355458,0.16414 2.718951,0.22312 4.082474,0.27484 0.267477,0.007 0.976611,0.0131 1.256379,0.0702 0.164253,0.0335 0.316518,0.11056 0.474776,0.16585 -1.007004,-0.54529 -1.975527,-1.16859 -3.021015,-1.63587 -0.16142,-0.0721 0.239641,0.26674 0.315301,0.42654 0.108241,0.2286 0.152771,0.48226 0.229156,0.72338 0.30598,2.27799 -0.03798,4.5787 -0.320379,6.8403 -0.316669,2.53605 -0.249528,1.98744 -0.611727,4.47307 -0.506227,3.31861 -1.063472,6.63291 -1.713746,9.92675 -0.375124,1.52905 -0.461124,3.09943 -0.637752,4.65659 -0.147867,1.54274 -0.379439,3.07156 -0.681193,4.59124 -0.07694,0.26323 -0.310343,1.86894 -0.535657,2.01167 -0.07687,0.0487 -0.772216,-0.20908 -0.856808,-0.23723 -0.300567,-0.0917 -0.597011,-0.19828 -0.901703,-0.27522 -0.916974,-0.23156 -3.145025,-0.68275 -3.946779,-0.84582 -2.533721,-0.51535 -5.071496,-1.00942 -7.610591,-1.49742 -5.056714,-1.12534 -10.194428,-1.75631 -15.321886,-2.44755 -3.362042,-0.40975 -6.707513,-0.89119 -10.024628,-1.57527 -0.59676,-0.16699 -1.085943,-0.2714 -1.639718,-0.53033 -0.15203,-0.0711 -0.580216,-0.33735 -0.432078,-0.25848 1.048591,0.55832 2.02942,1.25959 3.133907,1.69705 0.162933,0.0645 -0.11235,-0.33458 -0.133249,-0.50857 -0.03594,-0.29921 -0.02424,-0.60222 -0.03635,-0.90333 0.267843,-3.41658 0.581562,-6.8306 0.837678,-10.24983 0.151892,-3.44256 0.6457,-6.84558 1.268048,-10.2295 0.206819,-1.37349 0.696354,-2.62313 1.400389,-3.80613 0.06914,-0.11965 0.138285,-0.2393 0.207426,-0.35895 0,0 -3.433903,-1.97937 -3.433903,-1.97937 v 0 c -0.06644,0.11901 -0.132879,0.23802 -0.199319,0.35704 -0.715396,1.23411 -1.220827,2.53259 -1.411927,3.96027 -0.567902,3.41306 -1.065041,6.83659 -1.216166,10.29861 -0.272653,3.41608 -0.57418,6.82702 -0.945679,10.23309 -0.0048,0.31315 -0.02048,0.62633 -0.01442,0.93947 0.0043,0.22011 -0.123735,0.51788 0.04532,0.6589 1.942539,1.6204 3.416699,2.52786 5.669711,3.02776 3.292345,0.64916 6.611938,1.09522 9.944873,1.48348 5.126392,0.67733 10.251019,1.36322 15.308357,2.46454 4.216884,0.81403 8.455118,1.57794 12.597212,2.72401 0.232362,0.019 0.46713,0.0953 0.697087,0.057 0.93004,-0.15516 0.812094,-1.70662 1.018127,-2.3575 0.298077,-1.52881 0.553824,-3.06309 0.702347,-4.61462 0.187249,-1.5502 0.234517,-3.11955 0.595985,-4.64689 0.609555,-3.3178 1.08335,-6.66179 1.63145,-9.99 0.432969,-3.02677 0.207272,-1.38783 0.613521,-4.47964 0.300786,-2.28918 0.685633,-4.59767 0.499779,-6.91419 -0.02635,-0.12767 -0.191156,-1.2159 -0.417316,-1.37307 -2.475937,-1.72068 -3.173863,-2.40333 -5.560552,-2.3995 -1.361964,-0.05315 -2.718819,-0.156924 -4.076729,-0.270542 -2.840247,-0.05776 -5.68062,0.257682 -8.521901,0.223216 -7.901586,0.120336 -15.805679,0.0038 -23.70251,-0.295219 z" />
    <path
       style="fill:#000000;stroke-width:0.264583"
       id="path2"
       d="m 62.754295,62.537569 c 2.499251,2.364947 4.833816,4.883812 7.110859,7.46061 2.357753,2.790404 4.879631,5.425413 7.426087,8.04087 1.819855,1.778548 3.225401,3.863218 4.438351,6.082977 0.778558,1.626648 1.767544,3.111458 2.908036,4.502039 1.865656,2.300055 2.868509,2.498214 5.894887,4.131103 1.084707,-0.170291 1.954181,-0.901594 2.857108,-1.471437 0.965306,-0.609211 1.176431,-0.720889 2.205718,-1.324637 2.327849,-1.303218 4.659609,-2.600404 7.006939,-3.868213 1.57522,-0.686726 3.01535,-1.621894 4.513,-2.449026 1.28135,-0.613952 2.38905,-1.459206 3.46565,-2.373929 0.89631,-0.826217 1.962,-1.567497 2.47433,-2.707725 0.0557,-0.39461 0.12203,-0.470677 -0.0871,-0.870931 -0.45606,-0.872911 -1.79397,-2.013019 -2.48956,-2.72855 -2.53025,-2.583217 -4.75209,-5.417212 -6.84998,-8.355237 -1.76696,-2.658862 -3.5392,-5.313908 -5.32639,-7.959305 -1.047065,-1.612368 -2.212012,-3.138606 -3.466761,-4.593486 -1.369375,-1.507789 -2.591152,-2.022909 -4.822862,-2.992893 -0.476713,-0.207198 -2.656303,0.870778 -2.975914,1.012034 -4.098068,1.892321 -8.285703,3.580873 -12.45157,5.315974 -2.072843,0.882438 -4.184184,1.733709 -5.994871,3.096837 -1.105109,0.858564 -2.429528,1.362027 -3.708132,1.899419 -0.842905,0.312883 -1.673596,0.643261 -2.481178,1.038686 0,0 3.290138,2.172052 3.290138,2.172052 v 0 c 0.806138,-0.380484 1.636083,-0.695526 2.462417,-1.028878 1.302345,-0.557474 2.656157,-1.081188 3.773802,-1.972246 1.763075,-1.336699 3.808428,-2.208366 5.822939,-3.093839 4.162161,-1.775185 8.363268,-3.458623 12.506577,-5.278128 0.584692,-0.231248 1.542412,-0.671004 2.232564,-0.76653 0.21313,-0.0295 0.813274,0.157041 0.645078,0.02286 -4.980921,-3.973544 -2.975623,-1.83561 -1.921211,-0.954061 1.277819,1.439633 2.470862,2.949911 3.521131,4.565518 1.822103,2.649575 3.620701,5.315072 5.394283,7.997375 2.07984,2.931229 4.25215,5.783765 6.75173,8.375401 0.68185,0.715246 1.39117,1.404043 2.06603,2.125679 0.22494,0.240535 0.51382,0.44895 0.63889,0.753602 0.0351,0.08555 0.007,0.18483 0.0103,0.277246 -0.43163,1.096317 -1.53019,1.77722 -2.34276,2.570229 -1.06939,0.891421 -2.19321,1.679794 -3.44293,2.302327 -1.47346,0.854086 -2.91807,1.757707 -4.471132,2.469327 -2.334382,1.290876 -4.668724,2.581791 -6.994459,3.888235 -1.377542,0.790985 -0.982869,0.549389 -2.237216,1.322371 -0.819663,0.505111 -1.69105,1.245632 -2.709902,1.160024 5.983216,3.597494 3.218452,2.122871 2.247289,1.275032 -0.504669,-0.440581 -0.940766,-0.949799 -1.388764,-1.445673 -1.164058,-1.366242 -2.194274,-2.819606 -2.972438,-4.445296 -0.203025,-0.376155 -0.949494,-1.772367 -1.169415,-2.125922 -0.91965,-1.478462 -2.069018,-2.803779 -3.257926,-4.067971 -2.552668,-2.628911 -5.128726,-5.233596 -7.485303,-8.045225 -2.241519,-2.552615 -4.520351,-5.063834 -6.964588,-7.42606 z" />
    <path
       style="fill:#000000;stroke-width:0.264583"
       id="path3"
       d="m 107.9396,138.3286 c -3.90474,0.0509 -7.81009,0.0311 -11.71504,0.0168 -2.262563,-0.008 -4.525142,-0.0126 -6.787706,-0.0209 -0.277225,0.0132 -1.066673,0.0265 -1.365363,0.12674 -1.078077,0.36177 -1.271186,1.76825 -1.477262,2.70149 -0.427265,3.66863 -0.356732,7.37868 -0.36558,11.06684 0.0074,4.68609 0.01834,9.37209 0.0049,14.05819 0.07082,2.73539 -0.03132,5.44619 -0.376277,8.15845 -0.112244,1.7597 -0.612918,3.61932 -0.136443,5.35542 1.574355,1.42869 1.226627,1.21052 5.015989,2.35905 0.467217,0.14161 0.974357,-0.0638 1.461027,-0.10253 0.54846,-0.0436 1.096052,-0.0976 1.644237,-0.14456 2.221936,-0.1904 1.537364,-0.13307 3.885946,-0.29296 4.439772,-0.24992 8.887232,-0.31899 13.333132,-0.34864 1.51467,0.0973 2.99763,-0.12179 4.4787,-0.39538 0.94525,-0.11072 1.89067,-0.17378 2.83621,-0.28724 0.74147,-0.1708 1.92167,0.0713 2.48109,-0.5982 0.0902,-0.10799 0.12964,-0.24983 0.19446,-0.37475 0.0145,-0.17414 0.0517,-0.34786 0.0436,-0.52242 -0.0422,-0.91473 -0.38414,-1.85711 -0.54026,-2.75372 -0.24017,-1.37935 -0.24823,-1.69215 -0.40795,-3.15795 -0.20356,-2.93746 -0.13961,-5.89947 0.23419,-8.8217 0.13521,-1.057 0.57869,-3.56657 0.761,-4.62574 0.44919,-2.57772 1.03482,-5.14017 1.31454,-7.74545 0.16182,-1.5072 0.12829,-1.78351 0.14091,-3.27611 -0.0195,-2.44985 -0.39559,-4.88653 -0.90731,-7.27806 -0.26611,-0.80701 -0.43747,-1.98593 -1.29693,-2.42032 -1.53243,-0.77452 -3.09316,-1.49176 -4.63974,-2.23764 -3.43221,-0.64536 -6.8922,-1.12078 -10.33021,-1.73138 -1.42824,-0.21927 -0.71499,-0.12543 -2.13964,-0.28228 0,0 3.13303,2.3319 3.13303,2.3319 v 0 c 1.40965,0.17117 0.70447,0.0743 2.11549,0.2911 3.43625,0.57243 6.89798,1.00501 10.30206,1.75754 -0.7112,-0.51662 -1.44952,-0.99782 -2.13358,-1.54986 -0.22103,-0.17838 0.54527,0.23034 0.72178,0.45286 0.38559,0.48613 0.5435,1.11212 0.73562,1.68662 0.56852,2.36553 0.94012,4.79246 1.00114,7.2265 0.0125,3.73791 -0.65381,7.33531 -1.36818,10.99484 -0.15402,0.90173 -0.65089,3.76091 -0.76821,4.65131 -0.38673,2.93525 -0.47926,5.90951 -0.31893,8.86435 0.13854,1.54115 0.12827,1.72295 0.35002,3.16623 0.13709,0.89228 0.37571,1.76325 0.515,2.65315 0.0188,0.12022 0.0196,0.24257 0.0294,0.36386 -0.30554,0.70355 -1.80693,0.50828 -2.44043,0.65318 -0.95591,0.10539 -1.91946,0.13375 -2.86758,0.30045 -1.43865,0.28055 -2.88681,0.44674 -4.35763,0.39771 -4.43658,0.0874 -8.873683,0.18594 -13.306568,0.39268 -1.857819,0.11802 -3.713435,0.29564 -5.571651,0.40166 -0.486862,0.0278 -1.661935,-0.39284 -1.462037,0.052 0.399071,0.88798 1.591051,1.13356 2.29639,1.80458 0.149635,0.14235 -0.394618,-0.12204 -0.591928,-0.18306 -0.07601,-0.16954 -0.187415,-0.32731 -0.228029,-0.50862 -0.05249,-0.2343 -0.04181,-0.47873 -0.04693,-0.71879 -0.02842,-1.3329 0.158885,-2.66134 0.292663,-3.98392 0.142042,-1.17875 0.314728,-2.36712 0.354555,-3.55507 0.05231,-1.56002 -0.08007,-3.12616 -0.03415,-4.68645 -0.02638,-4.6876 -0.0378,-9.37524 -0.01884,-14.06292 0.02143,-3.64809 -0.03226,-7.31872 0.421833,-10.94443 0.437997,-1.97617 0.498637,-2.35714 2.574947,-2.37084 2.243388,-0.008 4.486796,-0.0125 6.730185,-0.0209 3.92039,-0.0145 7.84117,-0.0336 11.76137,0.0168 z" />
    <path
       style="fill:#000000;stroke-width:0.264583"
       id="path4"
       d="m 118.64221,81.986489 c 2.37969,1.787176 4.7684,3.561684 7.07616,5.441395 2.78968,2.446491 5.73417,4.70876 8.52141,7.157325 1.65907,1.472893 3.17635,3.092789 4.7562,4.647375 1.35192,1.252536 2.87275,1.936206 4.59289,2.847156 0.17446,0.0924 0.60031,0.0308 0.76857,-0.0316 0.15128,-0.0561 0.28522,-0.15093 0.42784,-0.2264 1.48962,-0.85626 2.76632,-2.020263 4.09318,-3.099414 2.01564,-1.722469 3.79413,-3.697047 5.57873,-5.651518 1.57358,-1.838394 3.05599,-3.752472 4.60687,-5.610376 2.56199,-3.384473 5.04654,-6.823469 7.64796,-10.179124 1.58009,-2.072111 3.2771,-4.047874 4.97399,-6.023393 0.0862,-0.169918 0.25569,-0.319257 0.25851,-0.509757 0.0118,-0.796983 -0.71888,-1.16772 -1.30799,-1.503865 -1.64217,-0.937017 -3.30425,-1.841963 -4.99966,-2.678808 -0.0696,-0.03438 -3.96771,-1.529292 -4.00737,-1.544521 -1.73291,-0.634786 -3.41238,-1.392844 -5.04533,-2.250353 -0.46613,-0.244774 -1.83821,-1.026748 -1.38758,-0.75451 4.81492,2.908776 1.46442,0.775888 1.00439,0.478899 -1.39067,-0.878745 -2.57932,-2.017612 -3.85547,-3.043645 -3.04459,-2.247995 -4.67845,-2.844766 -7.93089,-3.442285 -1.86223,-0.41176 -3.76682,-0.54239 -5.62568,-0.963112 -1.45984,-0.149553 -2.88779,-1.099201 -4.39009,-0.875263 -0.19031,0.02837 -0.36534,0.120885 -0.54801,0.181329 -1.06801,0.884807 -0.95709,2.262384 -1.14,3.512828 -0.0604,0.412719 -0.14985,0.82065 -0.22478,1.230977 -0.69615,3.410516 -2.78744,6.192065 -4.91857,8.846907 -1.92677,2.395821 -4.00271,4.66793 -5.912,7.077297 -1.0579,1.271508 -1.88061,2.710051 -2.79227,4.08441 0,0 3.38473,1.980729 3.38473,1.980729 v 0 c 0.89605,-1.371251 1.7137,-2.797421 2.75216,-4.070072 1.88686,-2.421739 3.93036,-4.717089 5.86073,-7.104049 2.15783,-2.707823 4.29212,-5.53131 5.05501,-8.983813 0.086,-0.416714 0.18842,-0.830369 0.25795,-1.250141 0.17146,-1.035171 0.006,-2.380803 0.93548,-3.086698 1.63096,-0.326495 3.19843,0.600814 4.79264,0.820494 1.86783,0.388094 3.77382,0.541809 5.63746,0.959996 0.87017,0.173268 1.75522,0.333952 2.59679,0.623512 0.23944,0.08239 0.91534,0.424815 0.70411,0.285173 -0.67244,-0.444524 -4.10076,-2.411836 -2.15374,-1.292431 1.31753,1.007104 2.49005,2.196848 3.89316,3.095111 3.78832,2.49691 7.78493,4.710721 12.0457,6.288323 0.67719,0.261541 1.35616,0.518488 2.03155,0.784627 0.66258,0.261089 1.45201,1.272419 1.98226,0.797013 0.48945,-0.438822 -1.1535,-0.659271 -1.62509,-1.117235 -0.46723,-0.453724 2.49537,1.212477 1.29472,1.394269 -1.64467,2.016863 -3.29946,4.025617 -4.86159,6.108338 -2.58676,3.362116 -5.08662,6.789938 -7.70543,10.125628 -1.56616,1.840222 -3.04967,3.746955 -4.60916,5.592214 -1.76395,1.9523 -3.52511,3.925232 -5.57767,5.584092 -1.29871,1.065739 -2.55366,2.227869 -4.06745,2.986178 -0.30796,0.09781 -0.35735,0.161642 -0.66908,0.0934 -0.11167,-0.02445 -0.4195,-0.17757 -0.32211,-0.117708 5.61113,3.448977 3.22666,2.022717 2.13678,1.129937 -1.62814,-1.538393 -3.13737,-3.2011 -4.81389,-4.689773 -2.78599,-2.464782 -5.76003,-4.706882 -8.54014,-7.179604 -2.26944,-1.876435 -4.64025,-3.617534 -6.96301,-5.42663 z" />
    <path
       style="fill:#000000;stroke-width:0.264583"
       id="path5"
       d="m 136.03994,111.4649 c -2.61883,2.30176 -4.64723,5.19803 -6.61103,8.05553 -1.95707,2.94722 -3.56191,6.10697 -5.19095,9.24192 -0.18667,0.53003 -0.47753,1.18453 -0.47285,1.77275 0.0114,1.43085 1.16649,2.49815 2.06892,3.46046 1.63772,1.74717 3.62318,3.06753 5.62906,4.3445 2.66146,1.70172 5.07596,3.74084 7.7043,5.4899 4.4547,2.66832 9.12808,4.93006 13.71056,7.36501 2.45262,1.25599 4.93131,2.45745 7.4906,3.47988 1.72491,0.56212 3.38421,1.29409 5.07738,1.93903 0.46126,0.14177 0.68609,0.31481 1.16013,0.0692 0.98594,-0.51088 1.75769,-2.97929 2.12983,-3.89288 1.75455,-4.2662 3.64784,-8.47481 5.67222,-12.61943 0.33194,-0.67235 0.65705,-1.34812 0.99582,-2.01705 0.66762,-1.31824 1.26162,-2.37891 1.90439,-3.70458 0.73999,-1.52618 1.36909,-3.10199 2.04628,-4.6562 0.53856,-1.56934 1.75567,-3.14861 1.59323,-4.87926 -0.0551,-0.12778 -0.0851,-0.26961 -0.16528,-0.38335 -0.0944,-0.13393 -0.20748,-0.26358 -0.34898,-0.34622 -1.32642,-0.77465 -2.66641,-1.52914 -4.03988,-2.21695 -0.28102,-0.14072 -0.6025,-0.1795 -0.90631,-0.25999 -0.84038,-0.22264 -1.68567,-0.42647 -2.52614,-0.64876 -4.32663,-1.28942 -8.57631,-2.83512 -12.83117,-4.34317 -4.56034,-1.5625 -8.88814,-3.68415 -13.16781,-5.88153 -0.53622,-0.28915 -2.10397,-1.22215 -1.60867,-0.86744 0.60269,0.43161 1.26584,0.77648 1.93296,1.09968 0.39808,0.19285 -0.75066,-0.46819 -1.12285,-0.70721 -0.3221,-0.20686 -0.63725,-0.42441 -0.95992,-0.63038 -1.60597,-1.02516 -3.38243,-1.94586 -4.99766,-2.85222 -0.77459,-0.26904 -1.61006,-0.93492 -2.47972,-0.86492 -0.42413,0.0341 -1.19916,0.36372 -1.54976,0.49546 -2.53824,1.32371 -4.7249,3.26344 -6.61441,5.39671 -0.71217,1.02028 -0.40101,0.51319 -0.94804,1.51226 0,0 3.40957,1.95397 3.40957,1.95397 v 0 c 0.50047,-0.95762 0.21291,-0.47103 0.87797,-1.45061 1.82245,-2.1164 3.96109,-4.03994 6.52,-5.21424 0.52098,-0.16019 0.91605,-0.34741 1.46044,-0.31401 0.84837,0.0521 1.61506,0.65506 2.38572,0.93531 -0.85357,-0.51029 -1.70775,-1.01955 -2.56069,-1.53086 -0.28811,-0.17271 0.58186,0.33611 0.86614,0.51503 0.3288,0.20693 0.64681,0.43055 0.9726,0.64219 2.38667,1.55037 4.86821,2.95194 7.39209,4.26589 4.27526,2.17406 8.59894,4.26435 13.15144,5.80487 4.29495,1.51884 8.57255,3.11032 12.9451,4.39283 0.85034,0.22839 1.70666,0.43575 2.55045,0.68728 0.30356,0.0905 1.1545,0.49122 0.90145,0.3007 -0.85418,-0.64314 -1.82897,-1.10833 -2.73281,-1.67957 -0.12651,-0.08 0.27832,0.11707 0.39951,0.20488 0.0924,0.0669 0.15419,0.16813 0.23129,0.25219 0.0383,0.12068 0.10734,0.23566 0.11478,0.36204 0.0178,0.30299 -0.17546,0.96743 -0.25024,1.2043 -0.3417,1.08238 -0.85089,2.09711 -1.26323,3.15233 -0.66111,1.55399 -1.27068,3.13178 -1.9971,4.65723 -0.62785,1.31845 -1.23406,2.40881 -1.88916,3.71826 -0.33569,0.671 -0.65673,1.34922 -0.9851,2.02383 -2.02571,4.14939 -3.90585,8.36786 -5.7374,12.60623 -0.26296,0.59818 -1.19453,3.2531 -1.99333,3.48518 -0.33001,0.0959 -0.75165,-0.1099 -1.03389,-0.20524 -1.67948,-0.65408 -3.34797,-1.33456 -5.05156,-1.92586 -2.5362,-1.02405 -4.99308,-2.22742 -7.42409,-3.47925 -2.20107,-1.16323 -4.40576,-2.31691 -6.62488,-3.44536 -0.63574,-0.32329 -1.20901,-0.82174 -1.90628,-0.9717 -0.53554,-0.11518 0.93254,0.57503 1.3988,0.86255 -0.51113,-0.33245 -1.03246,-0.64972 -1.53339,-0.99734 -2.07734,-1.44159 -3.95794,-3.16008 -6.12235,-4.48016 -1.99539,-1.26629 -4.00351,-2.52864 -5.64857,-4.25194 -0.78786,-0.8 -2.10317,-1.9222 -2.19823,-3.12755 -0.0429,-0.54359 0.22679,-1.18929 0.38319,-1.67758 1.55211,-3.15551 3.13779,-6.30784 5.08636,-9.24176 1.95769,-2.81786 3.96391,-5.72205 6.67818,-7.86993 z" />
    <path
       style="fill:#008000;stroke-width:0.264583"
       id="path6"
       d="m 96.435118,153.48223 c -0.860139,0.40766 -1.741699,0.78707 -2.554645,1.28661 -0.173966,0.1069 -0.338958,0.22777 -0.508436,0.34165 -0.36081,0.30346 -0.510805,0.39757 -0.803,0.76949 -0.607722,0.77355 -0.967018,1.72415 -1.321171,2.63021 -0.250814,0.68946 -0.459033,1.39457 -0.615841,2.11139 -0.06541,0.29901 -0.158671,0.78311 -0.170495,1.09747 -0.0066,0.1761 0.01339,0.35218 0.02008,0.52827 0.08737,0.83902 0.463621,1.60339 0.956021,2.27926 0.107577,0.14767 0.227751,0.28573 0.341625,0.42859 0.129037,0.13241 0.25027,0.2729 0.387109,0.39723 0.138102,0.12547 0.276355,0.25456 0.436208,0.35081 1.739025,1.04704 2.706251,1.99834 4.418182,2.34593 0.657326,0.13346 0.951336,0.13049 1.624293,0.17627 0.435602,-0.0111 1.165236,-0.009 1.602782,-0.0988 0.24145,-0.0497 0.47606,-0.13238 0.70425,-0.22563 0.2104,-0.086 0.41945,-0.18213 0.60716,-0.31027 0.43221,-0.29504 0.59956,-0.56216 0.91843,-0.95983 0.10159,-0.17347 0.2196,-0.33832 0.30477,-0.52041 0.32043,-0.68503 0.34953,-1.39895 0.20543,-2.12583 -0.12573,-0.49648 -0.50667,-0.80334 -0.88002,-1.1183 -0.0338,-0.017 -0.51657,-0.46086 -0.52278,-0.45596 -0.0424,0.0335 -0.0551,0.0962 -0.0614,0.14982 -0.006,0.0529 0.0168,0.10516 0.0253,0.15774 1.3854,0.0804 2.76046,0.28338 4.13482,0.4685 -0.66758,-0.39103 1.35111,0.36587 1.04846,0.18099 -1.09217,-0.66718 -2.27187,-1.18746 -3.34497,-1.88489 -0.0959,-0.0623 0.0325,-0.28796 -0.0715,-0.33556 -0.17479,-0.08 -0.38334,0.03 -0.57534,0.0395 -0.261,0.0129 -0.52231,0.0185 -0.78346,0.0278 -1.24837,0.0354 -2.497343,0.0509 -3.746192,0.0438 -0.455978,-0.002 -0.907963,0.043 -1.360456,0.09 -0.504737,0.0986 -1.018188,0.1313 -1.530982,0.15199 0,0 3.174047,2.27961 3.174047,2.27961 v 0 c 0.518094,-0.0359 1.033884,-0.0904 1.548613,-0.15935 0.43442,-0.0388 0.87089,-0.0534 1.30526,-0.0945 1.20439,-0.0652 2.40978,-0.12026 3.616,-0.13331 0.28024,0.002 0.56048,0.005 0.84073,0.007 0.22412,0.002 0.45811,0.07 0.67237,0.004 0.22411,-0.0688 0.76539,-0.24058 0.58503,-0.39033 -2.44628,-2.03114 -2.45892,-1.8642 -4.36109,-2.05066 -0.86306,-0.0962 -1.72393,-0.20119 -2.58309,-0.3284 -0.503556,-0.0746 -0.941941,-0.15645 -1.440331,-0.20895 -0.108141,-0.0114 -0.217046,-0.0137 -0.32557,-0.0206 -0.213839,0.12733 -0.342998,0.13513 -0.388811,0.40359 -0.0296,0.1735 0.417275,0.48585 0.516867,0.59148 0.342127,0.28778 0.736287,0.53527 0.984088,0.91419 0.03371,0.0839 0.07478,0.16521 0.101127,0.2517 0.161972,0.5317 0.146232,1.13389 -0.07142,1.64845 -0.07061,0.16694 -0.175329,0.31731 -0.262993,0.47596 -0.307329,0.38491 -0.392882,0.55619 -0.820139,0.82787 -0.818587,0.52052 -1.80947,0.53181 -2.743174,0.50293 -0.667552,-0.0747 -0.966018,-0.0769 -1.610527,-0.2721 -0.226097,-0.0685 -0.857702,-0.38779 -0.659804,-0.25876 0.888939,0.57957 1.821735,1.08916 2.742525,1.61666 0.157663,0.0903 -0.308562,-0.19312 -0.452107,-0.30452 -0.140927,-0.10938 -0.266229,-0.23752 -0.399343,-0.35628 -0.113239,-0.12941 -0.232768,-0.25357 -0.339715,-0.38822 -0.490103,-0.61705 -0.903785,-1.31736 -1.049446,-2.09868 -0.01651,-0.15949 -0.04551,-0.31818 -0.04951,-0.47847 -0.0042,-0.1687 0.0098,-0.33757 0.02495,-0.50564 0.08213,-0.90788 0.325295,-1.79397 0.624237,-2.652 0.0948,-0.24008 0.180821,-0.48381 0.284408,-0.72024 0.411359,-0.93885 0.966603,-1.81378 1.782189,-2.45036 0.159009,-0.10802 0.313126,-0.22361 0.47703,-0.32405 0.664948,-0.40746 1.493621,-0.7965 2.240833,-1.0237 0.132019,-0.0401 0.268428,-0.0641 0.40264,-0.0962 z" />
    <path
       style="fill:#008000;stroke-width:0.264583"
       id="path7"
       d="m 108.00891,154.93687 c 0.6294,0.0425 1.26597,0.10444 1.88147,0.24979 0.35606,0.0841 0.72319,0.21251 1.06987,0.32583 0.54194,0.19874 1.08915,0.39093 1.61544,0.62956 0.14769,0.067 0.29213,0.14099 0.43606,0.21571 0.13914,0.0722 0.54867,0.30361 0.41299,0.22507 -0.95795,-0.55452 -1.91994,-1.10204 -2.87991,-1.65306 0.28434,0.18675 0.85764,0.44509 0.90467,0.8457 0.0289,0.24657 -0.0935,0.40173 -0.1971,0.61593 -0.11833,0.13788 -0.22437,0.28735 -0.355,0.41364 -0.75326,0.72822 -1.73357,1.20188 -2.68576,1.60875 -0.26156,0.0924 -0.54083,0.22649 -0.82843,0.19909 -0.0458,-0.004 -0.17259,-0.0608 -0.13237,-0.0386 3.217,1.77976 4.5401,2.18789 3.22397,1.77446 -0.0205,-0.0147 -0.0369,-0.05 -0.0614,-0.0442 -0.0429,0.0102 -0.0429,0.16552 -0.004,0.19644 0.0506,0.0406 0.1265,0.029 0.18973,0.0436 0.38815,0.0894 0.1986,0.0438 0.61807,0.15098 0.35291,0.0885 0.69734,0.20938 1.02949,0.35775 0.0956,0.0427 0.37349,0.1892 0.28274,0.13695 -3.33154,-1.91818 -4.00654,-2.43201 -2.8143,-1.55254 0.48184,0.445 0.76381,1.02881 0.93319,1.65239 0.10489,0.49965 0.1979,1.00525 0.24244,1.51449 0.01,0.11202 0.0232,0.22449 0.0185,0.33684 -0.004,0.0832 -0.0287,0.16403 -0.0431,0.24605 -0.1574,0.34528 -0.40505,0.6548 -0.74994,0.82821 -0.0674,0.0339 -0.14044,0.0551 -0.21066,0.0826 -0.28257,0.1331 -0.59745,0.15004 -0.89394,0.23118 -0.19988,0.0547 -0.39383,0.12918 -0.59074,0.19378 -0.73195,0.28412 -1.5091,0.40864 -2.25551,0.64508 -0.59967,0.20385 -1.20185,0.40049 -1.81419,0.56296 0,0 3.21722,2.19415 3.21722,2.19415 v 0 c 0.59148,-0.20781 1.1911,-0.38988 1.78837,-0.5801 0.75455,-0.22208 1.52697,-0.37955 2.27303,-0.632 0.51565,-0.14361 1.05164,-0.22186 1.53755,-0.45857 0.0826,-0.0447 0.16859,-0.0837 0.24783,-0.13409 0.41219,-0.26232 0.68923,-0.6568 0.88462,-1.09767 0.0249,-0.11466 0.0666,-0.22693 0.0746,-0.34397 0.008,-0.11994 -0.0157,-0.23995 -0.0263,-0.35971 -0.0457,-0.51826 -0.12716,-1.03037 -0.1971,-1.54546 -0.0514,-0.25321 -0.0742,-0.40865 -0.1597,-0.65399 -0.15338,-0.43987 -0.41057,-0.84067 -0.67962,-1.21694 -1.17508,-1.24543 -0.23407,-0.295 -3.83221,-2.32786 -0.0887,-0.0501 -0.1886,-0.0772 -0.28418,-0.11248 -0.34579,-0.12753 -0.70001,-0.23113 -1.05852,-0.31623 -0.41775,-0.0912 -1.16587,-0.3473 -1.3103,0.27993 -0.0125,0.0545 0.008,0.11148 0.0125,0.16722 0.45934,1.46243 2.53577,2.53561 3.96844,2.00536 0.25292,-0.0936 0.34848,-0.14943 0.60227,-0.27373 0.51488,-0.27599 1.02244,-0.56228 1.51514,-0.87689 0.42761,-0.27306 0.8331,-0.53784 1.2118,-0.87776 0.16094,-0.14445 0.30087,-0.31072 0.4513,-0.46609 0.1796,-0.30632 0.32203,-0.46956 0.36526,-0.82617 0.0692,-0.5704 -0.39097,-0.92055 -0.82841,-1.17427 -1.36541,-0.78488 -2.68279,-1.6647 -4.11023,-2.33013 -0.66461,-0.30982 -1.36326,-0.54085 -2.05403,-0.78328 -0.44866,-0.13453 -0.66541,-0.21092 -1.12285,-0.30356 -0.65701,-0.13306 -1.32991,-0.17925 -1.99228,-0.27659 z" />
    <path
       style="fill:#ff0000;stroke-width:0.264583"
       id="path8"
       d="m 50.227367,107.91483 c 1.518348,-0.0947 3.038832,-0.0965 4.559165,-0.0659 2.018736,0.0833 4.036118,0.19641 6.053958,0.29876 0.859366,0.0624 1.725572,0.0123 2.573353,0.18388 0.08197,0.0303 0.166481,0.0545 0.245901,0.091 0.07422,0.0341 0.284641,0.16034 0.213577,0.12009 -1.042464,-0.59052 -2.078728,-1.19213 -3.127772,-1.77088 -0.07459,-0.0412 0.137933,0.10043 0.201896,0.1567 0.134437,0.11827 0.173582,0.17879 0.280985,0.31388 0.04075,0.0766 0.09297,0.14804 0.122261,0.22966 0.07232,0.20152 0.110792,0.52027 0.131453,0.72651 0.04107,0.41001 0.04472,0.82233 0.05207,1.23388 0.04056,0.82225 -0.117877,1.38114 -0.628121,2.03494 -0.09015,0.1155 -0.192923,0.22057 -0.289385,0.33086 -0.466214,0.48819 -0.833353,0.71578 -1.494906,0.80956 -1.50282,-0.43006 -4.699164,-2.40598 1.153395,0.92966 -0.591394,-0.35355 -0.786021,-0.86507 -0.959998,-1.49598 -0.147744,-0.61692 -0.202322,-1.25077 -0.338908,-1.86968 -0.09171,-0.40873 -0.251155,-0.79457 -0.461475,-1.15544 -0.814742,-1.37891 -0.827858,-0.87848 -3.813612,-2.1106 -0.106455,-0.0439 -0.188714,0.13208 -0.281511,0.20028 -0.221176,0.16255 -0.458928,0.35035 -0.674174,0.5179 -0.54727,0.42995 -1.080043,0.88754 -1.698451,1.21523 -0.426916,0.22622 -0.594529,0.27003 -1.052319,0.43881 -1.011034,0.32549 -2.059046,0.50583 -3.09014,0.75363 -0.334516,0.0879 -0.687483,0.13312 -1.010502,0.26324 -0.272648,0.10983 -0.510977,0.28294 -0.746101,0.4548 -0.28937,0.23588 -0.152842,0.11724 -0.410906,0.35436 0,0 3.331596,2.05713 3.331596,2.05713 v 0 c 0.223613,-0.21305 0.103061,-0.10766 0.363786,-0.31373 0.193874,-0.12271 0.255564,-0.17079 0.460629,-0.26646 0.371991,-0.17356 0.778375,-0.25734 1.171239,-0.36744 1.028571,-0.25575 2.067338,-0.47802 3.071612,-0.82245 0.498202,-0.19288 0.645133,-0.22966 1.107773,-0.48597 0.62271,-0.345 1.164241,-0.81178 1.740937,-1.22423 0.140658,-0.0941 0.518205,-0.35751 0.693791,-0.43811 0.07434,-0.0341 0.304479,-0.0246 0.23559,-0.0687 -1.055143,-0.67555 -2.188644,-1.22107 -3.261276,-1.86849 -0.04577,-0.0276 0.111747,-0.0254 0.160372,-0.003 0.04824,0.0221 0.0675,0.0819 0.101241,0.12279 0.215884,0.33296 0.43,0.66743 0.533259,1.05638 0.17321,0.61531 0.273331,1.24516 0.374134,1.87582 0.124323,0.70772 0.295725,1.29455 0.847199,1.7939 1.213562,0.69464 2.420699,1.40062 3.64069,2.08391 0.08972,0.0502 0.758397,0.3315 0.835859,0.36221 0.256601,0.1017 0.568047,0.22762 0.848582,0.2573 0.113982,0.0121 0.229055,-0.009 0.34358,-0.0138 0.690398,-0.19684 1.101979,-0.51903 1.569299,-1.06596 0.665213,-0.82567 1.115325,-1.49229 1.064345,-2.59828 -0.01146,-0.7891 -0.0199,-1.58321 -0.144881,-2.36414 -0.09003,-0.15244 -0.30575,-0.51903 -0.450355,-0.60736 -1.347568,-0.82311 -2.533293,-1.94254 -4.078584,-2.20912 -0.825897,-0.0794 -1.655863,-0.0532 -2.484487,-0.0632 -1.97036,-0.0272 -3.938937,-0.10875 -5.907773,-0.18834 -1.624677,-0.048 -3.249875,-0.0795 -4.873659,-0.15157 z" />
    <path
       style="fill:#ff0000;stroke-width:0.264583"
       id="path9"
       d="m 58.796231,117.75905 c -2.160561,0.15236 -4.330049,0.0874 -6.494258,0.0724 -2.118334,0.0609 -4.234283,-0.005 -6.346666,-0.1621 -0.23099,-0.0203 -0.461979,-0.0405 -0.692965,-0.0608 0,0 3.028973,2.23069 3.028973,2.23069 v 0 c 0.216723,0.009 0.433446,0.0174 0.650169,0.026 2.099612,0.0843 4.199567,0.0939 6.3007,0.10236 2.230919,-0.0158 4.465733,-0.0736 6.693606,0.0724 z" />
    <path
       style="fill:#ff0000;stroke-width:0.264583"
       id="path10"
       d="m 56.136431,123.30942 c -0.3931,0.77449 -0.788395,1.56087 -1.2865,2.27542 -0.08947,0.12834 -0.189216,0.2492 -0.283823,0.37379 -0.103159,0.10281 -0.196914,0.21602 -0.309476,0.30844 -0.38463,0.31581 -1.081614,0.59846 -1.575421,0.65483 -0.142566,0.0163 -0.286983,5.3e-4 -0.430475,8e-4 -0.139443,-0.0217 -0.282046,-0.0284 -0.418327,-0.065 -0.130069,-0.0349 -0.250545,-0.0989 -0.375817,-0.14837 0.990372,0.55275 1.969582,1.126 2.97112,1.65825 0.127188,0.0676 -0.237935,-0.16411 -0.343662,-0.26192 -0.288658,-0.26704 -0.387588,-0.44371 -0.612196,-0.76295 -0.446047,-0.68667 -0.777393,-1.4358 -1.081907,-2.19306 -0.423683,-1.39661 -3.269983,-3.41322 -3.679812,-1.74581 -0.01236,0.0502 0.0232,0.43317 0.02365,0.47366 0.0011,0.0859 -0.008,0.1716 -0.01199,0.2574 -0.137813,0.74454 -0.416229,0.88785 -1.10622,1.06684 -0.893353,0.10778 -1.749917,-0.15922 -2.581233,-0.45262 -0.557231,-0.23649 -1.096933,-0.50922 -1.623721,-0.8069 -0.183393,-0.10363 -0.729319,-0.42193 -0.545978,-0.31821 2.79831,1.58317 3.625093,2.16005 2.330952,1.28172 -0.275024,-0.18875 -0.520766,-0.41134 -0.755838,-0.64632 0,0 -3.599444,-1.51027 -3.599444,-1.51027 v 0 c 0.238929,0.28354 0.502356,0.53668 0.800862,0.75931 1.596017,1.1183 0.400984,0.29812 4.159903,2.49096 0.719701,0.41985 1.466263,0.79764 2.247064,1.09054 0.896969,0.27964 1.830261,0.52228 2.768164,0.29289 0.286797,-0.10228 0.440168,-0.13348 0.689422,-0.31434 0.36975,-0.2683 0.575937,-0.6914 0.672774,-1.12577 0.04737,-0.29889 0.05648,-0.2627 0.05018,-0.54239 -0.0011,-0.0508 0.03803,-0.1414 -0.01169,-0.1521 -0.05566,-0.012 -0.06661,0.1508 -0.117047,0.12439 -1.151141,-0.60283 -2.242955,-1.31294 -3.374041,-1.95261 -0.04402,-0.0249 0.07244,0.0706 0.108654,0.10591 0.385599,0.7571 0.700225,1.5501 1.136322,2.28193 0.172157,0.28121 0.34611,0.58616 0.554159,0.84394 0.09406,0.11654 0.178848,0.25052 0.306973,0.32806 0.247647,0.14987 2.65136,2.00568 4.091484,2.16624 0.148516,0.0166 0.298752,0.009 0.448125,0.0128 0.158345,-0.0196 0.318757,-0.0268 0.475036,-0.059 0.602662,-0.12416 1.229579,-0.41914 1.685607,-0.83446 0.119187,-0.10855 0.218795,-0.23682 0.328192,-0.35522 0.09655,-0.1345 0.198067,-0.26556 0.289653,-0.40349 0.484526,-0.72966 0.841666,-1.53936 1.366419,-2.24352 z" />
    <path
       style="fill:#0000ff;stroke-width:0.264583"
       id="path11"
       d="m 136.99174,135.00215 c 0.7995,0.59953 1.61402,1.19172 2.47814,1.69643 3.84885,2.24803 2.62825,1.64864 4.7451,2.64006 1.38551,0.58733 2.77076,1.17711 4.10262,1.87919 0.72227,0.36436 1.42968,0.75655 2.14821,1.12794 0.7106,0.24765 1.4438,0.40669 2.19615,0.43078 0.0901,-0.015 0.18447,-0.0139 0.27041,-0.045 0.5036,-0.18199 0.74297,-0.89459 0.94784,-1.33419 0.28515,-0.60718 0.56556,-1.21661 0.7789,-1.85311 0.18986,-0.60588 0.13902,-1.23833 -0.12825,-1.81634 -0.0817,-0.17676 -0.18999,-0.34001 -0.28499,-0.51002 -0.40461,-0.58709 -0.85936,-1.2021 -1.48769,-1.57154 -3.64945,-2.14576 -2.34021,-1.77951 -4.18042,-2.22794 -0.15805,-0.0214 -0.31472,-0.0598 -0.47415,-0.0642 -0.81636,-0.0224 -1.59846,0.35094 -2.30901,0.70663 -0.75527,0.42762 -1.39803,1.01017 -2.01517,1.61284 -0.516,0.5155 -0.9942,1.06618 -1.40734,1.66713 -1.29781,0.44416 -0.21256,0.053 3.38861,1.79397 0.0463,0.0224 -0.0667,-0.0828 -0.0788,-0.1328 -0.0263,-0.10814 -0.0281,-0.22097 -0.034,-0.33209 -0.0187,-0.34961 -0.001,-0.57285 0.0121,-0.92837 0.0533,-0.74241 0.19837,-1.47605 0.42367,-2.18526 0.0135,-0.0426 0.36472,-1.04192 0.38023,-1.08611 0.21968,-0.69596 0.45232,-1.41561 0.42289,-2.15628 -0.0171,-0.42959 -0.10064,-0.72465 -0.19212,-1.13806 -0.10122,-0.31797 -0.15815,-0.56093 -0.32323,-0.84981 -0.72754,-1.27318 -3.55932,-2.30925 -3.85801,-2.47231 -0.13825,-0.0755 -0.30873,-0.0675 -0.46576,-0.0797 -0.17557,-0.0137 -0.3522,0.002 -0.52829,0.002 -0.63958,0.10504 -1.19289,0.28036 -1.72887,0.65572 -0.18384,0.12874 -0.36395,0.26632 -0.52035,0.4273 -0.3857,0.39699 -0.53985,0.72659 -0.81595,1.19875 -0.52633,1.13907 -0.79124,2.37269 -1.08957,3.5852 -0.12399,0.535 -0.31379,1.0203 -0.62444,1.4722 0,0 3.36053,1.97058 3.36053,1.97058 v 0 c 0.0581,-0.0884 0.12168,-0.17351 0.17441,-0.26526 0.24186,-0.42078 0.36255,-0.89554 0.476,-1.36294 0.2083,-1.19744 0.42684,-2.41479 0.95046,-3.52074 0.2703,-0.45338 0.37588,-0.70288 0.76158,-1.06924 0.58157,-0.55245 1.34175,-0.80497 2.13016,-0.82672 0.16542,0.0236 0.33444,0.0291 0.49626,0.0708 0.14709,0.0378 0.55237,0.24773 0.42426,0.16615 -0.96225,-0.61278 -1.9553,-1.17583 -2.93295,-1.76374 0.0913,0.0785 0.19565,0.14401 0.27394,0.23551 0.20999,0.24541 0.28101,0.4868 0.40459,0.78183 0.11004,0.38209 0.20512,0.64167 0.23789,1.04235 0.0576,0.70422 -0.16328,1.39505 -0.35747,2.06066 -0.1257,0.3693 -0.26405,0.7343 -0.38448,1.10535 -0.23684,0.72978 -0.40906,1.48015 -0.49037,2.24357 -0.0395,0.42278 -0.0591,0.8478 -0.0994,1.27017 -0.009,0.0931 -0.11761,0.22842 -0.0382,0.2778 3.4542,2.14902 2.83852,3.03393 3.62824,1.77778 0.33785,-0.60785 0.81282,-1.12402 1.29112,-1.62404 0.60051,-0.56506 1.23695,-1.10455 1.95798,-1.51074 0.86653,-0.42491 1.63443,-0.68821 2.60003,-0.41411 1.47456,0.56759 0.60458,0.26078 -2.40423,-1.50621 -0.14521,-0.0853 0.29607,0.16199 0.43404,0.25855 0.44733,0.31308 0.81653,0.72111 1.13257,1.16278 0.0932,0.14442 0.19856,0.28166 0.27953,0.43325 0.25716,0.48148 0.35119,1.03195 0.19425,1.55706 -0.19436,0.62671 -0.43632,1.23571 -0.72495,1.82548 -0.12092,0.25139 -0.34215,0.8 -0.61142,0.93184 -0.11519,0.0564 -0.25987,0.0441 -0.38061,0.0475 -0.72458,-0.0568 -1.43892,-0.23649 -2.09237,-0.55939 -0.69183,-0.35973 -1.38257,-0.72134 -2.07973,-1.07079 -1.31314,-0.65408 -2.68055,-1.18554 -4.01352,-1.79689 -1.39478,-0.69677 -1.8103,-0.92669 1.58172,0.99537 0.24248,0.1374 -0.4726,-0.29557 -0.70746,-0.44563 -0.55186,-0.3526 -1.10026,-0.71216 -1.60508,-1.13104 z" />
    <path
       style="fill:#0000ff;stroke-width:0.264583"
       id="path12"
       d="m 145.44709,124.52254 c 0.44024,-1.03698 1.03358,-2.0034 1.69748,-2.91085 0.31349,-0.39066 0.63973,-0.78679 1.05953,-1.06913 0.16189,-0.10889 0.34658,-0.20079 0.51812,-0.29186 0.54186,-0.27773 1.12983,-0.45997 1.65984,-0.75991 0.13733,-0.063 0.3912,-0.2975 0.54446,-0.31148 0.0428,-0.004 0.1577,0.0679 0.11985,0.0475 -3.38335,-1.81955 -4.1268,-2.50935 -2.92749,-1.4594 0.10974,0.14635 0.22666,0.28758 0.32922,0.43904 0.35038,0.51742 0.66377,1.05898 0.98895,1.5926 0.67315,1.10466 1.33737,2.21391 2.02032,3.31263 0.83403,1.39089 1.80663,2.68816 2.73752,4.01343 0.16192,0.23412 0.32587,0.46676 0.48595,0.70214 0,0 3.59608,1.56824 3.59608,1.56824 v 0 c -0.17977,-0.26137 -0.38067,-0.505 -0.57485,-0.7559 -1.03337,-1.33761 -2.07972,-2.66712 -2.98947,-4.0944 -0.63086,-0.97956 -0.7666,-1.16666 -1.35965,-2.18529 -0.50124,-0.86092 -0.94178,-1.74904 -1.41571,-2.62411 -0.084,-0.15506 -0.17438,-0.30655 -0.26157,-0.45983 -0.91822,-1.48649 -0.25738,-0.53971 -3.84416,-2.33324 -0.0634,-0.0317 -0.13312,0.0496 -0.19656,0.0812 -0.18709,0.0933 -0.34888,0.23317 -0.53748,0.32421 -0.53122,0.28314 -1.0819,0.52666 -1.62817,0.77888 -0.22071,0.1234 -0.36709,0.19365 -0.56601,0.34997 -0.41766,0.32823 -0.71771,0.78507 -1.03672,1.20138 -0.13702,0.19971 -0.52656,0.76351 -0.64856,0.95826 -0.40242,0.64241 -0.73515,1.32678 -1.15016,1.96159 z" />
    <path
       style="fill:#000000;stroke-width:0.264583"
       id="path13"
       d="m 150.93544,73.331805 c -0.47848,0.921811 -1.10906,1.755666 -1.7316,2.58327 -0.66852,0.896342 -1.36833,1.773197 -2.13654,2.586892 -0.39764,0.421187 -0.53807,0.543321 -0.94897,0.931447 -0.57885,0.546523 -1.19824,1.046234 -1.81428,1.549437 -0.16893,0.12279 -0.61429,0.591447 -0.81653,0.617431 -0.0376,0.0048 -0.0723,-0.02281 -0.10843,-0.03419 -0.77008,-1.186236 -0.0292,0.0056 3.10332,1.656469 0.0808,0.0426 -0.12602,-0.133967 -0.17445,-0.211458 -0.20916,-0.334669 -0.2839,-0.739968 -0.37297,-1.11655 -0.19809,-1.253344 -0.26611,-2.525982 -0.30806,-3.793119 -0.0332,-0.882716 0.006,-1.767994 -0.0395,-2.650355 -0.0308,-0.599906 -0.0619,-0.74702 -0.13976,-1.341551 -0.18804,-1.152168 -0.42638,-2.294729 -0.57769,-3.452723 -0.0306,-0.267367 -0.0551,-0.535202 -0.092,-0.801793 -0.007,-0.05193 0.0228,-0.129188 -0.0224,-0.155671 -3.54269,-2.07378 -2.71224,-2.971699 -3.72345,-1.669137 -0.85346,1.316493 -1.76413,2.594018 -2.66816,3.875913 -0.79563,1.132674 -1.67558,2.200365 -2.66195,3.170992 -0.4612,0.498869 -1.02844,0.868542 -1.56495,1.27476 -0.20717,0.173246 -0.39509,0.367725 -0.59105,0.553328 0,0 3.31192,2.047655 3.31192,2.047655 v 0 c 0.19516,-0.175715 0.39245,-0.348048 0.60415,-0.503952 0.53251,-0.417544 0.99368,-0.917791 1.47147,-1.394653 0.2332,-0.243715 0.64121,-0.664093 0.85685,-0.915066 0.63899,-0.743691 1.18425,-1.564484 1.75502,-2.359544 0.78977,-1.141717 1.58313,-2.372116 2.52653,-3.390992 0.0971,-0.104876 0.20475,-0.199486 0.30712,-0.299231 1.33977,-0.341992 0.0788,0.0021 -3.254,-1.969251 -0.033,-0.0195 0.0857,0.004 0.10983,0.03372 0.11732,0.144796 0.12187,0.6447 0.18167,0.810829 0.21341,1.161704 0.45279,2.318451 0.65347,3.482504 0.0832,0.558274 0.12272,0.737754 0.15573,1.301753 0.0519,0.886531 0.005,1.77755 0.062,2.664153 0.0371,1.269674 0.0598,2.541233 0.19802,3.805251 0.0606,0.41036 0.12808,0.813633 0.26142,1.208145 0.49485,1.464059 2.33213,2.593129 3.86685,2.401785 0.0611,-0.02915 0.12467,-0.05363 0.18331,-0.08747 0.31075,-0.179316 0.54175,-0.475708 0.82282,-0.693024 0.58274,-0.535498 1.17039,-1.065982 1.71689,-1.639326 0.2848,-0.294357 0.65847,-0.674235 0.92589,-0.978257 0.74287,-0.844571 1.40749,-1.755921 2.14123,-2.608255 0.66291,-0.824439 1.321,-1.65227 1.95533,-2.499005 z" />
    <path
       style="fill:#000000;stroke-width:0.264583"
       id="path14"
       d="m 99.205263,70.69683 c -0.260228,-0.172146 -0.523108,-0.340355 -0.78069,-0.516438 -0.680863,-0.465436 -1.11148,-0.791247 -1.786856,-1.266481 -0.819002,-0.576299 -1.652328,-1.128217 -2.492684,-1.672598 -2.108745,-1.451464 -4.283996,-2.795209 -6.562058,-3.971925 -0.488765,-0.239498 -0.954837,-0.538255 -1.478683,-0.696986 -0.05738,0.01056 -0.121819,0.0021 -0.172148,0.03169 -0.440788,0.258527 -0.371689,1.233051 -0.379264,1.657223 0.01146,1.234575 0.01389,2.469095 -0.0024,3.703624 -0.03169,0.74843 0.0042,1.499196 -0.04841,2.246763 -0.951309,0.918985 -0.201954,0.183166 3.491455,1.695347 0.08736,0.03577 -0.05805,-0.179832 -0.08032,-0.271566 -0.03119,-0.128521 -0.0533,-0.259077 -0.07992,-0.388623 -0.131207,-0.638495 -0.06033,-0.310676 -0.207843,-0.960376 -0.140203,-0.496539 -0.216588,-1.044806 -0.522568,-1.477055 -0.06988,-0.09872 -0.135748,-0.209701 -0.238557,-0.273413 -1.208092,-0.748678 -2.452912,-1.436399 -3.679367,-2.1546 C 83.041117,65.982583 81.8725,65.660884 80.712432,65.313635 80.006391,65.079481 79.281665,64.9048 78.577702,64.66426 78.345744,64.585 78.117208,64.496064 77.886711,64.412657 c -0.08641,-0.0048 -0.181793,-0.05314 -0.259236,-0.0145 -0.223298,0.111403 -0.342265,0.425389 -0.402911,0.638296 -0.126915,0.445543 -0.106891,0.92092 -0.104854,1.377961 0.04367,1.085495 0.195974,2.159746 0.423122,3.220728 0.33351,1.414261 0.861589,2.776268 1.472353,4.091884 0.520496,1.074595 1.142114,2.095127 1.716148,3.141046 0,0 3.459576,1.543484 3.459576,1.543484 v 0 C 83.585626,77.376551 82.942466,76.361231 82.423078,75.278577 81.810071,73.994591 81.256493,72.67363 80.938337,71.281945 80.747962,70.245718 80.589323,69.204011 80.534363,68.1504 c -0.0042,-0.304397 -0.02742,-1.142224 0.165344,-1.401421 0.05177,-0.06961 0.284906,0.204912 0.255037,0.05194 0.901994,0.293057 1.818619,0.534299 2.727423,0.804942 0.668335,0.199286 1.335968,0.399004 1.998797,0.616092 0.268325,0.08788 0.773981,0.253286 1.04693,0.366057 0.151879,0.06275 0.298458,0.137631 0.447686,0.206444 -0.967418,-0.574668 -1.934837,-1.149335 -2.902255,-1.724002 0.09036,0.06189 0.190035,0.111996 0.271069,0.185672 0.07852,0.07139 0.144139,0.156966 0.202959,0.245303 0.225573,0.338788 0.313021,0.743696 0.431062,1.126069 0.100907,0.429985 0.190098,0.855184 0.2291,1.296006 0.0081,0.0922 -0.0654,0.229272 0.01371,0.277347 3.591581,2.182923 3.513931,3.240659 3.574772,1.790332 -0.05276,-0.766011 -0.02413,-1.535038 -0.05905,-2.301838 -0.02204,-1.224359 -0.03596,-2.450071 0.02566,-3.673583 0.02207,-0.349697 0.03574,-0.699937 0.108717,-1.043766 0.0046,-0.02154 0.0011,-0.05246 0.02056,-0.06279 0.04252,-0.0226 0.006,0.238786 0.114215,0.08843 0.46527,0.207058 0.914758,0.4469 1.369679,0.675349 1.27839,0.682297 0.906643,0.490046 -2.383705,-1.406686 -0.185454,-0.106905 0.368303,0.218382 0.549323,0.332639 0.67169,0.423961 1.32208,0.881404 1.988698,1.313117 1.67467,1.064244 3.318947,2.173266 4.890249,3.386868 z" />
    <path
       style="fill:#000000;stroke-width:0.264583"
       id="path15"
       d="m 91.109103,101.71331 c 1.598472,1.16189 3.23995,2.26587 4.803574,3.47555 0.661926,0.51209 1.313143,1.03822 1.955197,1.57502 1.330729,1.11257 2.372016,2.07606 3.654736,3.23593 0.56176,0.49863 1.11524,1.00675 1.68527,1.49591 2.32394,1.99424 4.84085,3.73152 7.28962,5.56432 1.29695,0.99077 2.51037,2.08394 3.74192,3.15334 0,0 3.46844,1.40377 3.46844,1.40377 v 0 c -1.32188,-1.09969 -2.61356,-2.23702 -3.98434,-3.27632 -2.53493,-1.86058 -5.14875,-3.61268 -7.55625,-5.64128 -0.58506,-0.49298 -1.15261,-1.00637 -1.72892,-1.50956 -1.81919,-1.63696 -3.62959,-3.28841 -5.543912,-4.81528 -1.274254,-1.01634 -1.971238,-1.47149 -3.232253,-2.43614 -0.337658,-0.2583 -0.665453,-0.52924 -0.998183,-0.79386 z" />
    <path
       style="fill:#ff0000;stroke-width:0.264583"
       id="path16"
       d="m 94.651908,113.86848 c 2.065137,-0.12943 4.081762,-0.60839 6.110552,-0.97862 0.85485,-0.156 1.71035,-0.30964 2.56926,-0.44151 0.96522,-0.14819 1.93489,-0.26571 2.90234,-0.39857 4.49037,-0.50366 1.81054,-0.21704 6.36373,-0.67087 1.05741,-0.1054 2.11698,-0.19143 3.17196,-0.31883 1.45746,-0.176 4.47087,-0.6388 5.95939,-0.90104 0.85708,-0.151 1.70932,-0.32832 2.56398,-0.49248 1.83449,-0.36405 3.66473,-0.74889 5.49624,-1.12751 0,0 -2.87981,-1.98804 -2.87981,-1.98804 v 0 c -1.70593,0.49252 -3.41933,0.95789 -5.15153,1.35083 -2.0831,0.45426 -3.09954,0.70339 -5.24234,1.0519 -4.20323,0.68363 -8.45672,0.94506 -12.6877,1.39339 -3.56267,0.4058 -2.30116,0.24222 -5.688935,0.70171 -2.177653,0.29535 -4.363117,0.67674 -6.56994,0.59504 z" />
    <path
       style="fill:#0000ff;stroke-width:0.264583"
       id="path17"
       d="m 106.12886,96.677566 c -0.33499,1.0282 -0.75659,2.025925 -1.16708,3.025397 -0.20709,0.504207 -0.43186,1.001387 -0.62428,1.511367 -0.25386,0.67281 -0.47401,1.35787 -0.71409,2.03571 -0.26298,0.74249 -0.53005,1.48351 -0.79508,2.22527 -0.71705,2.12569 -1.5162,4.22537 -2.19181,6.36516 -0.25686,0.81353 -0.847488,2.88619 -1.072008,3.75273 -0.140925,0.54389 -0.263208,1.09245 -0.394812,1.63867 -0.455258,1.94812 -0.790413,3.92243 -1.007686,5.91077 -0.04936,0.50235 -0.08073,1.00618 -0.107017,1.51017 0,0 3.478933,1.77528 3.478933,1.77528 v 0 c -0.0199,-0.51434 -0.029,-1.02908 -0.0127,-1.54375 0.0682,-2.02645 0.28529,-4.0462 0.64558,-6.04202 0.28323,-1.39486 0.40092,-2.06766 0.76688,-3.46897 0.73928,-2.83078 1.69036,-5.60296 2.66277,-8.36005 0.2864,-0.72751 0.55741,-1.46126 0.8592,-2.18252 0.89556,-2.14035 1.93179,-4.2272 3.04749,-6.260313 z" />
    <path
       style="fill:#008000;stroke-width:0.264583"
       id="path18"
       d="m 116.17707,101.31832 c -0.13341,0.0922 -0.26332,0.18972 -0.40022,0.27669 -1.50905,0.95865 -3.13654,1.72317 -4.75677,2.46969 -1.28488,0.60143 -2.55194,1.24437 -3.74394,2.01691 -1.14628,0.74291 -2.22602,1.58606 -3.30211,2.42499 -1.43689,1.10577 -2.78071,2.34001 -4.273835,3.37264 -0.308118,0.21309 -0.628629,0.40768 -0.942943,0.61152 -1.200973,0.71472 -2.387497,1.45546 -3.511947,2.28676 -0.527158,0.38973 -0.755121,0.58048 -1.252088,0.97987 -0.804547,0.6745 -1.480105,1.47771 -2.195065,2.24114 -0.228341,0.22676 -0.110675,0.14423 -0.337164,0.26876 0,0 3.322093,2.09925 3.322093,2.09925 v 0 c 0.232531,-0.21878 0.118954,-0.0979 0.336867,-0.36617 0.631304,-0.79807 1.282986,-1.58626 2.049484,-2.26007 0.464367,-0.41419 0.665154,-0.60552 1.169977,-1.00065 1.089927,-0.85309 2.265591,-1.58426 3.445501,-2.30428 0.6806,-0.43864 1.23028,-0.77499 1.87671,-1.26196 0.26606,-0.20044 0.51826,-0.41867 0.77501,-0.63091 0.85446,-0.70634 1.68573,-1.43985 2.53705,-2.14993 1.04851,-0.84575 2.10177,-1.68414 3.2384,-2.41134 1.19074,-0.76183 2.4561,-1.39848 3.74908,-1.96618 1.84508,-0.83186 3.67874,-1.68705 5.50547,-2.558 z" />
    <path
       style="fill:#ffff00;stroke-width:0.264583"
       id="path19"
       d="m 108.50587,123.30861 c -0.5031,-0.65706 -0.87782,-1.39942 -1.26377,-2.12781 -0.42681,-0.80549 -0.46372,-0.87632 -0.8976,-1.69853 -0.61928,-1.17125 -1.29646,-2.31632 -1.8163,-3.53756 -0.34809,-0.81776 -0.40729,-1.05623 -0.68684,-1.90184 -0.59494,-1.88868 -1.00269,-3.82797 -1.32082,-5.78027 -0.12036,-0.75288 -0.21197,-1.51149 -0.37659,-2.25668 -0.0558,-0.2526 -0.17955,-0.7343 -0.24333,-0.98663 -0.32783,-1.21869 -0.70124,-2.4245 -1.05613,-3.6355 -0.13683,-0.44948 -0.26874,-0.90036 -0.39657,-1.35246 0,0 -3.49464,-1.647932 -3.49464,-1.647932 v 0 c 0.161063,0.463259 0.326181,0.925089 0.48341,1.389679 0.378957,1.187553 0.703154,2.390923 1.015407,3.597483 0.284504,1.07924 0.52537,2.16813 0.730155,3.26545 0.388054,1.96767 0.822008,3.92645 1.367798,5.85709 0.18995,0.60515 0.40774,1.34379 0.64819,1.93272 0.12236,0.29971 0.2675,0.58968 0.40817,0.88124 0.43818,0.90818 0.9322,1.78627 1.40833,2.67464 0.20701,0.40633 0.64031,1.25395 0.84845,1.67332 0.30079,0.60605 0.58159,1.22307 0.88566,1.82732 0.0416,0.0827 0.0908,0.16135 0.13619,0.24203 z" />
  </g>
</svg>
