<?xml version="1.0" encoding="UTF-8" standalone="no"?>
<!-- Created with Inkscape (http://www.inkscape.org/) -->

<svg
   width="190.5mm"
   height="190.50002mm"
   viewBox="0 0 190.5 190.50002"
   version="1.1"
   id="svg1"
   xmlns="http://www.w3.org/2000/svg"
   xmlns:svg="http://www.w3.org/2000/svg">
  <defs
     id="defs1" />
  <g
     id="layer1"
     transform="translate(-7.9375002,-18.520833)">
    <path
       style="fill:#000000;stroke-width:0.264583"
       id="path6"
       d="m 34.79478,15.754552 c 0.04631,1.166857 0.132519,2.332813 0.13894,3.50057 0.0094,1.709117 -0.03244,3.418489 -0.09151,5.12661 -0.187886,5.433462 -0.481161,9.515504 -0.901412,15.027262 -1.857602,24.363121 0.339964,-6.319171 -1.543153,20.455149 -0.471903,10.044594 -0.822952,16.667771 -1.13008,26.810988 -0.03668,1.211437 -0.676471,29.021589 -0.70906,30.363089 -0.491693,20.24132 -0.271793,7.53472 -0.525581,26.80675 -0.06767,10.99548 -0.318746,22.02107 0.58389,32.99307 0.287079,3.48959 0.479611,4.64213 0.920454,7.91299 0.134699,0.8477 0.263038,1.69645 0.404095,2.54312 0.197374,1.18468 0.338053,1.96603 0.590013,3.09443 0.211069,0.94527 0.458722,1.88012 0.661908,2.82737 0.142889,0.76532 0.298913,1.52744 0.471784,2.28646 0,0 3.499607,1.67776 3.499607,1.67776 v 0 c -0.201581,-0.75806 -0.383921,-1.52031 -0.516223,-2.29416 -0.430996,-2.03519 -1.076971,-4.01228 -1.526977,-6.04415 -0.191788,-0.86596 -0.365593,-1.73581 -0.548388,-2.60372 -0.616966,-3.38783 -0.85203,-4.4398 -1.300594,-8.07578 -1.372024,-11.12144 -1.526225,-22.34362 -1.702499,-33.5331 -0.0071,-4.29888 -0.049,-8.59785 -0.02146,-12.89665 0.03009,-4.69621 0.111119,-9.39201 0.194368,-14.08757 0.3361,-18.957154 0.965097,-37.920672 2.497439,-56.82336 0.323374,-3.592269 0.622893,-7.186768 0.970124,-10.776809 2.10466,-21.760291 -0.04762,1.934657 1.806593,-17.597083 1.181439,-12.444929 0.08601,-1.321004 0.941975,-11.640549 0.09065,-1.092834 0.218541,-2.182258 0.327808,-3.273387 z" />
    <path
       style="fill:#000000;stroke-width:0.264583"
       id="path7"
       d="m 58.667038,20.899086 c 0.183116,3.262806 0.280046,4.342665 0.226169,8.223104 -0.198663,14.308333 -1.997536,28.542559 -3.59785,42.742304 -2.35359,21.916554 -5.305821,43.775416 -6.916766,65.766776 -0.268833,3.6699 -0.45385,7.34545 -0.680776,11.01817 -0.519025,10.2065 -0.822589,20.45013 -0.19015,30.65955 0.232529,3.75369 0.386167,4.70278 0.798136,8.24382 0.425752,2.84181 0.779312,5.72901 1.680499,8.46967 0,0 3.499739,1.62603 3.499739,1.62603 v 0 c -1.177023,-2.73285 -1.590935,-5.72625 -2.185136,-8.62003 -0.547013,-3.55092 -0.756354,-4.61788 -1.123706,-8.3807 -1.007359,-10.3185 -1.013349,-20.70886 -0.665298,-31.06106 0.532794,-10.36832 0.562049,-12.31068 1.39872,-22.83686 1.437235,-18.08187 3.600154,-36.093155 5.919962,-54.079985 1.442691,-11.41477 2.977877,-22.824458 4.087582,-34.278191 0.254485,-2.626648 0.456076,-5.258194 0.665888,-7.888787 0.143385,-1.797749 0.28489,-3.595857 0.393692,-5.396028 0.05005,-0.828135 0.05519,-1.658374 0.08279,-2.487561 z" />
    <path
       style="fill:#000000;stroke-width:0.264583"
       id="path8"
       d="m 81.165387,26.426509 c 0.123531,0.690131 0.277098,1.375555 0.370594,2.070394 0.509204,3.784266 1.169135,10.4976 1.493583,13.860742 0.850895,8.82015 1.273109,13.479211 1.885781,22.459053 0.274254,4.019722 0.487471,8.043373 0.731205,12.065061 0.865754,17.657873 1.572358,35.328751 1.684001,53.009611 0.01691,2.67772 -0.0021,5.35554 -0.0033,8.03331 -0.05201,2.38374 -0.0827,4.76804 -0.156048,7.15123 -0.101963,3.31307 -0.341657,8.39204 -0.567193,11.7737 -0.182774,2.74046 -0.461534,6.03304 -0.807315,8.78192 -0.1587,1.26162 -0.368369,2.5163 -0.552553,3.77444 -0.21634,1.18929 -0.419026,2.38114 -0.649021,3.56786 -0.216431,1.11675 -0.46138,2.22778 -0.69016,3.34206 -0.819875,3.99323 -1.631093,7.98828 -2.446655,11.98239 -0.669888,3.18575 -1.147051,6.41147 -1.461979,9.65111 -0.01834,0.22492 -0.03664,0.44983 -0.05497,0.67474 0,0 3.447058,1.77972 3.447058,1.77972 v 0 c 0.006,-0.22863 0.01207,-0.45726 0.0181,-0.6859 0.154774,-3.27797 0.54899,-6.53851 1.150292,-9.76519 1.172007,-6.33959 2.547409,-12.64092 3.62594,-18.99767 0.169757,-1.27111 0.371446,-2.53837 0.50927,-3.81335 0.321268,-2.97195 0.469667,-5.92279 0.595482,-8.90948 0.268616,-6.37659 0.36589,-12.75986 0.332116,-19.14181 -0.04276,-2.70144 -0.06094,-5.40339 -0.128281,-8.10433 -0.07281,-2.9204 -0.571137,-16.63134 -0.659606,-19.09708 -0.132427,-3.69085 -0.24552,-7.38246 -0.398576,-11.07252 C 88.190913,94.976478 87.599866,83.466632 87.311239,77.717707 86.227972,58.597768 87.048029,72.775235 85.91719,53.977293 85.556462,47.980943 85.131245,41.389596 84.907915,35.337832 c -0.06434,-1.743491 -0.03795,-3.489638 -0.107516,-5.232927 -0.0263,-0.659397 -0.119991,-1.314378 -0.179988,-1.971566 z" />
    <path
       style="fill:#000000;stroke-width:0.264583"
       id="path9"
       d="m 111.38186,25.488362 c 1.63311,10.050698 2.51975,20.20692 3.12578,30.366161 0.18324,3.071725 0.31811,6.146143 0.47716,9.219215 0.11192,3.16556 0.24285,6.330508 0.33575,9.496684 0.092,3.136112 0.15018,6.273128 0.21901,9.409835 0.27048,12.32558 0.45407,24.650823 0.56661,36.978783 0.0589,13.37707 0.27735,26.78739 -0.95365,40.12595 -0.23509,2.54739 -0.57094,5.08447 -0.85641,7.6267 -1.18042,9.54217 -2.72908,19.03365 -4.31551,28.51521 -0.18821,1.48854 -0.62356,2.98462 -0.53866,4.49841 0.0456,0.27666 0.0211,0.14644 0.0717,0.391 0,0 3.68367,1.50575 3.68367,1.50575 v 0 c -0.19494,0.024 -0.11496,0.0573 -0.21522,-0.14566 -0.0731,-0.38323 -0.0757,-0.75776 -0.0688,-1.14864 0.0202,-1.14592 0.12935,-2.28815 0.24585,-3.42749 0.98978,-9.67391 2.26293,-19.31548 3.47647,-28.9631 0.81319,-7.11595 1.03142,-8.08764 1.4211,-15.22527 0.5942,-10.88398 0.24729,-21.78232 0.17309,-32.67354 -0.21152,-18.63529 -0.50294,-37.270499 -1.12683,-55.897287 -0.33167,-8.743204 -0.29188,-9.025763 -0.80221,-17.504439 -0.36221,-6.017715 -0.55443,-8.189886 -0.98548,-13.99427 -0.11682,-1.573141 -0.25352,-3.145007 -0.34513,-4.71982 -0.0513,-0.881745 -0.0557,-1.765594 -0.0835,-2.648389 z" />
    <path
       style="fill:#000000;stroke-width:0.264583"
       id="path10"
       d="m 141.3509,28.049325 c 0.18088,4.587693 0.27393,9.179428 0.38662,13.769589 0.46446,15.334893 0.53025,30.677958 0.69617,46.017944 0.12485,17.312302 0.0105,34.624932 0.0408,51.937442 -0.0196,10.34695 -0.10316,20.69371 -0.19239,31.04027 -0.0567,3.71751 -0.22061,7.44106 -0.71088,11.12942 -0.23833,1.79305 -0.33014,2.15165 -0.6658,3.95037 -0.57415,2.74132 -1.42791,5.41161 -2.09892,8.12858 -0.1483,0.62417 -0.2163,1.26126 -0.2804,1.89799 0,0 3.45844,1.80002 3.45844,1.80002 v 0 c 0.0455,-0.62706 0.0968,-1.25413 0.2197,-1.87207 0.54817,-2.76779 1.31318,-5.48538 1.90935,-8.24266 0.13235,-0.67404 0.28456,-1.34448 0.39705,-2.02212 0.7267,-4.37739 0.65379,-8.84923 0.71713,-13.26882 -0.0995,-10.43443 -0.21179,-20.86871 -0.3209,-31.30303 -0.13048,-17.40168 -0.54732,-34.79997 -0.56353,-52.20258 0.13914,-15.154703 0.21425,-30.309944 0.40023,-45.464242 -0.0116,-4.500521 -0.11491,-9.007076 0.12595,-13.503262 z" />
    <path
       style="fill:#000000;stroke-width:0.264583"
       id="path11"
       d="m 161.03706,33.304112 c 0.14924,1.094766 0.32767,2.185948 0.44772,3.284299 0.47889,4.381664 0.69355,7.816398 0.91878,12.297238 0.43622,8.678082 0.59047,17.364855 0.76529,26.05092 0.39351,13.876781 -0.44537,27.742031 -1.12102,41.594921 -0.60467,12.39757 -0.46931,9.70085 -0.96454,22.15149 -0.12041,3.69194 -0.24723,7.38367 -0.36126,11.07581 -0.11323,3.6665 -0.20474,7.33366 -0.32052,11.00009 -0.40225,12.73764 -0.89447,25.4721 -1.40632,38.20571 -0.28601,7.80842 -0.58449,15.63787 0.0568,23.43616 0.0426,0.37656 0.0852,0.75312 0.12775,1.12969 0,0 3.40734,1.67004 3.40734,1.67004 v 0 c -0.077,-0.38765 -0.15393,-0.7753 -0.2309,-1.16295 -1.13962,-7.90782 -1.08777,-15.91985 -1.05801,-23.89159 0.10357,-7.24355 0.12384,-9.85248 0.30699,-17.32898 0.35285,-14.40371 0.86974,-28.80347 1.28231,-43.20546 0.47982,-11.63369 0.40616,-10.54349 0.9981,-22.13162 0.70575,-13.81621 1.68429,-27.635599 1.37667,-41.480501 -0.0784,-8.620281 -0.17213,-17.2393 -0.36734,-25.857909 -0.0307,-1.357458 -0.25659,-10.079178 -0.34288,-12.029069 -0.047,-1.060908 -0.13878,-2.11935 -0.20817,-3.179025 z" />
    <path
       style="fill:#000000;stroke-width:0.264583"
       id="path12"
       d="m 184.58514,47.345824 c 0.22046,1.232075 0.49214,2.45608 0.66138,3.696229 0.86665,6.350485 1.28123,11.803576 1.67773,18.314472 0.76436,12.551132 1.01619,25.12034 1.28109,37.688965 0.2269,15.10635 0.37732,30.21756 0.0795,45.32421 -0.12859,6.52211 -0.30066,10.59721 -0.53279,16.96946 -0.36986,7.32525 -0.57574,14.66985 -1.42803,21.96001 -0.0728,0.5254 -0.14612,1.05074 -0.2185,1.5762 -0.22229,1.61388 -0.22697,1.81387 -0.54418,3.48047 -0.3649,1.91717 -0.81792,3.81724 -1.25892,5.71783 -0.50841,2.07613 -0.83833,4.18597 -1.06482,6.30924 0,0 3.41272,1.77535 3.41272,1.77535 v 0 c 0.13437,-2.13465 0.4022,-4.25937 0.88465,-6.34593 0.78876,-3.58219 1.70728,-7.15172 2.05033,-10.81256 0.54328,-7.47371 0.3839,-14.97674 0.50415,-22.46367 0.0365,-8.3099 0.0351,-8.38144 0.0818,-17.20301 0.0188,-3.55108 0.0607,-7.1021 0.0586,-10.65322 -0.002,-3.72525 -0.0423,-7.45037 -0.0712,-11.1755 -0.10972,-14.16901 -0.0566,-9.38373 -0.35809,-23.65063 -0.30741,-12.516378 -0.64328,-25.031741 -0.98778,-37.547149 -0.0852,-3.09549 -0.35253,-13.812698 -0.55605,-17.780066 -0.0602,-1.173629 -0.19214,-2.342478 -0.28821,-3.513717 z" />
    <path
       style="fill:#000000;stroke-width:0.264583"
       id="path13"
       d="m 202.43872,170.45055 c -8.9432,0.34683 -17.85907,1.16845 -26.78481,1.79501 -2.87648,0.20192 -5.75472,0.37789 -8.63208,0.56684 -18.54304,1.15851 -37.13489,0.99594 -55.70457,0.97847 -9.57058,0.0374 -19.141926,-0.27506 -28.693969,-0.86374 -8.590706,-0.52944 -17.16605,-1.32285 -25.740336,-2.06309 -7.222701,-0.68981 -14.466585,-1.17512 -21.676066,-2.00257 -3.440168,-0.39483 -4.383611,-0.56084 -7.715575,-1.05432 -4.728878,-0.78939 -9.44946,-1.61733 -14.201606,-2.25593 -1.243281,-0.18411 -2.494345,-0.29526 -3.7467876,-0.39046 0,0 3.0669026,2.26273 3.0669026,2.26273 v 0 c 1.213441,0.0857 2.42596,0.18306 3.633695,0.33188 4.662511,0.56792 9.28541,1.40001 13.93482,2.06253 3.226813,0.43813 4.271422,0.60437 7.598039,0.94935 7.071148,0.73329 14.171178,1.14249 21.257916,1.68596 18.048372,1.29858 36.108354,2.84591 54.219127,2.74461 18.59149,0.0142 37.19818,0.0419 55.7689,-0.95082 2.90533,-0.16964 5.81107,-0.33235 8.71598,-0.50892 9.26962,-0.56342 18.55767,-1.37374 27.85248,-0.99743 z" />
    <path
       style="fill:#000000;stroke-width:0.264583"
       id="path14"
       d="m 198.09707,151.69839 c -0.66824,0.006 -1.33662,0.003 -2.00472,0.0173 -1.84961,0.041 -3.6985,0.11176 -5.54818,0.14997 -5.66808,0.11708 -15.70419,0.26897 -21.03895,0.23985 -4.74442,-0.0259 -9.48887,-0.0986 -14.2317,-0.22352 -5.15357,-0.13578 -10.30398,-0.37243 -15.45597,-0.55865 -15.33892,-0.63121 -30.67582,-1.31421 -46.018232,-1.8578 -10.987321,-0.38928 -15.823261,-0.44526 -26.637388,-1.00505 -3.909531,-0.20237 -7.814897,-0.4785 -11.722346,-0.71775 -18.860896,-1.29141 -37.623405,-3.65011 -56.36454454,-6.07937 -6.36835916,-0.87634 -12.73789846,-1.82204 -19.01808446,-3.21157 -0.849631,-0.18798 -1.693111,-0.40276 -2.539666,-0.60415 0,0 2.824525,2.14894 2.824525,2.14894 v 0 c 6.90435,1.45099 13.8880384,2.4676 20.8954136,3.27864 8.9652674,1.04976 5.9881214,0.70802 15.4950404,1.79085 13.395955,1.52578 26.800363,3.04882 40.265972,3.82267 3.859098,0.20239 7.716461,0.4412 11.577301,0.60718 10.19099,0.43809 16.028365,0.48729 26.34942,0.79354 15.304669,0.45412 30.603579,1.07856 45.899109,1.77127 9.99824,0.43203 20.21038,0.92388 30.2208,1.16405 4.00019,0.096 8.00238,0.0781 12.00309,0.14916 6.05042,0.10748 12.10124,0.26753 18.14446,0.59013 z" />
    <path
       style="fill:#000000;stroke-width:0.264583"
       id="path15"
       d="m 194.29538,127.15145 c -1.67359,0.0489 -3.81218,0.11601 -5.26743,0.10237 -4.12513,-0.0387 -11.62523,-0.3375 -15.51727,-0.49303 -2.47806,-0.099 -14.497,-0.61832 -17.14413,-0.73228 -2.55271,-0.10115 -5.1059,-0.19087 -7.65814,-0.30345 -5.71015,-0.25187 -8.98923,-0.41317 -14.69566,-0.87702 -5.16495,-0.41984 -10.98638,-1.03678 -16.12957,-1.55186 -2.83641,-0.28406 -5.67312,-0.56519 -8.50968,-0.84778 -2.83621,-0.25251 -5.67263,-0.50277 -8.50864,-0.75753 -2.879374,-0.25865 -5.757226,-0.5344 -8.637506,-0.78272 -4.070903,-0.35098 -12.546917,-1.02325 -16.730086,-1.33265 -4.499673,-0.33281 -9.00172,-0.63269 -13.50247,-0.95057 -9.685597,-0.6681 -19.341446,-1.70002 -28.994952,-2.72016 -4.46075,-0.31807 -8.913247,0.22622 -13.334861,0.7563 -0.462111,0.055 -0.924222,0.11008 -1.386333,0.16512 0,0 3.06746,2.16796 3.06746,2.16796 v 0 c 0.448057,-0.0646 0.896114,-0.12919 1.344171,-0.19378 4.328424,-0.5979 8.696012,-1.10905 13.073234,-0.84807 9.520777,0.76786 19.020044,1.79486 28.554587,2.38358 7.072302,0.41199 14.146448,0.78578 21.210767,1.32391 7.882012,0.60042 9.46685,0.79883 17.336149,1.5116 2.83393,0.25668 5.66864,0.50461 8.50296,0.75691 2.84621,0.28999 5.69291,0.57522 8.53864,0.86996 4.71558,0.48841 11.50798,1.24343 16.2696,1.64511 5.59982,0.4724 9.07177,0.63946 14.67266,0.84835 2.51862,0.0939 5.03839,0.15426 7.55759,0.23139 7.17947,0.26583 9.82072,0.34276 17.09766,0.69994 9.39765,0.46126 7.34275,0.40348 16.12918,0.93228 4.39303,0.26439 3.23171,0.22124 5.82105,0.29125 z" />
    <path
       style="fill:#000000;stroke-width:0.264583"
       id="path16"
       d="m 197.06115,108.47253 c -3.10069,-0.0236 -6.20172,0.10265 -9.30215,0.081 -4.55255,-0.0318 -10.75462,-0.2293 -15.17021,-0.47421 -3.36028,-0.18638 -6.7155,-0.45503 -10.07324,-0.68254 -16.08945,-1.5046 -32.21364,-2.59851 -48.30947,-4.02626 -12.70804,-1.12723 -13.46564,-1.26549 -26.05931,-2.61321 C 78.274581,99.647911 68.434349,98.286717 58.620728,96.748297 56.85691,96.471794 48.620415,95.145213 46.536244,94.768462 44.794643,94.453637 43.062236,94.089923 41.325233,93.75065 34.151114,92.347517 27.097595,90.380266 19.919577,89.001853 18.312191,88.765551 16.70424,88.53522 15.099168,88.283718 c 0,0 3.008415,2.253882 3.008415,2.253882 v 0 c 1.569025,0.217324 3.139999,0.420045 4.707257,0.650071 7.027786,1.257707 13.954512,3.013035 20.954434,4.410628 1.725449,0.326604 3.445285,0.684408 5.176348,0.979813 2.709508,0.462375 9.212606,1.37483 11.747079,1.721117 9.591217,1.310463 19.205083,2.440901 28.829399,3.479661 4.274934,0.44692 8.547585,0.91622 12.8248,1.34076 4.45196,0.44188 21.94688,2.05773 26.4038,2.43986 4.04713,0.347 8.09937,0.63238 12.14679,0.97597 9.04349,0.76773 14.41087,1.30445 23.38084,2.16239 3.43679,0.28332 6.87085,0.60198 10.31037,0.84996 4.12988,0.29777 11.34753,0.67665 15.69887,0.84659 1.68569,0.0658 3.37284,0.0878 5.05885,0.14477 2.81495,0.0951 2.61425,0.0954 4.85252,0.24485 z" />
    <path
       style="fill:#000000;stroke-width:0.264583"
       id="path17"
       d="m 197.80467,86.62282 c -8.44472,0.131794 -16.89197,0.104439 -25.33791,0.131278 -10.72293,-0.03416 -21.44692,0.207881 -32.16966,0.06357 -8.0971,-0.108974 -9.2003,-0.223041 -17.24395,-0.588872 -7.68263,-0.400751 -15.36269,-0.84845 -23.04548,-1.24628 C 95.665567,84.757672 92.620588,84.631791 88.337214,84.365202 86.736607,84.265584 85.137452,84.143881 83.537572,84.033219 73.886416,83.33891 64.497087,80.913884 55.10694,78.729963 49.747005,77.592493 44.472058,76.097904 39.136116,74.862438 36.034839,74.267702 32.911018,73.797577 29.773253,73.445194 28.45935,73.309619 27.138995,73.216012 25.838202,72.977382 25.206023,72.86141 24.171545,72.628225 23.585651,72.500063 21.465927,72.031057 19.400353,71.363871 17.351296,70.654801 16.629531,70.376562 16.98104,70.52017 16.29616,70.225461 c 0,0 3.065317,2.416038 3.065317,2.416038 v 0 c 0.685803,0.271637 0.336631,0.140959 1.04785,0.391149 2.030691,0.6697 4.081796,1.275263 6.169204,1.744999 0.950809,0.220702 1.415251,0.346024 2.328558,0.50242 1.286928,0.220374 2.592176,0.29124 3.890391,0.4128 3.111674,0.326993 6.20731,0.79838 9.276728,1.406321 5.194765,1.160592 10.349619,2.499926 15.567342,3.561064 9.400183,2.12575 18.784824,4.599678 28.43811,5.244248 1.570609,0.08743 3.140622,0.186325 4.711827,0.262292 4.48968,0.21707 6.851933,0.262914 11.440213,0.448077 7.6122,0.307195 15.22004,0.708568 22.82895,1.086067 2.8386,0.122225 5.67599,0.276961 8.51581,0.366678 6.52307,0.206076 11.04905,0.190799 17.59149,0.230863 7.87481,0.04822 15.74961,0.09703 23.6244,0.146163 4.00182,0.03264 8.10958,0.06239 12.11524,0.108874 2.0503,0.02379 7.17044,0.08874 9.37688,0.156011 2.22654,0.06789 2.86101,0.114777 4.66839,0.226224 z" />
    <path
       style="fill:#000000;stroke-width:0.264583"
       id="path18"
       d="m 185.90753,66.590653 c -2.24169,-0.235416 -4.48545,-0.451858 -6.72507,-0.706242 -3.128,-0.355293 -6.25103,-0.753057 -9.37736,-1.122744 -8.6064,-1.017701 -14.70941,-1.75392 -23.39991,-2.595427 -9.66403,-0.935773 -15.35307,-1.327523 -25.04412,-2.076019 -4.15609,-0.297053 -8.31239,-0.591309 -12.46828,-0.891159 C 97.441857,58.372874 96.230418,58.30907 84.904367,57.335602 74.352972,56.428713 63.812126,55.402942 53.264241,54.456604 50.328218,54.212299 47.393476,53.95206 44.45617,53.723682 33.318704,52.857735 22.166379,52.418924 11.001256,52.124956 6.3524645,52.01667 1.7029667,51.944058 -2.9464423,51.868839 c 0,0 2.90434117,2.110349 2.90434117,2.110349 v 0 c 4.50487843,-0.07168 9.01039783,-0.09844 13.51577013,-0.05046 4.671503,0.06066 6.43141,0.0666 11.228768,0.203467 10.140439,0.289306 20.270011,0.87562 30.382984,1.671601 3.235881,0.266213 6.472597,0.522435 9.707642,0.798639 15.317216,1.307772 5.834311,0.574635 21.648459,1.86907 12.12714,0.992642 11.605723,0.922369 23.891368,1.789522 4.14937,0.292873 8.29879,0.585203 12.44819,0.877806 9.2237,0.720341 15.8902,1.188053 25.09052,2.117193 13.66517,1.380045 27.27809,3.257018 40.8395,5.421707 z" />
    <path
       style="fill:#000000;stroke-width:0.264583"
       id="path19"
       d="m 193.96073,53.839048 c -2.81744,-0.437679 -3.40761,-0.511492 -7.0277,-1.240678 -5.49462,-1.106766 -11.95006,-2.584741 -17.37159,-3.779499 -10.15965,-2.238912 -8.25059,-1.813856 -18.12428,-3.901649 -6.93542,-1.429139 -13.91502,-2.66822 -20.9415,-3.558924 -2.1255,-0.269436 -4.25744,-0.485486 -6.38742,-0.716759 -5.76017,-0.625432 -7.22297,-0.754507 -12.93135,-1.314915 -1.91708,-0.172432 -3.83326,-0.355275 -5.75125,-0.517298 -3.17715,-0.268385 -6.534694,-0.521351 -9.725032,-0.687871 -4.474059,-0.233524 -8.95192,-0.299588 -13.430626,-0.370115 -5.418177,-0.06652 -10.841452,-0.06271 -16.253081,-0.375524 -3.595793,-0.207851 -4.60634,-0.333282 -8.232852,-0.66808 -6.400339,-0.600843 -12.741608,-1.68945 -19.12929,-2.394694 -1.057603,-0.116766 -2.117582,-0.21091 -3.17637,-0.316365 -1.033092,-0.07722 -2.065928,-0.157938 -3.099274,-0.231669 -3.18267,-0.227094 -2.727555,-0.151485 -5.887976,-0.46528 -2.382871,-0.236591 -4.759457,-0.536316 -7.136614,-0.823262 -1.929374,-0.282496 -3.878195,-0.396962 -5.813632,-0.61858 -0.663144,-0.05647 -1.3232,-0.14115 -1.978704,-0.255204 0,0 3.128914,2.349648 3.128914,2.349648 v 0 c 0.662427,0.09578 1.326827,0.179674 1.993944,0.235739 1.866563,0.140311 3.73608,0.24679 5.596275,0.465079 3.308115,0.34018 6.614644,0.721426 9.931132,0.972378 0.980414,0.07418 1.962746,0.120677 2.943596,0.188836 1.028239,0.07145 2.05573,0.153323 3.083597,0.229984 1.049051,0.101052 2.099143,0.191841 3.147155,0.303157 6.346441,0.674092 12.653817,1.683176 19.007748,2.294358 3.015451,0.286179 5.29912,0.531392 8.313822,0.707057 5.377609,0.313353 10.769359,0.193108 16.152146,0.290904 9.55531,0.155667 19.109112,0.502938 28.627722,1.400198 13.35747,1.257962 26.72649,2.668752 39.88748,5.347356 8.1792,1.675281 9.65954,1.938827 18.00803,3.818613 7.89111,1.776798 15.73479,3.752402 23.62293,5.540528 0.67899,0.153916 1.36319,0.283834 2.04478,0.425752 z" />
    <path
       style="fill:#ff0000;stroke-width:0.264583"
       id="path21"
       d="m 23.596118,174.9769 c -0.496482,1.3148 -1.201444,2.5506 -2.045852,3.67377 -0.234973,0.31254 -0.492676,0.60734 -0.739014,0.911 -1.18417,1.29531 -2.610675,2.37445 -4.168405,3.18541 -0.959985,0.49978 -1.543847,0.69198 -2.541188,1.07372 -0.96905,0.2899 -1.975619,0.71589 -3.01491,0.5978 -0.266785,-0.0303 -1.002841,-0.35584 -0.777827,-0.20934 3.893917,2.53517 2.967746,1.75561 1.910517,0.72543 -0.93779,-1.28546 -1.720142,-2.80108 -1.77432,-4.42671 -0.0079,-0.23803 0.02651,-0.47559 0.03977,-0.71339 0.20373,-0.68975 0.587124,-1.42669 1.408133,-1.46519 0.568942,-0.0267 0.742752,0.16242 1.247747,0.42756 -0.829237,-0.45263 -1.604474,-1.02262 -2.48771,-1.35788 -0.373912,-0.14193 0.626204,0.49835 0.924664,0.76458 0.721258,0.64336 1.297452,1.2672 1.972008,1.96397 1.357089,1.40177 0.715713,0.74848 2.070924,2.10811 1.702795,1.70699 3.446819,3.37119 5.283772,4.93325 0.773225,0.65555 1.583368,1.2641 2.428087,1.8237 0,0 3.640326,1.41431 3.640326,1.41431 v 0 c -0.891706,-0.53927 -1.739338,-1.14537 -2.541105,-1.81212 -1.863928,-1.55508 -3.627702,-3.22066 -5.353397,-4.9275 -1.044199,-1.03494 -2.046201,-2.1029 -3.068058,-3.15903 -0.171999,-0.17777 -1.534267,-1.54953 -1.791622,-1.7162 -1.335273,-0.86476 -2.739453,-1.61816 -4.10918,-2.42724 -0.2584724,-0.0851 -0.5064114,-0.21426 -0.7754177,-0.25535 -1.2869344,-0.19659 -1.9584911,0.85401 -2.2847853,1.90839 -0.016671,0.25909 -0.054653,0.5177 -0.050016,0.77729 0.030181,1.68975 0.799125,3.26593 1.6883191,4.66123 0.2107531,0.25022 0.358774,0.57112 0.632259,0.75066 1.0991379,0.72156 3.0886419,2.41915 4.8887949,2.45032 1.050679,0.0182 2.04601,-0.41474 3.019508,-0.74036 0.910926,-0.37211 1.688539,-0.6652 2.564773,-1.12869 1.592473,-0.84235 3.046147,-1.9568 4.268165,-3.27804 0.258186,-0.30878 0.529177,-0.60729 0.774557,-0.92634 0.871254,-1.13284 1.59685,-2.3821 2.191024,-3.67931 z" />
    <path
       style="fill:#ff0000;stroke-width:0.264583"
       id="path22"
       d="m 198.9483,157.22756 c -0.93266,1.48104 -2.05545,2.84117 -3.14603,4.20894 -1.06304,1.37132 -2.16095,2.71338 -3.31993,4.00469 -0.29904,0.25847 -0.55525,0.71609 -0.98902,0.77747 -0.09,0.0127 -0.19097,0.0108 -0.27074,-0.0328 -0.0877,-0.0479 -0.28835,-0.26942 -0.19932,-0.224 1.06167,0.54165 2.08934,1.14749 3.13401,1.72124 -0.0634,-0.12957 -0.14252,-0.25257 -0.19025,-0.38869 -0.33779,-0.96341 -0.31808,-2.31398 -0.33961,-3.33252 0.0151,-0.52276 -0.005,-1.11728 0.26809,-1.59096 0.24486,-0.42432 0.712,-0.61232 1.13239,-0.79845 0.43357,-0.15787 0.88346,-0.26191 1.34134,-0.31638 0.14058,-0.0167 0.28203,-0.0484 0.42313,-0.0367 0.32671,0.027 0.54348,0.16492 0.83075,0.30323 -5.36461,-3.04598 -3.11193,-2.10891 -2.27636,-0.9284 0.37333,0.52744 0.66164,1.11321 0.94891,1.6893 0.46032,1.08642 0.9678,2.14836 1.64149,3.11915 0.0864,0.10342 0.17288,0.20684 0.25932,0.31026 0,0 3.62441,1.51769 3.62441,1.51769 v 0 c -0.0943,-0.0918 -0.18853,-0.18359 -0.28279,-0.27538 -0.73959,-0.92058 -1.26822,-1.97685 -1.7139,-3.06697 -0.27155,-0.59873 -0.56525,-1.17485 -0.90072,-1.74084 -0.0961,-0.16219 -0.42687,-0.73365 -0.6229,-0.85618 -1.22958,-0.76857 -2.50798,-1.45613 -3.76197,-2.1842 -0.1534,-0.0436 -0.30292,-0.10445 -0.4602,-0.13082 -0.78666,-0.13186 -1.58793,0.17885 -2.30955,0.44613 -0.16924,0.0885 -0.34739,0.16167 -0.50771,0.26543 -0.95321,0.61686 -1.10128,1.45417 -1.09468,2.52189 0.0396,1.3054 0.0216,2.64344 0.37926,3.90927 1.18632,0.76996 2.34894,1.57774 3.55895,2.30989 0.1779,0.10765 0.51647,0.023 0.67863,-0.049 0.43495,-0.19322 0.70897,-0.59821 1.02331,-0.93298 1.12049,-1.32789 2.21054,-2.68087 3.28168,-4.04886 1.09805,-1.40091 2.21716,-2.78689 3.28955,-4.20678 z" />
    <path
       style="fill:#ff0000;stroke-width:0.264583"
       id="path23"
       d="m 179.02676,134.46608 c -1.28325,2.41079 -2.87483,4.64479 -4.49678,6.83642 -1.19901,1.6179 -2.6847,3.05768 -4.56529,3.8516 -0.2255,0.0952 -0.4665,0.1484 -0.69975,0.22259 -1.28788,-0.08 -3.09969,-0.26119 2.53896,1.54187 0.22919,0.0733 -0.2097,-0.44041 -0.24788,-0.67799 -0.0654,-0.40688 -0.0623,-0.82278 -0.0595,-1.23488 0.006,-0.86079 0.13621,-2.10184 0.213,-2.953 0.3204,-2.47723 0.73513,-4.93949 1.04627,-7.41803 0.0394,-0.27732 0.1385,-1.06667 0.2265,-1.38367 0.0242,-0.0874 0.0332,-0.21329 0.11811,-0.24497 0.0606,-0.0226 0.0813,0.21901 0.0224,0.19258 -1.10943,-0.49725 -2.09535,-1.28246 -3.25667,-1.64221 -0.23189,-0.0718 0.13884,0.46525 0.20826,0.69787 0.63937,2.42385 1.04118,4.90737 1.74944,7.31356 0.13147,0.44664 0.2848,0.88655 0.4272,1.32982 0.32185,0.82829 0.53358,1.49413 1.00566,2.25001 0.67046,1.07353 1.62846,1.9695 2.64246,2.71278 0.36817,0.26988 0.76149,0.50367 1.14224,0.75551 4.79377,2.71669 2.88494,1.77835 5.59856,3.06161 0,0 -2.94724,-2.34951 -2.94724,-2.34951 v 0 c -1.87404,-0.91113 -1.53722,-0.79103 0.85177,0.65216 -0.38116,-0.23885 -0.77383,-0.46024 -1.14347,-0.71655 -1.00468,-0.69663 -1.99269,-1.54527 -2.6866,-2.56323 -0.51066,-0.74913 -0.718,-1.37138 -1.06676,-2.20664 -0.14976,-0.44001 -0.31091,-0.87632 -0.44929,-1.32005 -0.73711,-2.36361 -1.17671,-4.81231 -1.63731,-7.24044 -0.3337,-2.06101 0.0248,-0.99457 -3.66866,-3.05427 -0.0917,-0.0512 -0.18126,0.11839 -0.23751,0.2071 -0.12174,0.19195 -0.18402,0.83107 -0.20022,0.96073 -0.0338,0.27051 -0.0591,0.54202 -0.0887,0.81303 -0.24249,2.49945 -0.65261,4.97607 -0.96639,7.467 -0.13691,1.39793 -0.34643,2.8276 -0.31802,4.23586 0.006,0.29649 -0.14075,0.70026 0.0913,0.88497 3.02652,2.40959 2.43868,2.38495 4.30017,2.09115 0.23107,-0.0967 0.46886,-0.17861 0.69322,-0.28997 1.86535,-0.92581 3.38065,-2.35115 4.56912,-4.04972 1.61037,-2.23446 3.16713,-4.50724 4.72694,-6.77677 z" />
    <path
       style="fill:#ff0000;stroke-width:0.264583"
       id="path24"
       d="m 53.213396,22.078148 c -0.701508,1.980682 -1.638837,3.861792 -2.706013,5.667923 -0.676195,0.941284 -1.571553,1.721241 -2.726454,1.997569 -0.677198,0.162031 -0.918128,0.0815 -1.601224,0.01646 -0.66697,-0.171746 -0.846881,-0.187735 -1.467294,-0.461875 -0.208153,-0.09198 -0.804635,-0.425222 -0.607333,-0.311822 4.682964,2.691556 2.999446,1.854269 1.864386,0.806252 -0.391787,-0.447572 -0.85019,-0.995072 -0.688649,-1.643274 0.112551,-0.451628 0.393552,-0.761175 0.656415,-1.131687 0.853882,-0.910791 1.726242,-1.90315 2.841549,-2.506481 0.17776,-0.09616 0.368911,-0.165197 0.553365,-0.247796 0.186375,-0.03739 0.36911,-0.117346 0.559128,-0.112167 0.20383,0.0056 0.405911,0.06637 0.594619,0.143614 0.222343,0.09101 0.839288,0.467877 0.626544,0.356257 -0.879705,-0.461552 -1.690679,-1.076187 -2.627696,-1.406197 -0.323236,-0.113842 0.493131,0.477062 0.719669,0.734205 0.247918,0.281412 0.467908,0.586248 0.701863,0.879373 0.98501,1.301472 0.488535,0.647573 1.489491,1.961641 0,0 3.472452,1.493338 3.472452,1.493338 v 0 c -0.994992,-1.306217 -0.50538,-0.654162 -1.469194,-1.955895 -0.118301,-0.157984 -1.129946,-1.544556 -1.337247,-1.688221 -1.276466,-0.884629 -2.630839,-1.652624 -3.976668,-2.42766 -0.648801,-0.373632 -1.317546,-0.390549 -1.998279,-0.120921 -0.192876,0.0987 -0.392952,0.184434 -0.578626,0.296093 -1.120605,0.673902 -2.008557,1.696994 -2.896896,2.634636 -0.324387,0.440007 -0.622205,0.763768 -0.794856,1.290707 -0.245123,0.748124 0.09675,1.390161 0.55068,1.961243 1.383062,1.452425 2.783263,1.977851 4.772514,3.099528 0.65345,0.368461 1.414709,0.519406 2.144152,0.637942 0.757116,0.01111 0.962948,0.07308 1.697956,-0.150804 1.206748,-0.367583 2.126122,-1.217851 2.820035,-2.241855 1.040746,-1.841563 1.992587,-3.725278 2.845718,-5.661388 z" />
    <path
       style="fill:#ff0000;stroke-width:0.264583"
       id="path25"
       d="m 49.431934,26.051059 c 0.464693,1.150592 1.13298,2.178974 1.851628,3.182666 0.600366,0.803029 0.302332,0.416859 0.89225,1.159946 0,0 3.566935,1.519656 3.566935,1.519656 v 0 C 55.130432,31.184402 55.435642,31.564601 54.829675,30.770676 54.134853,29.805217 53.4564,28.83358 53.01276,27.720954 Z" />
    <path
       style="fill:#ff0000;stroke-width:0.264583"
       id="path26"
       d="M 55.629748,34.089951 C 52.908607,31.085766 50.928518,27.500196 48.879471,24.027322 47.03106,20.989868 45.348765,17.837321 43.268918,14.947148 42.631545,14.033147 41.742971,13.390102 40.887549,12.704211 40.728823,12.568116 40.570097,12.43202 40.41137,12.295924 c 0,0 -3.603376,-1.464445 -3.603376,-1.464445 v 0 c 0.154215,0.1376 0.308428,0.275199 0.462643,0.412798 0.836721,0.725517 1.796338,1.30551 2.487474,2.190949 2.249633,2.855084 4.000487,6.066295 5.89506,9.157378 1.596834,2.769557 3.215161,5.510821 5.010332,8.157797 0.294093,0.433642 0.583944,0.870535 0.894255,1.292723 0.13403,0.182353 0.291669,0.34612 0.437504,0.519178 z" />
    <path
       style="fill:#ff0000;stroke-width:0.264583"
       id="path27"
       d="m -2.3718986,165.2653 c 2.90715232,5.31127 6.9930039,9.82685 10.9754021,14.33884 4.5640485,5.10019 9.3032585,10.03927 13.9303045,15.08156 1.527547,1.65747 2.986906,3.37634 4.543118,5.0071 0,0 3.513725,1.45786 3.513725,1.45786 v 0 c -1.675043,-1.63951 -3.221815,-3.40131 -4.824242,-5.11094 -4.709287,-5.06553 -9.527482,-10.02999 -14.158538,-15.16792 -3.5410425,-4.06924 -7.2404411,-8.09552 -9.8554969,-12.8521 -0.1999037,-0.36361 -0.3610183,-0.74723 -0.5415274,-1.12085 z" />
    <path
       style="fill:#ff0000;stroke-width:0.264583"
       id="path28"
       d="m 203.95632,169.42559 c -6.38875,-4.50803 -12.12286,-9.84034 -17.87227,-15.11555 -3.25428,-3.03506 -6.6243,-5.97354 -9.56069,-9.32867 -1.34584,-1.53777 -1.82437,-2.23469 -3.05507,-3.86713 -1.93769,-2.65166 -3.63807,-5.46049 -5.31259,-8.28172 -0.45823,-0.76489 -0.24241,-0.40966 -0.64579,-1.06671 0,0 -3.57366,-1.57045 -3.57366,-1.57045 v 0 c 0.45002,0.6688 0.21013,0.30643 0.71688,1.08896 1.79837,2.83943 3.56006,5.70427 5.54474,8.42036 1.34616,1.80826 1.5978,2.22307 3.09365,3.92243 3.00024,3.40842 6.46327,6.36277 9.78007,9.45061 5.64308,5.15754 11.25206,10.3753 17.38148,14.96134 z" />
    <path
       style="fill:#0000ff;stroke-width:0.264583"
       id="path29"
       d="m 60.517256,178.08028 c 0.356066,2.18298 0.499817,4.41011 0.375425,6.62036 -0.03244,0.57636 -0.09622,1.15051 -0.144325,1.72577 -0.293047,1.7702 -0.380918,3.6086 -0.9267,5.33022 -0.05411,0.17069 -0.358799,0.39814 -0.208296,0.49516 1.037468,0.66881 2.244749,1.02745 3.367125,1.54117 -0.103775,-0.22019 -0.241721,-0.42733 -0.311325,-0.6606 -0.218302,-0.73162 -0.398619,-2.23427 -0.470072,-2.91027 -0.113959,-1.07811 -0.262911,-3.19406 -0.30104,-4.22204 -0.02811,-0.75803 -0.02231,-1.51694 -0.03345,-2.27541 0.09078,-1.66438 -0.03644,-3.38752 0.373848,-5.02324 0.150998,-0.60199 0.353463,-1.13664 0.867125,-1.51856 0.200178,-0.14885 0.455348,-0.20387 0.683024,-0.3058 0.295317,-0.008 0.591111,-0.0429 0.885952,-0.0243 0.712846,0.0451 1.585513,0.24605 2.267093,0.42092 1.217673,0.3124 2.41328,0.71118 3.607879,1.10012 0.327716,0.11703 0.658477,0.22586 0.983147,0.35109 0.280151,0.10805 1.087792,0.50354 0.830659,0.34849 -0.828267,-0.49945 -1.656707,-1.01349 -2.549681,-1.38507 -0.265263,-0.11038 0.439719,0.37272 0.631328,0.58681 0.461513,0.51565 0.528783,0.74095 0.829921,1.33726 0.03838,0.20208 0.160023,0.40552 0.115128,0.60625 -0.10183,0.45533 -0.92007,0.71815 -1.194329,0.81491 -1.294389,0.45664 -2.673617,0.65525 -4.020778,0.88018 -0.888955,0.23417 -1.882486,0.084 -2.740882,0.45725 -0.186684,0.0812 -0.625051,0.43714 -0.205287,0.71678 1.230201,0.81953 2.593091,1.41984 3.889637,2.12977 0.610086,0.13293 1.220618,0.24396 1.791896,0.5062 0.168354,0.0773 0.651369,0.35304 0.49096,0.26039 -3.358499,-1.93994 -3.874031,-2.287 -2.67167,-1.49753 0.129837,0.0356 0.185786,0.17569 0.296508,0.23687 0.01622,0.009 0.03704,-0.003 0.05553,-0.002 0.04116,0.002 -0.06083,0.0558 -0.08894,0.0859 -0.03956,0.0424 -0.0755,0.0881 -0.113244,0.13217 -0.766654,1.61672 2.780239,2.19653 3.62563,2.6699 0.168413,0.0943 0.365922,0.12312 0.550418,0.17983 0.82038,0.23812 0.413986,0.1156 1.219277,0.36726 1.367599,0.46088 3.590253,1.74521 -2.165022,-1.36721 -0.04307,-0.0233 0.09584,0.0618 0.09649,0.11078 7.94e-4,0.0547 -0.04815,0.10399 -0.09322,0.13493 -0.130353,0.0895 -0.280782,0.14546 -0.421172,0.21818 -0.226523,0.091 -0.447797,0.19634 -0.679569,0.27298 -1.128371,0.37313 -2.323828,0.55167 -3.492804,0.73695 -0.373163,0.0591 -2.297491,0.3457 -2.692556,0.4047 -1.342647,0.20045 -2.693342,0.33511 -4.046022,0.44398 0,0 3.148838,2.24187 3.148838,2.24187 v 0 c 1.328237,-0.14973 2.655057,-0.31354 3.975963,-0.51931 0.289517,-0.0449 2.42158,-0.3757 2.682192,-0.41704 1.215721,-0.19286 2.46331,-0.3473 3.635711,-0.74134 0.252304,-0.0848 0.493228,-0.20029 0.739841,-0.30044 0.185745,-0.11768 0.396227,-0.20328 0.557239,-0.35303 0.03952,-0.0368 0.463822,-0.62374 0.248867,-0.77356 -1.702244,-1.18647 -2.845345,-1.93417 -4.57069,-2.47202 -0.284605,-0.0879 -0.937451,-0.28624 -1.213909,-0.38544 -0.187669,-0.0673 -0.720471,-0.33298 -0.556265,-0.21989 0.961917,0.66247 1.988828,1.22622 2.959865,1.87525 0.03522,0.0235 -0.08796,0.0384 -0.125664,0.0191 -0.02283,-0.0117 0.01072,-0.0502 0.01609,-0.0752 0.371549,-0.41903 0.6199,-0.60895 0.112723,-1.05747 -1.381985,-1.06415 -2.917725,-1.99214 -4.553609,-2.60596 -0.585073,-0.21954 -1.204452,-0.30936 -1.795195,-0.51028 0.947856,0.58467 1.957289,1.07964 2.843572,1.75401 0.106624,0.0811 -0.250534,0.11835 -0.384508,0.11709 -0.0638,-5.3e-4 0.09091,-0.0945 0.149693,-0.11931 0.820457,-0.34632 1.750327,-0.27453 2.599587,-0.49997 0.904838,-0.16485 1.913887,-0.33503 2.805266,-0.55506 0.854953,-0.21104 2.510464,-0.53761 2.81787,-1.58434 0.0678,-0.23088 -0.05551,-0.47804 -0.08327,-0.71706 -0.282866,-0.63463 -0.357407,-0.89899 -0.794583,-1.4648 -1.537886,-1.9904 -4.124566,-2.90366 -6.44211,-3.69486 -1.198983,-0.37823 -2.399283,-0.77323 -3.62296,-1.06604 -0.687491,-0.1645 -1.655361,-0.37064 -2.377194,-0.36033 -0.333081,0.005 -0.660038,0.0906 -0.990058,0.1359 -0.253185,0.14701 -0.539885,0.2475 -0.759558,0.44105 -0.541723,0.47731 -0.748342,1.05037 -0.894654,1.74188 -0.35728,1.6886 -0.163068,3.44489 -0.251817,5.15126 0.03956,3.41803 0.109371,6.85006 0.64221,10.23368 1.241978,0.60324 2.410558,1.38996 3.725934,1.80972 0.187828,0.0599 0.122094,-0.3754 0.167539,-0.56725 0.423043,-1.78593 0.554776,-3.62884 0.82889,-5.43917 0.05898,-0.57792 0.135233,-1.15434 0.176945,-1.73376 0.158041,-2.19542 -0.02667,-4.38979 -0.140454,-6.58199 z" />
    <path
       style="fill:#0000ff;stroke-width:0.264583"
       id="path30"
       d="m 66.576693,24.602904 c 0.352081,2.494289 0.476345,5.015562 0.56066,7.531241 0.0408,1.959931 -0.281186,1.529554 3.561787,2.309231 0.21233,0.04308 0.02267,-0.432721 0.03197,-0.649176 0.064,-1.489451 -0.0099,-0.08891 0.07892,-1.657594 0.151347,-1.918449 0.44449,-3.823187 0.782035,-5.716735 0.12102,-0.639491 0.236953,-1.290439 0.498829,-1.891282 0.04597,-0.105471 0.223507,-0.493294 0.389038,-0.541326 0.124092,-0.03601 0.257638,0.02009 0.386459,0.03014 0.976717,0.128781 1.907249,0.461949 2.85225,0.72326 0.517118,0.142992 1.212353,0.314034 1.734754,0.444997 0.730747,0.199164 1.451626,0.439523 2.13016,0.779505 0.182134,0.09126 0.710372,0.399225 0.533379,0.298355 -3.066444,-1.747586 -3.80425,-2.348802 -2.612842,-1.417496 0.862272,0.891738 0.306247,1.543334 -0.272362,2.431638 -0.699966,0.882063 -1.47837,1.819204 -2.540267,2.280478 -0.165892,0.07206 -0.343094,0.114634 -0.514641,0.17195 -0.864683,0.192641 -1.72515,0.134951 -2.583792,-0.03462 -0.69542,-0.22207 -1.421884,-0.320337 -2.143471,-0.413679 -0.402992,0.05609 -1.438376,-0.319894 -1.775076,-0.19957 -0.08254,0.0295 -0.135957,0.110681 -0.203936,0.166024 0.0011,0.174455 -0.07954,0.369868 0.0034,0.523364 0.182496,0.337854 1.169633,0.960903 1.416611,1.106659 0.819755,0.483791 3.495233,2.189875 5.118441,2.822877 0.34191,0.133334 0.695605,0.234212 1.043408,0.351316 1.275945,0.436184 2.615798,0.607756 3.926641,0.895694 0.148196,0.03255 0.562899,0.206687 0.43954,0.118346 -1.077781,-0.771827 -2.215806,-1.455854 -3.32371,-2.183781 -0.217675,1.88e-4 -0.435707,-0.01193 -0.653026,5.29e-4 -0.36464,0.02096 -0.727498,0.06601 -1.091186,0.0997 -1.582576,0.146579 -3.160943,0.329305 -4.744165,0.469738 -1.468061,0.174276 -2.944849,0.251786 -4.415903,0.390946 0,0 3.162988,2.25003 3.162988,2.25003 v 0 c 1.44704,-0.154001 2.898589,-0.264957 4.343693,-0.438814 1.178761,-0.114306 2.355877,-0.249434 3.53477,-0.361045 0.783333,-0.07416 1.571509,-0.09004 2.354638,-0.166307 0.296281,-0.02885 0.588981,-0.08694 0.883473,-0.130413 -1.058077,-0.768789 -2.084991,-1.582407 -3.17423,-2.30637 -0.113207,-0.07524 -0.267774,-0.04695 -0.401674,-0.07035 -0.245169,-0.04286 -0.490972,-0.0822 -0.735529,-0.128429 -1.049819,-0.198437 -2.094031,-0.433437 -3.106412,-0.779978 -0.343876,-0.129061 -0.6936,-0.243504 -1.031629,-0.387186 -0.961538,-0.40871 -3.306445,-1.763601 1.434373,0.941575 0.278169,0.158726 -0.54714,-0.333166 -0.816687,-0.506129 -0.189085,-0.121335 -0.352023,-0.289145 -0.558962,-0.376616 -0.08459,-0.03576 -0.182946,0.01622 -0.274417,0.02434 0.593809,0.08924 1.193683,0.146492 1.789186,0.225025 0.727046,0.106672 1.438921,0.271627 2.15442,0.43498 0.892712,0.118669 1.791531,0.09433 2.662597,-0.16012 0.184066,-0.0754 0.374875,-0.136086 0.552196,-0.226211 1.074905,-0.546335 1.857606,-1.537891 2.602939,-2.449549 0.43696,-0.638575 1.056424,-1.379384 0.905836,-2.217714 -0.0485,-0.269976 -0.193323,-0.458018 -0.331965,-0.684986 -1.307526,-1.332071 -0.281614,-0.340725 -4.058526,-2.503365 -0.829056,-0.474715 -1.770181,-0.722527 -2.682226,-0.976699 -0.918964,-0.233486 -0.799857,-0.1967 -1.73277,-0.461023 -0.759857,-0.215291 -1.526775,-0.480717 -2.313516,-0.583686 -0.228608,-0.02992 -0.460373,-0.02615 -0.690558,-0.03922 -0.183202,0.05925 -0.384349,0.07894 -0.549605,0.17775 -0.196382,0.117422 -0.367345,0.506936 -0.441161,0.695944 -0.248158,0.635389 -0.359924,1.31356 -0.466,1.98351 -0.303956,1.909833 -0.652127,3.816111 -0.81216,5.74518 -0.04019,0.545383 -0.07076,1.091467 -0.113578,1.636652 -0.01619,0.206356 -0.218548,0.485875 -0.05932,0.618135 4.210389,3.497297 3.51219,3.229351 3.337856,1.230614 -0.195884,-2.492562 -0.359822,-4.989012 -0.456088,-7.487421 z" />
    <path
       style="fill:#0000ff;stroke-width:0.264583"
       id="path31"
       d="m 14.078634,125.48428 c 0.673043,3.28994 1.22012,6.60884 1.542561,9.95203 0.07644,0.98384 0.148501,1.97516 0.06535,2.96154 -0.01034,0.12261 -0.08401,0.80664 -0.185136,0.87655 -0.05693,0.0393 -0.03092,-0.13491 -0.04638,-0.20237 1.043372,0.49107 2.007019,1.21162 3.130114,1.47322 0.295892,0.0689 -0.26778,-0.54654 -0.373872,-0.83123 -0.688958,-1.84874 -0.96381,-3.81318 -1.233178,-5.756 -0.313049,-2.53032 -0.384087,-5.08073 -0.382659,-7.62762 -0.0089,-0.91249 -0.02879,-1.85771 0.473528,-2.66029 0.07267,-0.1161 0.167238,-0.21696 0.250856,-0.32544 0.111414,-0.0541 0.211028,-0.14967 0.334242,-0.16243 0.303777,-0.0314 1.112421,0.27111 1.28858,0.33656 0.96424,0.35822 1.882067,0.81447 2.799538,1.27572 0.769591,0.40341 1.04375,0.53912 1.793617,0.96327 0.259462,0.14676 1.033696,0.5942 0.772693,0.4502 -0.876626,-0.48365 -1.71968,-1.03067 -2.619709,-1.46923 -0.229948,-0.11205 0.409129,0.30868 0.59615,0.48319 0.200202,0.18681 0.375258,0.39887 0.562887,0.59831 0.161948,0.26636 1.130425,1.19627 0.798698,1.58279 -0.15597,0.18174 -0.407191,0.25748 -0.629856,0.34565 -0.919562,0.36414 -1.811126,0.52445 -2.77556,0.7459 -0.972005,0.23337 -1.968945,0.34486 -2.94391,0.5631 -0.311925,0.0698 -0.636931,0.11552 -0.924236,0.25562 -0.148317,0.0723 -0.466474,0.25541 -0.339255,0.3605 2.974152,2.45687 2.604545,2.24307 4.877779,2.75196 2.423383,0.51625 4.888958,0.78061 7.338066,1.1413 0.841906,0.14487 1.216392,0.17924 2.003665,0.41706 0.216551,0.0654 0.830356,0.3518 0.636718,0.23485 -1.007026,-0.5583 -2.014051,-1.11659 -3.021079,-1.67489 0.03005,0.0366 0.107241,0.0657 0.09016,0.10987 -0.02895,0.0749 -0.126597,0.0988 -0.189896,0.14813 -0.812152,0.45594 -1.589064,1.09064 -2.513897,1.3078 -0.181631,0.0426 -0.369264,0.0536 -0.553896,0.0805 -0.182431,0.0118 -0.364638,0.0432 -0.547294,0.0355 -0.303681,-0.0127 -0.903729,-0.16451 -1.171922,-0.23501 -0.671323,-0.17645 -1.334409,-0.38774 -1.999913,-0.58468 -1.379379,-0.50706 -2.821552,-0.76824 -4.265875,-1.01006 -1.396172,-0.20448 -2.802871,-0.33387 -4.21248,-0.39358 -0.132271,-0.004 -0.264541,-0.008 -0.396811,-0.0117 0,0 3.17403,2.3189 3.17403,2.3189 v 0 c 0.127917,0.003 0.255835,0.006 0.383752,0.009 1.377091,0.0524 2.75315,0.15783 4.113868,0.38383 1.453752,0.26098 2.883466,0.60239 4.283263,1.07763 1.244308,0.35713 2.520817,0.86247 3.832965,0.64272 0.198605,-0.0439 0.401254,-0.0723 0.59581,-0.13157 0.941732,-0.28693 1.796304,-0.9427 2.630387,-1.44344 0.127667,-0.14868 0.300493,-0.26828 0.383003,-0.44603 0.05922,-0.12756 0.135081,-0.34107 0.01968,-0.42144 -2.739768,-1.90831 -3.538765,-2.29321 -6.293543,-2.67398 -2.452544,-0.34918 -4.921286,-0.63652 -7.336889,-1.19729 -0.357422,-0.11262 -1.331073,-0.60888 -1.072268,-0.33785 0.742265,0.77731 1.676625,1.35331 2.587197,1.9243 0.07225,0.0453 0.05757,-0.17962 0.133642,-0.21815 0.261306,-0.13237 0.551448,-0.20068 0.835372,-0.27271 0.313344,-0.0795 2.709966,-0.55263 2.916816,-0.59388 0.971868,-0.21584 3.136143,-0.50984 3.803284,-1.38728 0.395735,-0.52048 0.02841,-0.86896 -0.238352,-1.26444 -0.147302,-0.21837 -0.306922,-0.42818 -0.460383,-0.64227 -0.178135,-0.21448 -0.34231,-0.44137 -0.534405,-0.64345 -1.191329,-1.25322 -3.427052,-2.22561 -4.543121,-2.88325 -0.834575,-0.49178 -1.696684,-0.9359 -2.55868,-1.37689 -0.931212,-0.45274 -1.873792,-0.93428 -2.868244,-1.23747 -0.522806,-0.15939 -1.00046,-0.3141 -1.534698,-0.12247 -0.15866,0.0569 -0.275356,0.1945 -0.413033,0.29175 -0.801616,1.11591 -0.855513,1.89103 -0.778702,3.24605 0.08582,2.57657 0.170739,5.15879 0.468613,7.72103 0.205662,1.52849 0.425309,3.0474 0.771631,4.55195 0.09557,0.41518 0.197759,0.82921 0.318182,1.23787 0.08473,0.28753 0.06607,0.65747 0.296734,0.84889 1.127691,0.93586 2.440234,1.62337 3.660352,2.43506 0.09031,-0.0743 0.209889,-0.12311 0.270942,-0.22285 0.112455,-0.1837 0.157041,-0.8752 0.163831,-1.00284 0.05433,-1.02125 -0.03363,-2.04301 -0.139364,-3.05785 -0.384928,-3.29566 -1.032026,-6.55346 -1.373815,-9.8538 z" />
    <path
       style="fill:#0000ff;stroke-width:0.264583"
       id="path32"
       d="m 195.09405,145.86201 c -0.73322,-1.82023 -1.0714,-3.74228 -1.28828,-5.68158 -0.0801,-1.45719 -0.30522,-2.96474 -0.001,-4.41316 0.0403,-0.1923 0.10649,-0.37826 0.15974,-0.56739 0.24864,-0.56527 0.61273,-1.45747 1.29351,-1.62528 0.10821,-0.0267 0.22201,-0.0198 0.33302,-0.0298 0.9238,0.23852 1.8302,0.54746 2.64826,1.04216 -7.49834,-4.18275 -2.18393,-1.65941 -1.9929,-0.74686 0.014,0.0668 -0.0222,0.1347 -0.0334,0.20205 -1.0035,0.7792 -2.25501,1.12847 -3.37232,1.7097 -0.0922,0.0966 -0.21321,0.17226 -0.27648,0.28983 -0.21767,0.40448 0.048,0.8028 0.40596,0.99405 4.03013,2.15293 2.55042,1.88355 4.82786,2.14667 0.896,0.0708 1.79442,0.12901 2.68428,0.2606 0.43689,0.0646 0.73213,0.10456 1.12905,0.2778 0.11919,0.052 0.2256,0.12942 0.33841,0.19414 -1.04949,-0.59088 -2.08854,-1.2007 -3.14848,-1.77263 -0.0561,-0.0303 0.10586,0.0827 0.12765,0.14263 0.029,0.0799 -0.30128,0.24952 -0.3884,0.29365 -0.58339,0.29554 -0.79956,0.3314 -1.46484,0.54554 -1.9874,0.52581 -4.03599,0.74179 -6.05847,1.08479 0,0 3.18481,2.22703 3.18481,2.22703 v 0 c 2.01266,-0.39603 4.04808,-0.67539 6.04405,-1.15471 0.6322,-0.19986 2.11227,-0.53358 2.28488,-1.35633 0.30162,-1.43772 -10.23409,-3.06941 -3.65829,-2.45741 -1.32632,-0.48373 -2.77789,-0.37579 -4.15681,-0.59441 -1.95012,-0.3521 -0.87074,-0.26379 1.92137,1.5758 0.10686,0.0704 -0.23612,-0.0988 -0.35511,-0.14589 -0.0886,-0.0351 -0.18597,-0.0512 -0.26745,-0.10052 -0.19706,-0.11924 -0.002,-0.20148 0.0977,-0.30987 0.55953,-0.30494 1.13626,-0.55166 1.71572,-0.81631 0.39288,-0.17943 1.00958,-0.45368 1.36842,-0.7116 0.17545,-0.1261 0.31984,-0.29058 0.47975,-0.43587 0.0465,-0.13627 0.12617,-0.26544 0.13954,-0.4088 0.0243,-0.26081 -0.10402,-0.45722 -0.26083,-0.64293 -1.03249,-1.22279 -4.06629,-1.90763 -4.36075,-2.74635 -0.693,-0.3484 -1.59935,-0.73951 -2.37297,-0.83112 -0.15213,-0.018 -0.30638,-7.9e-4 -0.45956,-0.001 -0.13307,0.041 -0.27268,0.0648 -0.3992,0.1229 -0.75098,0.34493 -1.11002,1.21442 -1.41551,1.91816 -0.0572,0.206 -0.12872,0.40855 -0.17154,0.618 -0.30413,1.48777 -0.0492,3.03319 0.0165,4.52911 0.20084,1.94176 0.50523,3.86724 1.16994,5.71245 z" />
    <path
       style="fill:#ffff00;stroke-width:0.264583"
       id="path33"
       d="m 60.617546,153.36352 c 2.291985,2.00832 4.150516,4.42707 5.934581,6.88011 1.033203,1.53388 2.31444,2.92488 3.127353,4.59784 0.117658,0.37684 0.456372,1.0675 0.08759,1.42587 -0.207661,0.20179 -0.556975,0.22863 -0.810109,0.28542 -1.790888,0.14653 -3.59073,0.0385 -5.383282,-0.0249 -0.509426,-0.0405 -0.814853,-0.0387 -1.302348,-0.17155 -0.816517,-0.22247 -5.225534,-2.44488 2.416199,1.44684 0.16197,0.0825 -0.291973,-0.22044 -0.412972,-0.35608 -0.129971,-0.14569 -0.222636,-0.32079 -0.333954,-0.48118 -0.412825,-0.8801 -0.738262,-1.92283 -0.489829,-2.90217 0.04692,-0.18497 0.137613,-0.35598 0.20642,-0.53397 0.127331,-0.16477 0.231698,-0.35018 0.381992,-0.49431 0.597543,-0.57305 1.482662,-0.84587 2.229745,-1.14673 0.102039,-0.0411 2.259046,-0.8889 2.292641,-0.90211 1.647639,-0.65496 3.324762,-1.31125 4.793575,-2.32423 0.720442,-0.49686 1.336836,-1.05144 2.001885,-1.61764 0.828167,-0.70372 1.639985,-1.42625 2.452915,-2.14739 0,0 -3.261805,-2.01894 -3.261805,-2.01894 v 0 c -0.782603,0.73787 -1.569516,1.4714 -2.388629,2.16907 -0.690911,0.57537 -1.23766,1.06013 -1.980901,1.56514 -1.458198,0.99079 -3.106756,1.65111 -4.746688,2.27165 -0.780074,0.29498 -1.565273,0.5765 -2.342494,0.87893 -0.830067,0.32299 -1.739156,0.64218 -2.384481,1.28825 -0.172526,0.17273 -0.296634,0.38783 -0.444955,0.58174 -0.08353,0.20413 -0.189955,0.40034 -0.250597,0.6124 -0.29917,1.04619 -2.65e-4,2.16269 0.372335,3.14349 0.09728,0.1863 0.177112,0.38281 0.291851,0.5589 0.106,0.16267 0.202343,0.34947 0.367049,0.45228 2.590411,1.61696 3.214655,2.33095 5.64666,2.40437 1.540968,0.0398 3.142935,0.13642 4.679003,0.0421 0.270515,-0.0166 0.538525,-0.0617 0.807786,-0.0926 0.446823,-0.15452 0.696436,-0.16692 1.010335,-0.53409 0.42585,-0.49812 0.221309,-1.21168 0.04692,-1.75754 -0.07477,-0.17155 -0.137671,-0.34877 -0.224306,-0.51464 -0.213426,-0.40862 -0.541372,-0.86145 -0.805982,-1.22754 -0.729501,-1.00926 -1.504008,-1.98509 -2.229231,-2.99755 -1.755769,-2.40145 -3.554145,-4.78492 -5.709189,-6.84939 z" />
    <path
       style="fill:#ffff00;stroke-width:0.264583"
       id="path34"
       d="m 91.21283,182.9388 c 1.634239,1.37776 3.12538,2.91756 4.466662,4.58132 0.779901,0.96742 1.047678,1.3813 1.74286,2.37147 0.721413,1.10854 1.470647,2.27454 1.755987,3.58925 0.176083,0.8113 0.110651,1.0017 0.06992,1.83284 -0.276146,1.67822 -1.145662,2.93987 -2.505038,3.94847 -0.248785,0.18459 -0.522592,0.33281 -0.783887,0.49922 -0.763733,0.36122 -1.66339,0.72314 -2.534885,0.53832 -0.287025,-0.0609 -0.552209,-0.20265 -0.813636,-0.33586 -0.274212,-0.13972 -1.063226,-0.61899 -0.788414,-0.48045 0.873252,0.44021 1.7237,0.92426 2.585548,1.38639 -0.176109,-0.17377 -0.376843,-0.3257 -0.528327,-0.52131 -0.43723,-0.56457 -0.555456,-1.27477 -0.327383,-1.95329 0.273341,-0.81317 0.630513,-1.17834 1.139362,-1.87811 0.312143,-0.30415 0.595054,-0.64151 0.936427,-0.91244 1.698755,-1.34821 4.157488,-2.07467 6.183264,-2.81171 1.70573,-0.58313 2.77631,-1.63215 3.90791,-2.9719 0.7058,-0.91747 1.3426,-1.88695 1.93168,-2.88279 0,0 -3.38406,-1.9517 -3.38406,-1.9517 v 0 c -0.54596,0.99147 -1.15175,1.95347 -1.84846,2.84668 -1.11442,1.28355 -2.12712,2.23373 -3.757897,2.83922 -2.033127,0.78896 -4.534286,1.5972 -6.238335,2.96173 -0.356367,0.28536 -0.65446,0.63671 -0.981692,0.95506 -0.536278,0.70458 -0.969052,1.16164 -1.293307,1.98709 -0.287681,0.73235 -0.26198,1.60791 0.165495,2.28419 0.139742,0.22108 0.348958,0.38967 0.523438,0.5845 1.323464,0.81589 2.635985,1.64979 3.970388,2.44766 0.525737,0.31435 1.118579,0.60005 1.74045,0.66153 0.929084,0.0918 1.839455,-0.31711 2.638195,-0.72488 0.268004,-0.18226 0.548465,-0.34744 0.80401,-0.54679 1.070755,-0.8353 2.009055,-1.94896 2.437715,-3.25396 0.1019,-0.3102 0.14688,-0.63628 0.22032,-0.95441 0.0666,-0.79653 0.15118,-1.15909 0.008,-1.94902 -0.0531,-0.29215 -0.15448,-0.57398 -0.25235,-0.85432 -0.36245,-1.03811 -0.90476,-1.98724 -1.53758,-2.88372 -0.6649,-0.93912 -1.0472,-1.50543 -1.77696,-2.42072 -1.296083,-1.62561 -2.724936,-3.13937 -4.25377,-4.54738 z" />
    <path
       style="fill:#ffff00;stroke-width:0.264583"
       id="path35"
       d="m 124.9122,31.466427 c 1.78917,1.307793 3.62489,2.563879 5.27358,4.049588 0.063,0.06428 0.78594,0.762836 0.68637,0.930733 -0.0512,0.08638 -1.05291,0.207187 -1.3152,0.238786 -1.68746,0.07738 -3.39034,0.264269 -5.07506,0.06385 -0.10896,-0.04897 -0.43067,-0.206087 -0.32689,-0.146918 1.0713,0.610748 2.14045,1.226201 3.23072,1.802402 0.0337,0.01783 -0.0503,-0.0786 -0.0295,-0.11058 0.084,-0.129198 0.20653,-0.229309 0.31905,-0.334626 0.26748,-0.250367 1.20789,-1.049536 1.43934,-1.247746 0.86272,-0.763736 1.60745,-1.641639 2.3292,-2.535637 0.52603,-0.651571 0.81503,-1.090732 1.43251,-1.660324 0.26688,-0.246189 0.56731,-0.453324 0.85097,-0.679987 0.72192,-0.525388 1.52922,-0.900213 2.33339,-1.276453 0,0 -3.22911,-2.127279 -3.22911,-2.127279 v 0 c -0.80168,0.415568 -1.60354,0.834498 -2.32572,1.383125 -0.29356,0.241184 -0.60389,0.463293 -0.88068,0.723548 -0.6498,0.610979 -0.88378,0.995177 -1.43804,1.684843 -0.5541,0.689478 -0.87745,1.085149 -1.50312,1.713344 -0.25885,0.2599 -0.53495,0.502039 -0.80243,0.753057 -0.27477,0.222808 -0.54925,0.445976 -0.82431,0.668425 -0.29628,0.239606 -0.95075,0.713615 -1.18566,1.074634 -0.89001,1.367771 2.33265,2.44071 3.75007,2.637279 1.69747,0.07861 3.3993,-0.07616 5.09408,-0.153387 0.54386,-0.079 1.36901,-0.08954 1.67516,-0.677103 0.26173,-0.502319 -0.38472,-0.95055 -0.63215,-1.263904 -1.62878,-1.492975 -3.4643,-2.728939 -5.22021,-4.064661 z" />
    <path
       style="fill:#ff0000;stroke-width:0.264583"
       id="path36"
       d="m 188.83015,42.309729 c 1.03075,0.827778 2.09106,1.614781 3.16717,2.382065 0.77893,0.507008 1.50656,1.081273 2.22722,1.666333 0.39082,0.31573 0.73923,0.677738 1.09729,1.028657 0.10096,0.09894 0.18509,0.220134 0.30559,0.294035 1.22611,0.751906 2.45397,1.504592 3.72503,2.177727 0.14005,0.07417 0.3155,0.03042 0.47325,0.04562 0.91616,-0.252095 1.7869,-0.704778 2.52329,-1.307877 0.3744,-0.306626 0.58931,-0.559755 0.91548,-0.909752 0.4526,-0.62453 0.84133,-1.340088 0.93737,-2.118627 0.0568,-0.46088 0.0114,-0.657918 -0.0356,-1.109392 -0.1104,-0.551577 -0.27892,-1.186366 -0.8118,-1.488009 -3.74867,-2.121956 -2.40049,-1.8747 -4.33326,-2.137923 -1.29386,-0.08077 -2.46506,0.135876 -3.65085,0.64144 -1.21128,0.630481 -2.24668,1.544571 -3.2595,2.448605 -1.11343,1.097706 -1.9457,2.433547 -2.88095,3.678131 -0.65604,0.903134 -1.36616,1.804609 -1.75357,2.862276 0,0 3.44933,1.897954 3.44933,1.897954 v 0 c 0.30038,-1.045652 1.02187,-1.909262 1.63389,-2.78793 0.89602,-1.238703 1.74215,-2.534645 2.83358,-3.612656 0.98784,-0.87617 2.023,-1.735595 3.21562,-2.319202 1.12861,-0.433856 2.32146,-0.637479 3.52919,-0.452959 1.64194,0.408543 0.49141,0.174387 -2.44601,-1.642787 -0.11006,-0.06808 0.24401,0.09177 0.35309,0.161401 0.37053,0.236522 0.51142,0.617871 0.61452,1.025001 0.0683,0.390438 0.12832,0.592714 0.0977,0.994847 -0.0542,0.7127 -0.40643,1.37261 -0.81881,1.937877 -0.73928,0.794639 -1.60036,1.558131 -2.68986,1.823484 -0.17776,0.04329 -0.36455,0.03155 -0.54682,0.04732 -1.43839,-0.484278 -0.99508,-0.366909 2.55793,1.632058 0.124,0.06977 -0.21739,-0.183867 -0.32073,-0.281667 -0.3671,-0.347398 -0.70183,-0.729375 -1.08014,-1.065491 -0.72477,-0.592307 -1.43474,-1.205216 -2.23426,-1.697431 -1.066,-0.750274 -2.13941,-1.492073 -3.12809,-2.344632 z" />
    <path
       style="fill:#008080;stroke-width:0.264583"
       id="path37"
       d="m 194.52645,58.471273 c -0.84041,0.180313 -1.64843,0.473763 -2.47377,0.709009 -0.73004,0.264218 -1.83227,0.511974 -2.43833,1.011246 -0.0813,0.06701 -0.13961,0.157913 -0.20941,0.23687 -0.11926,0.221303 -0.20558,0.596268 0.0685,0.76639 3.12827,1.94201 2.54793,1.611302 4.3716,2.428806 1.16129,0.67636 3.59381,1.860955 -1.71117,-0.982533 -0.20146,-0.107984 0.37805,0.257159 0.56312,0.391303 0.38242,0.277175 0.58235,0.444815 0.94304,0.73488 0.16312,0.202044 0.8243,0.584232 0.85051,0.880772 0.0112,0.127235 -0.13057,0.238961 -0.19567,0.312184 -0.63936,0.519152 -1.45456,0.762977 -2.2229,1.02561 -0.42842,0.07876 -0.9007,0.390297 -1.35637,0.297728 -0.15168,-0.03082 -0.28525,-0.121373 -0.42156,-0.194702 -0.14895,-0.08013 -0.58062,-0.347035 -0.43278,-0.264885 0.98652,0.548145 1.96609,1.10871 2.94913,1.663065 -0.19776,-0.189415 -0.60025,-0.469686 -0.57917,-0.802452 0.003,-0.04733 0.11912,-0.05876 0.12678,-0.06075 0.55622,-0.207044 1.06929,-0.526259 1.54501,-0.878649 0.33236,-0.294508 0.69079,-0.554781 1.04033,-0.827712 0.25599,-0.22057 0.41854,-0.506984 0.56979,-0.802992 0,0 -3.43598,-1.962936 -3.43598,-1.962936 v 0 c -0.12895,0.245057 -0.25799,0.483817 -0.4871,0.651923 -0.3483,0.266684 -0.6867,0.542861 -1.02047,0.827455 -0.48572,0.349467 -1.01765,0.602742 -1.55772,0.855887 -0.61217,0.553361 -0.29819,1.015238 0.15618,1.566469 1.24756,0.738629 2.48488,1.494827 3.74268,2.215885 0.30482,0.174747 0.65137,0.283692 1.00567,0.282152 0.48096,-0.0021 0.93066,-0.269571 1.38722,-0.376142 0.83861,-0.285449 1.71697,-0.561417 2.37581,-1.181794 0.20386,-0.253177 0.46626,-0.555638 0.36967,-0.917998 -0.0978,-0.366879 -0.56954,-0.588904 -0.79089,-0.85304 -0.47381,-0.388438 -0.98342,-0.856004 -1.50506,-1.173086 -1.62039,-0.984957 -3.26606,-2.011836 -4.97761,-2.859987 -0.14474,-0.06502 -0.29045,-0.127913 -0.43422,-0.195067 -0.10441,-0.04877 -0.40887,-0.212161 -0.31019,-0.152649 1.03129,0.621938 2.07885,1.21666 3.10898,1.840516 0.0646,0.03915 -0.13775,-0.06348 -0.2102,-0.08499 -0.048,-0.01426 -0.1111,0.01159 -0.14862,-0.02154 -0.0257,-0.02267 0.006,-0.06831 0.008,-0.102462 0.53667,-0.613175 1.73597,-0.822204 2.47706,-1.090819 0.83732,-0.236294 1.67037,-0.48994 2.52298,-0.666898 z" />
    <path
       style="fill:#008080;stroke-width:0.264583"
       id="path38"
       d="m 25.764916,96.374764 c -1.252169,0.552365 -2.597224,0.854072 -3.913791,1.21173 -1.223197,0.251744 -2.38082,0.67064 -3.47381,1.269014 -0.801432,0.478493 -1.513998,1.102873 -2.134298,1.797992 -0.290824,0.37343 -0.573737,0.8147 -0.527511,1.31189 0.01031,0.11092 0.04786,0.2176 0.07179,0.32641 0.280146,0.71644 0.905964,1.12784 1.547582,1.50069 2.847018,1.65441 3.004717,1.7373 4.8846,2.78004 -0.833084,-0.47578 -1.656695,-0.96855 -2.499253,-1.42734 -0.252517,-0.1375 0.486604,0.30646 0.727912,0.4628 0.995873,0.64521 1.978834,1.30652 2.934305,2.01018 0.179822,0.16511 1.270282,0.92314 1.035187,1.2969 -0.124389,0.19776 -0.537702,0.37529 -0.700516,0.46234 -1.403404,0.515 -2.883495,0.76613 -4.34663,1.04524 -1.43447,0.17242 -2.916751,0.58577 -4.367073,0.31435 -0.208764,-0.0391 -0.409983,-0.11113 -0.614974,-0.16669 -1.927023,-0.98628 1.528282,0.92366 2.324654,1.32546 0.155676,0.0785 -0.272066,-0.21968 -0.392734,-0.34555 -0.306989,-0.32022 -0.48884,-0.6912 -0.659256,-1.09275 -0.02101,-0.10377 -0.08146,-0.20705 -0.06303,-0.31131 0.0647,-0.36601 1.277848,-0.68684 1.439417,-0.73571 0.724573,-0.21912 1.459511,-0.40252 2.18688,-0.61218 1.363937,-0.40729 2.624677,-1.03878 3.737307,-1.92199 0,0 -3.308121,-2.07415 -3.308121,-2.07415 v 0 c -1.043664,0.87167 -2.252391,1.46779 -3.558033,1.8524 -0.743005,0.20713 -1.49461,0.38376 -2.233341,0.60566 -0.609106,0.18295 -1.565548,0.41764 -1.79403,1.14354 -0.04008,0.12734 0.01853,0.26635 0.0278,0.39953 0.121669,0.3463 0.153944,0.48178 0.337809,0.81309 0.982773,1.77087 3.21715,2.64608 5.047432,3.30731 0.212669,0.0384 0.423186,0.0917 0.638007,0.11532 1.472108,0.16184 2.942401,-0.25274 4.393786,-0.41866 1.513485,-0.26353 3.04948,-0.52826 4.476298,-1.11721 0.423833,-0.2587 1.045856,-0.56401 1.022284,-1.16879 -0.02244,-0.5758 -0.70512,-0.94892 -1.048933,-1.29401 -2.43902,-1.83178 -5.055683,-3.4144 -7.7297,-4.87766 -1.719365,-0.95282 -0.853422,-0.48109 1.70483,1.02208 0.483493,0.28409 -0.754583,-0.4045 -1.102974,-0.67644 -0.267472,-0.20878 -0.293186,-0.28204 -0.472805,-0.53977 -0.28562,-0.5596 -0.08764,-0.79889 0.248905,-1.28118 0.580508,-0.67331 1.268932,-1.24821 2.039836,-1.6935 1.065151,-0.57126 2.201863,-0.94666 3.377201,-1.225941 1.350273,-0.368874 2.72003,-0.686831 4.026815,-1.195218 z" />
    <path
       style="fill:#008080;stroke-width:0.264583"
       id="path39"
       d="m 177.62392,179.46588 c -1.16655,0.15868 -2.3289,0.33778 -3.48164,0.57966 -0.99932,0.22934 -1.9444,0.62707 -2.84579,1.1088 -0.86968,0.53451 -1.18815,1.21004 -1.42996,2.16303 -0.20503,0.91795 -0.0192,1.80634 0.54907,2.56343 0.14741,0.19639 0.32517,0.36804 0.48775,0.55206 1.09513,1.00785 2.42034,1.70619 3.63564,2.55162 0.12609,0.11916 0.27087,0.22124 0.37827,0.35748 0.50379,0.63902 0.45452,1.46327 0.073,2.15083 -0.10894,0.19634 -0.26176,0.3649 -0.39264,0.54734 -1.42262,1.47092 -3.10085,1.84542 -5.04607,2.16062 -1.19904,0.15011 -2.41121,0.2452 -3.61819,0.13424 -0.22541,-0.0207 -0.45245,-0.0392 -0.67317,-0.0895 -0.18525,-0.0422 -0.35908,-0.12434 -0.53862,-0.18651 -1.80358,-1.02031 2.25589,1.27701 2.63383,1.47164 0.0557,0.0287 -0.2816,-0.20572 -0.25706,-0.47109 0.022,-0.23773 0.24888,-0.38765 0.39615,-0.53218 0.15559,-0.10643 0.30688,-0.21943 0.46677,-0.31929 0.31402,-0.19613 1.05222,-0.59537 1.34512,-0.75797 0.88407,-0.49079 1.76282,-0.99103 2.64549,-1.48436 0.74594,-0.42603 1.5578,-0.75805 2.24168,-1.28833 0.53549,-0.41522 0.96138,-0.93915 1.38249,-1.46314 0,0 -3.34988,-1.99792 -3.34988,-1.99792 v 0 c -0.26662,0.34837 -0.43765,0.59472 -0.75652,0.90897 -0.77802,0.76674 -1.77353,1.22835 -2.71381,1.758 -0.88676,0.49279 -1.77267,0.98674 -2.66903,1.46197 -0.45668,0.24212 -0.96796,0.49089 -1.4081,0.76965 -0.18074,0.11448 -0.35004,0.24608 -0.52507,0.36912 -0.26675,0.27892 -0.48553,0.43138 -0.58861,0.81977 -0.0373,0.14038 2e-5,0.66706 0.14301,0.7641 2.76907,1.87914 2.45072,1.72725 4.10358,2.36829 0.18774,0.0412 0.37299,0.096 0.56321,0.12359 1.42608,0.20644 2.88867,0.002 4.3047,-0.16717 2.10848,-0.38641 3.70154,-0.8019 5.25272,-2.38295 0.1484,-0.20658 0.31939,-0.39869 0.4452,-0.61976 0.43343,-0.76156 0.59137,-1.74676 0.14114,-2.53994 -0.0925,-0.16299 -0.23718,-0.29025 -0.35576,-0.43538 -1.20243,-0.86955 -2.5251,-1.55984 -3.68532,-2.48951 -0.85904,-0.84577 -1.39084,-1.48447 -1.15396,-2.74323 0.18614,-0.84207 0.46607,-1.4419 1.25044,-1.88186 0.87523,-0.45852 1.80114,-0.81126 2.76657,-1.02891 1.15826,-0.23584 2.32397,-0.43082 3.50486,-0.5104 z" />
    <path
       style="fill:#008080;stroke-width:0.264583"
       id="path40"
       d="m 26.009745,18.857108 c -1.163391,0.262298 -2.348741,0.405587 -3.524509,0.597975 -1.46929,0.247904 -2.865195,0.752463 -4.191025,1.422371 -0.586919,0.374196 -1.200074,0.913275 -1.225401,1.668811 -0.0041,0.121071 0.02353,0.241133 0.0353,0.3617 0.06549,0.138045 0.113162,0.286052 0.19647,0.414134 0.528128,0.811971 1.776815,1.538923 2.573556,2.089787 0.964413,0.680971 1.926135,1.365654 2.887029,2.051575 0.192731,0.146421 1.505688,1.010865 1.378676,1.300808 -0.02304,0.05258 -0.0934,0.06678 -0.140096,0.100164 -1.394399,0.38337 -2.862887,0.367424 -4.297988,0.397499 -1.066098,-0.06053 -2.354213,0.165799 -3.383501,-0.209214 -0.11477,-0.04182 -0.21643,-0.113318 -0.324645,-0.169979 7.16516,3.854402 2.878106,2.377699 2.723549,1.082625 -0.03794,-0.317937 0.05149,-0.478123 0.145167,-0.786927 0.396564,-1.061582 1.118959,-1.886447 2.055502,-2.501508 0.305736,-0.190614 0.645013,-0.288449 0.987202,-0.386728 0,0 -3.253292,-2.213617 -3.253292,-2.213617 v 0 c -0.366404,0.127496 -0.720116,0.264472 -1.037134,0.496151 -0.955373,0.710464 -1.72341,1.605292 -2.179147,2.717459 -0.109687,0.301331 -0.259982,0.638212 -0.276927,0.967255 -0.0055,0.107741 0.02953,0.214125 0.05522,0.318903 0.404734,1.650828 2.495038,1.98796 3.872892,2.738956 1.207117,0.348863 2.479507,0.182221 3.718507,0.191127 0.909697,-0.02032 1.823657,-0.02617 2.730067,-0.116197 0.373789,-0.03713 0.957319,-0.112374 1.325524,-0.236477 0.176586,-0.05952 0.33845,-0.156049 0.507677,-0.234074 0.204031,-0.245195 0.397405,-0.361746 0.344689,-0.718735 -0.08223,-0.556858 -0.951704,-0.984481 -1.328765,-1.306701 -0.967041,-0.688755 -1.931793,-1.380217 -2.902642,-2.063607 -0.979859,-0.678686 -2.047453,-1.284336 -2.828344,-2.201724 -0.02928,-0.08441 -0.07374,-0.165015 -0.08783,-0.253245 -0.09971,-0.624397 0.537995,-1.072876 0.979818,-1.363077 1.296918,-0.669887 2.680519,-1.116346 4.129398,-1.318271 1.196098,-0.195401 2.396283,-0.36873 3.586852,-0.596342 z" />
    <path
       style="fill:#ffff00;stroke-width:0.264583"
       id="path41"
       d="m 191.3329,179.18177 c 0.75814,0.75776 1.50663,1.51353 2.17335,2.35432 0.69926,0.89811 1.1456,1.92406 1.43619,3.01592 0.27336,1.19415 0.22921,2.41891 0.083,3.62562 -0.23296,1.2071 -0.70583,2.36247 -1.32318,3.42181 -0.11954,0.14403 -0.2241,0.30194 -0.35862,0.43208 -0.35638,0.34478 -1.18437,0.9133 -1.70896,0.70844 -0.14464,-0.0565 -0.25621,-0.17549 -0.38432,-0.26323 4.95255,2.83248 2.95587,2.09432 2.30607,0.61079 -0.24709,-0.56414 -0.34524,-1.12644 -0.40563,-1.73293 0.0136,-0.18942 0.001,-0.38257 0.0409,-0.56828 0.24184,-1.13012 1.59173,-2.48508 2.36963,-3.3106 1.36951,-1.29369 2.88583,-2.41331 4.3953,-3.53482 0.8468,-0.62566 1.74733,-1.17241 2.61576,-1.76644 0,0 -3.31051,-2.10631 -3.31051,-2.10631 v 0 c -0.84317,0.62012 -1.72465,1.18596 -2.56136,1.8152 -1.50499,1.15945 -3.0373,2.29395 -4.42331,3.59661 -0.59989,0.65589 -0.64124,0.68575 -1.22042,1.38332 -0.52807,0.636 -1.10562,1.30051 -1.31839,2.12394 -0.0525,0.20317 -0.045,0.41728 -0.0675,0.62591 0.0102,0.21301 0.003,0.42754 0.0305,0.63902 0.0787,0.60783 0.28317,1.26093 0.56023,1.80679 0.0922,0.18157 0.14834,0.4064 0.31499,0.5234 1.20205,0.84389 2.49507,1.55013 3.74261,2.3252 0.16479,0.0416 0.32458,0.11719 0.49437,0.12466 0.63004,0.0277 1.46085,-0.5731 1.87263,-1.00033 0.14331,-0.14868 0.25613,-0.32399 0.3842,-0.48599 0.64325,-1.10411 1.13213,-2.30696 1.39732,-3.5594 0.1634,-1.243 0.22442,-2.50618 -0.004,-3.74646 -0.26268,-1.14096 -0.69086,-2.21953 -1.38748,-3.171 -0.634,-0.84498 -1.3245,-1.62957 -2.09952,-2.34922 z" />
    <path
       style="fill:#ff0000;stroke-width:0.264583"
       id="path42"
       d="m 174.79525,160.43755 c -1.15113,1.41843 -2.55555,2.58073 -4.06357,3.59723 -0.60889,0.31579 -1.23437,0.67087 -1.92126,0.7905 -0.15222,0.0265 -0.31005,0.0443 -0.463,0.0223 -0.12189,-0.0175 -0.22844,-0.0921 -0.34266,-0.13809 1.01916,0.54829 2.03831,1.09658 3.05747,1.64486 -0.0982,-0.12924 -0.21522,-0.24618 -0.29474,-0.38772 -0.42016,-0.7479 -0.50203,-1.68797 -0.58052,-2.52513 -0.0921,-0.97347 0.36286,-1.51223 1.14912,-2.01223 0.3927,-0.0974 0.50083,-0.17336 0.9177,-0.0678 0.1728,0.0437 0.64672,0.29741 0.49293,0.20731 -5.91392,-3.46471 -3.19214,-1.90837 -2.35817,-1.22142 0.17737,0.14611 0.34067,0.3085 0.51101,0.46276 1.07912,1.15064 2.12615,2.32652 3.25091,3.43394 0.47045,0.45009 0.94713,0.89267 1.40903,1.35151 0,0 3.60648,1.4948 3.60648,1.4948 v 0 c -0.46938,-0.47647 -0.96326,-0.92436 -1.45515,-1.37763 -1.13469,-1.08726 -2.19074,-2.24543 -3.2246,-3.42834 -1.5921,-1.5773 -2.02793,-1.64416 -4.82721,-3.10083 -0.51278,-0.26684 -1.14414,-0.0765 -1.62387,0.13799 -0.13637,0.0994 -0.28209,0.18717 -0.40908,0.29832 -0.47125,0.41243 -0.9103,1.04592 -0.97508,1.68462 -0.0131,0.12907 0.0162,0.25897 0.0243,0.38845 0.0998,1.08696 0.25864,2.20066 0.75101,3.18653 1.23668,0.73603 2.44479,1.52236 3.71005,2.2081 0.17887,0.0969 0.75269,-0.031 0.89425,-0.0707 0.6928,-0.19406 1.32691,-0.55601 1.94339,-0.91524 1.50047,-1.07741 2.89466,-2.2763 4.17775,-3.60727 z" />
    <path
       style="fill:#ff0000;stroke-width:0.264583"
       id="path43"
       d="m 25.179125,38.961906 c -1.31699,1.991492 -2.963846,3.778271 -4.77252,5.334291 -0.461734,0.397232 -0.949256,0.763469 -1.423885,1.145201 -1.384878,1.001565 -2.854521,1.874999 -4.414427,2.574568 -0.610603,0.273839 -1.684822,0.718466 -2.380877,0.829622 -0.298693,0.0477 -0.604922,0.0063 -0.907383,0.0096 -2.2141421,-0.895154 1.369274,0.95627 2.14538,1.237956 0.199438,0.07238 -0.24257,-0.35682 -0.30121,-0.560723 -0.06884,-0.239377 -0.08824,-0.494911 -0.07389,-0.743577 0.05084,-0.881322 0.234533,-1.018696 0.644569,-1.806173 0.233477,-0.273638 0.443609,-0.569058 0.70043,-0.820915 0.869433,-0.852628 2.297896,-1.67436 3.553024,-1.668841 0.315591,0.0013 0.623541,0.09795 0.935311,0.146929 0.323384,0.140689 1.269222,0.608962 0.970151,0.422074 -0.727328,-0.454507 -1.455095,-0.934379 -2.260727,-1.228553 -0.384078,-0.140243 0.654094,0.491582 0.966114,0.755832 0.973615,0.824556 1.850479,1.76517 2.743671,2.673562 0.944311,0.877287 1.968554,1.659921 2.987618,2.446406 0,0 3.525527,1.40502 3.525527,1.40502 v 0 c -1.03016,-0.774047 -2.064583,-1.544945 -3.026822,-2.404076 -0.896773,-0.910418 -1.769111,-1.855317 -2.720886,-2.709505 -1.80025,-1.615668 -3.927002,-2.959931 -6.256918,-3.643165 -0.334926,-0.02 -0.670201,-0.08515 -1.004779,-0.05999 -1.323131,0.0995 -2.758936,0.983739 -3.669209,1.904659 -0.271626,0.274804 -0.497588,0.591267 -0.746382,0.886899 -0.182707,0.331975 -0.4072129,0.644168 -0.5481194,0.995929 -0.2139193,0.534029 -0.3184403,1.243414 -0.2378258,1.821275 0.2883956,2.067271 2.8975192,2.922661 4.7938752,3.18485 0.30812,-0.03567 0.622344,-0.03634 0.92436,-0.107024 0.714947,-0.167333 1.713876,-0.616635 2.351792,-0.923845 1.554501,-0.748623 3.028564,-1.645904 4.420342,-2.665736 0.478291,-0.388477 0.968292,-0.762968 1.434873,-1.165434 1.849573,-1.595416 3.508136,-3.408939 5.065455,-5.286009 z" />
    <path
       style="fill:#0000ff;stroke-width:0.264583"
       id="path44"
       d="m 35.766991,127.55738 c 0.107349,2.36275 0.09796,4.72924 0.08965,7.09386 -0.01349,1.15338 -0.02299,2.31123 -0.195908,3.45436 -0.02878,0.1903 -0.0487,0.38497 -0.113945,0.56603 -0.0097,0.0269 -0.110374,-0.0277 -0.08421,-0.0162 1.107493,0.48737 2.220092,0.96306 3.330141,1.44458 -0.09298,-0.4483 -0.205581,-0.89299 -0.278953,-1.34492 -0.174344,-1.07387 -0.351697,-2.82424 -0.435753,-3.89214 -0.101343,-1.28753 -0.169013,-2.45748 -0.12378,-3.74685 0.01924,-0.54824 0.08355,-1.09396 0.125331,-1.64093 0.332221,-2.33154 1.006266,-4.05328 2.618168,-5.76327 0.413795,-0.33548 0.818211,-0.63761 1.384062,-0.52662 0.20166,0.0396 0.755012,0.31733 0.579475,0.21047 -3.775067,-2.29796 -3.193304,-1.89981 -1.94663,-0.9136 1.110909,1.20062 2.019697,2.68489 2.208567,4.34478 0.02835,0.24918 0.0027,0.50157 0.004,0.75235 -0.05751,0.20957 -0.07097,0.43657 -0.172521,0.6287 -0.579025,1.09541 -2.582717,1.2486 -3.647117,1.3846 -1.060334,0.0844 -0.562089,0.0544 -1.543969,0.0982 -0.394726,0.0176 -1.122629,-0.0271 -1.226042,0.53437 -0.02858,0.15516 0.04504,0.31231 0.06755,0.46847 0.148042,0.14634 0.267491,0.32888 0.444127,0.43902 1.311436,0.81778 2.657139,1.57994 4.005344,2.33557 0.279376,0.15658 0.579276,0.27372 0.873964,0.39913 0.905565,0.38538 1.835213,0.70457 2.768028,1.01568 0.575157,0.20783 1.174015,0.37201 1.721938,0.65016 0.109384,0.0555 0.4225,0.24944 0.315492,0.18947 -3.199331,-1.79302 -3.866407,-2.76147 -3.038719,-1.61893 0.0066,0.0608 0.03196,0.12251 0.01966,0.18242 -0.08441,0.41098 -0.583668,0.62996 -0.905563,0.77613 -0.550807,0.25011 -1.055913,0.39579 -1.632069,0.58369 -1.372418,0.42171 -2.795185,0.62426 -4.223499,0.72333 -0.442074,0.0602 -0.844915,-0.0133 -1.249312,-0.18407 0,0 3.126137,2.41723 3.126137,2.41723 v 0 c 0.435329,0.0897 0.869521,0.1081 1.311568,0.0398 1.424133,-0.15851 2.841387,-0.40059 4.208455,-0.84113 0.566467,-0.18713 1.164635,-0.36436 1.706462,-0.62076 0.637825,-0.30182 1.14876,-0.67647 1.227293,-1.41357 -0.02143,-0.1009 0.02045,-0.2439 -0.0643,-0.30269 -2.132544,-1.47906 -3.353445,-2.28403 -5.559806,-2.94103 -0.922768,-0.31188 -1.839105,-0.63356 -2.725155,-1.04167 -0.29781,-0.13717 -1.156663,-0.61554 -0.879798,-0.43989 0.02323,0.0147 3.972425,2.33977 2.147194,1.26516 -0.08066,-0.034 -0.183242,-0.037 -0.241964,-0.10193 -0.07889,-0.0872 0.126281,-0.17362 0.390367,-0.21503 0.689062,-0.10806 1.404982,-0.0426 2.09116,-0.18582 1.300504,-0.19791 3.228126,-0.41861 3.916294,-1.74307 0.116157,-0.22356 0.137845,-0.48464 0.206767,-0.72696 0.0049,-0.27698 0.03989,-0.55506 0.01474,-0.83094 -0.155123,-1.70069 -1.065035,-3.27352 -2.106766,-4.57814 -1.678932,-1.56652 -0.976776,-1.00892 -4.697203,-2.89082 -0.349478,-0.17678 -0.916424,-0.12267 -1.269778,0.006 -0.369594,0.13458 -0.63895,0.4155 -0.927587,0.66401 -1.54463,1.82876 -2.295713,3.67133 -2.5884,6.06523 -0.03787,0.55967 -0.09792,1.11828 -0.113607,1.67901 -0.08401,3.00296 0.393324,5.98857 0.570497,8.97952 1.200436,0.76817 2.353773,1.61546 3.601307,2.30451 0.08058,0.0445 0.11738,-0.1489 0.13979,-0.23819 0.05019,-0.19998 0.05513,-0.40877 0.07409,-0.61407 0.108183,-1.1713 0.127223,-2.34847 0.14064,-3.52386 -0.0082,-2.33413 -0.01953,-4.67032 0.08965,-7.0025 z" />
    <path
       style="fill:#0000ff;stroke-width:0.264583"
       id="path45"
       d="m 171.15006,37.060698 c 0.0944,2.04937 0.0836,4.10184 0.007,6.151454 -0.0208,0.95087 -0.0986,1.89915 -0.18738,2.845662 -0.0178,0.189513 -0.0362,0.378987 -0.0577,0.568121 -0.007,0.06449 -0.0867,0.163616 -0.0286,0.192599 1.15992,0.578873 2.37231,1.046022 3.55846,1.569032 0.0333,-1.285031 0.0438,-2.573584 0.25322,-3.846092 0.17917,-1.088787 0.34425,-1.580618 0.63591,-2.642354 0.62328,-1.820614 1.34392,-3.671438 2.49137,-5.238126 0.14921,-0.203721 0.32702,-0.384857 0.49054,-0.577286 0.47324,-0.270341 0.50544,-0.417346 1.067,-0.246034 0.21153,0.06453 0.78401,0.409552 0.59054,0.302406 -0.90231,-0.499719 -1.77026,-1.07165 -2.71733,-1.480256 -0.23366,-0.100812 0.38335,0.339307 0.53917,0.540501 0.17152,0.221456 0.2906,0.478962 0.43589,0.718442 0.46021,1.009957 0.70435,2.102511 0.80304,3.205231 0.0224,0.250544 0.0531,0.50269 0.0371,0.753724 -0.0137,0.213952 -0.0837,0.420539 -0.12549,0.630809 -0.34114,0.621376 -0.89715,0.889309 -1.53802,1.125048 -0.1955,0.07192 -0.79807,0.19831 -0.99593,0.395023 -0.0807,0.0802 -0.093,0.207645 -0.13947,0.311467 0.0354,0.120531 8e-4,0.293391 0.10631,0.361596 1.21228,0.78364 2.49204,1.458976 3.76451,2.140566 0.14739,0.07895 0.32219,0.08955 0.48318,0.134697 0.50987,0.142975 1.02396,0.257632 1.53739,0.386921 1.73181,0.907926 -1.80815,-1.067983 -2.75249,-1.524227 -0.0679,-0.03281 0.052,0.149965 0.0353,0.223496 -0.0299,0.131188 -0.101,0.250587 -0.16982,0.366212 -0.19365,0.325319 -0.42954,0.581382 -0.6719,0.869834 -0.95131,1.115803 -2.37123,1.335701 -3.7555,1.465355 -1.07422,0.06755 -2.16111,0.06551 -3.19272,-0.267131 -0.40974,-0.138356 -0.21092,-0.07223 -0.59634,-0.198695 0,0 3.12134,2.41817 3.12134,2.41817 v 0 c 0.38139,0.117624 0.18287,0.05867 0.59587,0.175879 1.05829,0.231402 2.14582,0.204915 3.22024,0.105802 1.51537,-0.198178 2.9087,-0.472972 3.94811,-1.69251 0.35976,-0.431554 0.79807,-0.887394 0.99391,-1.427324 0.0564,-0.155528 0.22256,-0.384813 0.0929,-0.487556 -2.39589,-1.898351 -2.36356,-1.851123 -3.97465,-2.401014 -0.5108,-0.124156 -1.02375,-0.242295 -1.52256,-0.410186 -0.15769,-0.05308 -0.60789,-0.263449 -0.46819,-0.173075 2.86067,1.850573 4.14101,1.721324 2.70197,1.809022 -0.15257,-0.09504 -0.12765,-0.0534 0.23529,-0.211587 0.20439,-0.08908 0.42249,-0.144031 0.62729,-0.232185 0.73962,-0.318376 1.35336,-0.691319 1.73183,-1.432272 0.0528,-0.241194 0.13776,-0.477541 0.15831,-0.723585 0.0217,-0.26027 -0.0125,-0.522443 -0.0325,-0.782857 -0.0877,-1.142846 -0.32768,-2.272996 -0.74723,-3.340841 -0.12908,-0.264705 -0.23106,-0.544438 -0.38724,-0.794115 -0.93576,-1.495964 -3.22975,-2.296885 -4.4353,-2.948662 -0.4041,-0.218472 -0.94218,-0.240511 -1.363,-0.05737 -0.21009,0.09143 -0.36927,0.271352 -0.5539,0.407027 -0.16488,0.210638 -0.34408,0.410819 -0.49464,0.631913 -0.17365,0.254971 -0.32343,0.525531 -0.47614,0.793562 -0.82716,1.451813 -1.48998,2.986772 -1.99867,4.578649 -0.28309,1.017648 -0.47853,1.638845 -0.67694,2.67821 -0.23738,1.243454 -0.28321,2.503575 -0.41086,3.75916 1.16293,0.684136 2.30447,1.405999 3.48879,2.052405 0.0548,0.02993 -0.052,-0.116488 -0.0561,-0.178824 -0.0128,-0.19472 -0.003,-0.390435 0.006,-0.585393 0.0417,-0.959787 0.18534,-1.912853 0.1682,-2.875428 0.0493,-2.033551 0.041,-4.068197 0.11896,-6.10071 z" />
    <path
       style="fill:#ffff00;stroke-width:0.264583"
       id="path46"
       d="m 148.86752,134.59053 c 1.86675,2.23217 3.44317,4.71876 4.6675,7.35974 0.18947,0.4087 0.3551,0.82803 0.53264,1.24204 0.31597,0.82694 0.65401,1.67167 0.7429,2.56198 0.0291,0.2918 0.045,0.63598 -0.13149,0.89709 -0.0666,0.0985 -0.17986,0.1554 -0.26979,0.23309 -1.11695,0.49617 -2.29071,0.15033 -3.3737,-0.25693 0.90574,0.50469 1.78523,1.05967 2.71722,1.51406 0.22048,0.10749 -0.39345,-0.29531 -0.56895,-0.46667 -0.50974,-0.4977 -1.07056,-1.33619 -1.15605,-2.06068 -0.0359,-0.30393 0.0394,-0.6108 0.0592,-0.91619 0.13638,-0.33479 0.23692,-0.68654 0.40914,-1.00438 0.38739,-0.71492 1.00753,-1.44272 1.5366,-2.05015 0.81843,-0.93964 1.69821,-1.81709 2.58569,-2.69036 0.94502,-0.86951 1.71687,-1.69716 2.1374,-2.92125 0,0 -3.45267,-1.89308 -3.45267,-1.89308 v 0 c -0.32371,1.16132 -1.08781,1.98926 -1.9274,2.82928 -0.86908,0.89973 -1.75166,1.79262 -2.57308,2.73673 -0.49785,0.5722 -1.23973,1.46763 -1.61831,2.12909 -0.19794,0.34585 -0.32513,0.72765 -0.4877,1.09148 -0.0492,0.34709 -0.16213,0.69101 -0.14756,1.04126 0.0122,0.29265 0.12619,0.57379 0.22622,0.84908 0.83423,2.29602 3.33768,3.12301 5.32045,4.19473 1.21221,0.38406 2.50993,0.64167 3.65675,-0.0747 0.1179,-0.12785 0.26326,-0.235 0.35371,-0.38355 0.61051,-1.00271 -0.27608,-2.85027 -0.62398,-3.7931 -0.51743,-1.17227 -0.66672,-1.56393 -1.29082,-2.73704 -1.10308,-2.07348 -2.37549,-4.06108 -3.78922,-5.93571 z" />
    <path
       style="fill:#ffff00;stroke-width:0.264583"
       id="path47"
       d="m 38.638778,101.59427 c 1.473687,1.41589 2.856752,2.9209 4.163553,4.49114 0.597217,0.7689 1.250423,1.51311 1.722837,2.37101 0.0971,0.17633 0.42487,0.87094 0.420518,1.12765 -0.0021,0.11716 -0.103513,0.21026 -0.155271,0.31539 -0.187979,0.078 -0.368149,0.17846 -0.563941,0.23402 -0.617013,0.17508 -1.641655,0.31419 -2.25027,0.39833 -0.473771,0.0655 -1.862408,0.25057 -2.371109,0.25523 -0.312909,0.003 -0.623668,-0.0522 -0.9355,-0.0782 -2.268982,-0.99924 1.397137,0.91772 2.170681,1.21749 0.155178,0.0601 -0.193395,-0.29387 -0.193392,-0.46029 0,-0.18653 0.08432,-0.37379 0.193402,-0.5251 0.393211,-0.54541 0.961999,-0.77856 1.524916,-1.10529 0.40195,-0.17274 0.800539,-0.35352 1.205849,-0.51823 3.103253,-1.26106 -0.257453,0.1779 3.018279,-1.20846 1.477198,-0.62518 2.921278,-1.30563 4.36045,-2.0128 1.07215,-0.62807 2.274533,-1.05647 3.291226,-1.78161 0.368956,-0.26315 0.428236,-0.3556 0.718815,-0.66856 0.2507,-0.37751 0.15267,-0.18527 0.304832,-0.57111 0,0 -3.464246,-1.90937 -3.464246,-1.90937 v 0 c -0.07502,0.29149 -0.01601,0.14047 -0.198247,0.44422 -1.008401,1.13006 -2.513173,1.65327 -3.777263,2.43005 -1.417611,0.71873 -2.839889,1.4039 -4.309684,2.01154 -3.192253,1.31974 -0.0052,-0.0328 -3.074749,1.17934 -0.425577,0.16806 -0.84223,0.3579 -1.263346,0.53684 -0.793157,0.46566 -1.887987,0.97245 -2.049068,2.02272 -0.03365,0.2194 -0.06269,0.52051 0.112935,0.65624 2.841421,2.196 2.533345,2.03792 4.519184,2.53094 0.313309,0.004 0.626999,0.0295 0.939924,0.0134 0.46891,-0.0241 1.933781,-0.22428 2.363293,-0.28472 0.552891,-0.0778 1.84382,-0.24241 2.398829,-0.44738 0.265041,-0.0979 0.487957,-0.28497 0.731938,-0.42745 0.08949,-0.18758 0.244496,-0.35629 0.268467,-0.56273 0.02307,-0.19869 -0.07257,-0.39468 -0.135229,-0.58464 -0.395663,-1.19951 -1.293839,-2.14296 -2.050904,-3.12029 -1.262084,-1.54301 -2.596007,-3.0214 -3.981447,-4.45476 z" />
    <path
       style="fill:#008080;stroke-width:0.264583"
       id="path48"
       d="m 49.80591,40.559984 c -1.553189,0.202041 -3.103357,0.394002 -4.61508,0.814105 -0.897173,0.345805 -1.961697,0.6629 -2.551507,1.488003 -0.103698,0.145068 -0.173243,0.311735 -0.259865,0.467601 -0.04128,0.179639 -0.112541,0.354944 -0.123831,0.538919 -0.0525,0.855363 0.46532,1.704964 1.184527,2.142908 1.310243,0.797846 2.656453,1.535067 3.98468,2.3026 1.453137,0.653889 2.995316,1.064945 4.478737,1.638906 1.320951,0.67346 1.940227,0.999463 -2.383615,-1.385613 -0.110832,-0.06113 0.212595,0.138452 0.310094,0.219171 0.246713,0.204253 0.313179,0.372827 0.347348,0.67887 -0.104892,0.714473 -0.423971,1.400527 -1.077915,1.769298 -0.183822,0.103661 -0.387551,0.167174 -0.581327,0.250762 -1.003961,0.256828 -2.284367,0.624501 -3.329585,0.497676 -0.175671,-0.02133 -0.346142,-0.07379 -0.519211,-0.110681 -1.108223,-0.424508 -2.220214,-0.85018 -3.285834,-1.375272 -1.671074,-0.943878 1.796841,1.040429 2.702994,1.546973 0.07989,0.04466 -0.153175,-0.101234 -0.222083,-0.161477 -0.207883,-0.181748 -0.230103,-0.332132 -0.233842,-0.594831 0.04261,-0.08771 0.06971,-0.184828 0.127821,-0.263134 0.426966,-0.575328 1.661858,-1.256138 2.2895,-1.640371 0.615466,-0.378003 0.317863,-0.191829 0.893313,-0.557721 0,0 -3.292454,-2.114608 -3.292454,-2.114608 v 0 c -0.559758,0.36826 -0.269301,0.180298 -0.871942,0.562993 -0.72018,0.453703 -1.934956,1.124152 -2.433191,1.796029 -0.08963,0.12087 -0.145645,0.263369 -0.218466,0.395055 -0.05804,0.391737 -0.110924,0.900631 0.292769,1.14591 2.961971,1.799654 2.473619,1.544963 4.027332,2.323484 1.086125,0.492866 2.196346,0.962821 3.346354,1.280781 0.183613,0.01926 0.366313,0.05199 0.550844,0.05778 1.157703,0.03632 2.313321,-0.331647 3.410173,-0.645329 0.216257,-0.10505 0.444513,-0.188333 0.648768,-0.315151 0.740421,-0.459705 1.089854,-1.246335 1.292591,-2.058148 0.0387,-0.538229 -0.0084,-0.96882 -0.524182,-1.278097 -3.382241,-2.027869 -2.517416,-1.625504 -4.31722,-2.412867 -1.484894,-0.539528 -3.01943,-0.959837 -4.434435,-1.675432 0.875684,0.517909 1.745557,1.045766 2.627051,1.553723 0.193198,0.111329 -0.387337,-0.224324 -0.561557,-0.363489 -0.411038,-0.32834 -0.749266,-0.823921 -0.776767,-1.367701 -0.0073,-0.14506 0.0434,-0.287231 0.0651,-0.430844 0.07133,-0.128678 0.127317,-0.267142 0.213987,-0.386027 0.549479,-0.753745 1.574213,-1.016699 2.396003,-1.32782 1.513168,-0.392795 3.058586,-0.616905 4.617257,-0.736444 z" />
    <path
       style="fill:#008080;stroke-width:0.264583"
       id="path49"
       d="m 130.91551,130.31965 c -1.75914,-0.008 -3.50643,0.18436 -5.21392,0.60357 -0.42438,0.16889 -1.17618,0.43914 -1.16747,1.04215 0.0113,0.78465 0.83841,1.3074 1.35796,1.73992 1.61299,1.17793 3.26713,2.29787 4.83197,3.54034 0.67507,0.57424 1.37717,1.25901 1.34931,2.21843 -0.006,0.19515 -0.0539,0.38673 -0.0808,0.5801 -0.6126,1.81332 -1.94937,3.16599 -3.36234,4.39306 -0.30808,0.19773 -0.59858,0.42599 -0.92425,0.59318 -1.46637,0.75279 -3.45242,1.1322 -5.09189,1.19262 -0.34757,0.0128 -0.6953,-0.0206 -1.04295,-0.031 -0.65079,-0.19675 -5.47191,-1.70901 2.02376,1.2481 0.1727,0.0681 -0.22482,-0.30607 -0.27333,-0.48528 -0.20351,-0.75183 0.22453,-1.47137 0.5443,-2.10619 0.20766,-0.25298 0.39041,-0.52865 0.62297,-0.75895 1.25998,-1.24784 3.04214,-1.83308 4.68128,-2.38516 1.29151,-0.34542 2.43073,-0.99885 3.46122,-1.83396 0.11299,-0.10625 0.22598,-0.21251 0.33897,-0.31876 0,0 -3.33728,-2.05722 -3.33728,-2.05722 v 0 c -0.10444,0.1 -0.20888,0.2 -0.31332,0.29999 -0.98705,0.80886 -2.10445,1.38821 -3.32767,1.76153 -2.05938,0.75786 -4.11296,1.55913 -5.46478,3.38599 -0.39113,0.74189 -0.82547,1.50205 -0.73594,2.38161 0.21009,2.06399 3.00951,2.83234 4.86613,3.11214 0.3461,-0.008 0.69316,0.003 1.03831,-0.0243 1.69307,-0.13197 3.69918,-0.53222 5.20873,-1.32795 0.33972,-0.17908 0.64169,-0.42206 0.96254,-0.63308 1.47291,-1.29755 2.84493,-2.71427 3.55995,-4.58084 0.0448,-0.21665 0.11094,-0.42996 0.13448,-0.64995 0.11426,-1.06743 -0.48816,-1.88363 -1.26323,-2.54075 -1.56078,-1.24636 -3.20282,-2.38476 -4.83169,-3.53954 -0.56492,-0.43229 -0.66787,-0.48881 -1.16463,-0.94634 -0.11333,-0.10439 -0.26706,-0.18447 -0.3275,-0.3262 -0.16253,-0.38114 0.74501,-0.69176 0.91402,-0.74397 1.70249,-0.42089 3.44814,-0.59502 5.2023,-0.4964 z" />
  </g>
</svg>
