<?xml version="1.0" encoding="UTF-8" standalone="no"?>
<!-- Created with Inkscape (http://www.inkscape.org/) -->

<svg
   width="77.446518mm"
   height="27.888197mm"
   viewBox="0 0 77.446518 27.888197"
   version="1.1"
   id="svg1"
   xmlns="http://www.w3.org/2000/svg"
   xmlns:svg="http://www.w3.org/2000/svg">
  <defs
     id="defs1" />
  <g
     id="layer1"
     transform="translate(-48.346246,-62.804186)">
    <path
       style="fill:#000000;stroke-width:0.264583"
       id="path3"
       d="m 63.096585,63.740804 c 0.01281,6.284944 -0.262337,12.566178 -0.478866,18.846299 -0.04288,2.422102 -0.04319,1.280562 -0.01244,3.4246 0,0 3.409273,1.723787 3.409273,1.723787 v 0 c -0.103055,-2.15963 -0.06806,-1.008943 -0.08836,-3.452521 0.08865,-6.280108 0.225168,-12.56062 0.521335,-18.83478 z" />
    <path
       style="fill:#000000;stroke-width:0.264583"
       id="path4"
       d="m 51.481523,65.127779 c 3.565215,0.568549 7.075712,1.439759 10.638909,2.019003 2.087864,0.33941 6.178798,0.855036 8.241768,1.123868 3.540167,0.467246 7.087383,0.87734 10.634837,1.284356 0,0 -2.926009,-2.174687 -2.926009,-2.174687 v 0 C 74.564529,67.02038 71.059104,66.648021 67.564771,66.181474 64.378063,65.75415 62.401467,65.520407 59.247046,64.975603 55.595561,64.344953 51.993057,63.4593 48.346247,62.804184 Z" />
    <path
       style="fill:#000000;stroke-width:0.264583"
       id="path5"
       d="m 85.843842,69.260171 c -0.98797,2.419716 -1.989394,4.826432 -2.793778,7.315102 -0.620977,2.293676 -1.086974,4.767498 -0.484391,7.12275 0.103,0.402585 0.273174,0.784929 0.409763,1.177391 0.19672,0.352459 0.360233,0.725625 0.590161,1.057378 1.267121,1.828287 3.271909,2.569557 5.311441,3.593724 0.746115,0.374666 2.461416,0.525857 3.261538,0.460309 0.620932,-0.05087 1.223211,-0.237336 1.834816,-0.356007 2.19742,-0.895194 2.658742,-1.021109 4.807114,-2.161157 1.813944,-0.96258 2.706284,-1.446667 4.135124,-2.924471 1.44638,-1.495954 1.56809,-2.028772 2.51586,-3.825938 0.1976,-0.65577 0.45771,-1.295871 0.59278,-1.967312 0.31014,-1.54163 0.20992,-3.205687 -0.60854,-4.584065 -0.51134,-0.861153 -0.93487,-1.095799 -1.6836,-1.695794 -2.29173,-1.275972 -3.27144,-2.324299 -5.453441,-2.670032 -2.060728,-0.32652 -4.182292,0.0038 -6.234017,0.231981 -1.740162,0.204467 -3.471561,0.483814 -5.218702,0.624771 0,0 3.207779,2.285188 3.207779,2.285188 v 0 c 1.713931,-0.182433 3.410786,-0.492093 5.121251,-0.702413 2.039615,-0.227031 4.148463,-0.519102 6.18444,-0.08923 0.38362,0.081 1.41364,0.60742 1.12558,0.341432 -0.6707,-0.619332 -1.5496,-0.965613 -2.3244,-1.448422 0.74166,0.511376 1.2442,0.76454 1.78087,1.53039 0.89085,1.271259 1.06356,2.878436 0.80274,4.375319 -0.11371,0.652584 -0.35739,1.275717 -0.53608,1.913575 -0.90348,1.741106 -1.02332,2.273527 -2.420137,3.719822 -2.358284,2.441816 -5.751203,3.780909 -8.890526,4.876895 -1.540526,0.232164 -1.916359,0.430014 -3.433924,0.136649 -0.527735,-0.102018 -1.820786,-0.936672 -1.539917,-0.47839 0.407297,0.664572 1.252074,0.983451 1.994651,1.220364 0.739293,0.235866 -2.432386,-1.882434 -1.428816,-1.837976 -0.147743,-0.373501 -0.32956,-0.735261 -0.443233,-1.120499 -0.674801,-2.286887 -0.232725,-4.723773 0.371772,-6.966733 0.793678,-2.470606 1.76871,-4.870069 2.887241,-7.211947 z" />
    <path
       style="fill:#000000;stroke-width:0.264583"
       id="path6"
       d="m 114.23283,72.187675 c 0.10681,4.34974 0.0756,8.701908 0.0276,13.052319 -0.0337,1.07319 -0.02,2.147218 0.0253,3.219765 0.007,0.154085 -0.12777,0.441918 0.0251,0.461981 1.03739,0.136126 2.46573,0.754451 3.1385,-0.04685 0.67272,-0.801256 -0.33152,-2.066002 -0.49728,-3.099001 -0.72735,-5.781021 -1.2795,-11.593616 -1.48773,-17.418285 0.0505,-0.28675 -0.14163,-2.224043 0.2369,-2.47632 0.13305,-0.08868 1.00112,0.438091 0.9176,0.390482 -0.85412,-0.486867 -1.71414,-0.963311 -2.57122,-1.444966 2.0075,1.283695 3.89563,2.737249 5.66846,4.326758 1.00912,0.919347 1.91003,1.959088 2.40646,3.241844 0.0516,0.185245 0.14907,0.432562 0.10295,0.635955 -0.18449,0.813462 -1.53388,1.554115 -2.13471,1.942444 -2.37173,1.38213 -4.94155,2.365658 -7.47342,3.405886 0,0 3.21035,2.143244 3.21035,2.143244 v 0 c 2.53403,-1.082085 5.11568,-2.08261 7.5089,-3.461404 0.81948,-0.515257 2.08276,-1.20556 2.4078,-2.218354 0.10061,-0.313515 0.0235,-0.475945 -0.0438,-0.776364 -0.44935,-1.366477 -1.35625,-2.480005 -2.4026,-3.450746 -1.76211,-1.604518 -3.64277,-3.058943 -5.61778,-4.394287 -1.38396,-0.786762 -2.73729,-1.630021 -4.15188,-2.360284 -0.38489,-0.198695 -0.94093,-0.248288 -1.27144,0.111511 -0.46604,0.507349 -0.11466,2.127633 -0.18495,2.677768 0.38414,5.852996 1.04868,11.684929 1.62278,17.521153 0.50583,4.425214 -0.34578,2.900204 4.14841,6.505429 0.12207,0.09793 -0.0515,-0.308932 -0.0677,-0.464595 -0.11204,-1.07864 -0.12358,-2.165834 -0.1319,-3.248938 -0.0473,-4.341026 -0.0802,-8.683863 0.0276,-13.024196 z" />
  </g>
</svg>
